<svg xmlns="http://www.w3.org/2000/svg" viewBox="0 0 42.03471 25.2986">
    <defs>
        <style>.a{fill:#1a78d9;}</style>
    </defs>
    <path class="a" d="M942,542.91729l36,.1417c3.846.01514,3.85111-5.96112,0-5.97628l-36-.1417c-3.846-.01514-3.85111,5.96112,0,5.97628Z" transform="translate(-938.98263 -528.425)" />
    <path class="a" d="M942,534.73917q17.99976-.13884,36,.01212c4.02124.03372,4.025-6.2139,0-6.24766q-17.99967-.151-36-.01212c-4.01849.031-4.02783,6.27873,0,6.24766Z" transform="translate(-938.98263 -528.425)" />
    <path class="a" d="M942,553.72337l36-.40329c3.69714-.04142,3.70684-5.79081,0-5.74928l-36,.40329c-3.69714.04142-3.70684,5.79081,0,5.74928Z" transform="translate(-938.98263 -528.425)" />
</svg>