<svg xmlns="http://www.w3.org/2000/svg" viewBox="0 0 716 715.1"><path d="M500,182.5c-197.7,0-358,160-358,357.5S302.3,897.5,500,897.5,858,737.5,858,540,697.7,182.5,500,182.5Zm0,689.1c-183.4,0-332.1-148.4-332.1-331.6S316.6,208.4,500,208.4,832.1,356.8,832.1,540,683.4,871.6,500,871.6Z" transform="translate(-142 -182.5)" style="fill:#f6911b"/><path d="M530,537.7q35.1,12.8,45.1,41.3c6.2,17.5,4.7,38.8-4.3,63.6-7.7,21-18.4,35.6-32.3,43.8s-33.4,9.7-54.7,2-33.3-12.3-38.7-14.6-9.7-4.8-12.6-7.4-4.6-5.3-4.7-8.1,1.3-8.7,4.6-17.7l44.5-122.3Z" transform="translate(-142 -182.5)" style="fill:#f6911b"/><path d="M562,394h-.1l9.6,3.3Zm0,0h-.1l9.6,3.3ZM461.7,684.9l32.4,11.8v-.3l-32.5-11.6ZM571.5,397.4,562,394h-.1ZM500,228.9c-171.8,0-311.1,139.3-311.1,311.1S328.2,851.1,500,851.1,811.1,711.8,811.1,540,671.8,228.9,500,228.9ZM665.5,509.3q-9.7,26.9-28.5,35.3-25.1,11.7-78.7.8,51.2,26.3,67.4,59.6,13.3,27.2,2.1,58.1-9.1,25-40.5,38.6c-24.1,10.5-49.6,10.8-76.5,1.1l-16.7-6.1-16.9,49.2-32.7-11.3,17.2-49.7-43.3-15.8-17.6,47.2-32.3-12.1,17.4-46.9-84-30.6,1.7-4.4c31.3,11.4,50.6,17,57.7,16.9,3.5-.1,6.2-1,8.2-2.9s4.6-7,7.8-15.7l83.9-230.7c3.1-8.4,4.5-14,4.1-16.9q-.2-2.1-4.5-5.7c-7.5-6.4-25.8-15-55.1-25.6l1.5-4.1L493.3,369l15.5-41.5,32.4,12-15.4,41.3L562,394l11.3-33.7,1.9-5.8,32.4,11.8-2.3,6.2L593.2,405l-20.3-7.1-1.4-.5,19,6.9q48.4,17.7,67.6,54.1C668.4,477.7,670.8,494.7,665.5,509.3ZM461.7,684.8h0l32.4,11.8v-.3Zm0,0h0l32.4,11.8v-.3ZM562,394h-.1l9.6,3.3Zm0,0h-.1l9.6,3.3Z" transform="translate(-142 -182.5)" style="fill:#f6911b"/><path d="M613.1,434.5q9.6,20.8-4.2,58.8c-8.2,22.6-20.4,36.4-36.4,41.5-13.3,4.3-30.9,2.5-52.6-5.4l-41.5-15.1L516.3,410c3.2-8.7,5.7-14.4,7.5-17.2a8.4,8.4,0,0,1,7.8-3.8c3.3.2,8.1,1.4,14.3,3.7l21.4,7.8Q603.5,413.7,613.1,434.5Z" transform="translate(-142 -182.5)" style="fill:#f6911b"/></svg>