<svg xmlns="http://www.w3.org/2000/svg" viewBox="0 0 1205.9 840.9"><defs><style>.a{fill:#f44236;fill-rule:evenodd;}</style></defs><path class="a" d="M1270.9,842H65a182.8,182.8,0,0,1,35.8-30.6c32.1-20.9,52.4-19.4,72.5-46.7,36.5-49.6,2.6-99.5,36.3-136.9,32-35.7,78.8-8.6,102.7-40.5,25.3-33.7-31.5-78.5-16.1-151.5,1.5-6.8,13.8-61.6,55.4-83,53.9-27.8,118.7,33.3,136.1,13.5S446.9,293.4,461,220.2a133.2,133.2,0,0,1,16-42,182.5,182.5,0,0,1,26-20c30.8-19.5,55.5-21.8,71-27,47.4-15.9,76.5-81.1,78.7-113.2,5-5.4,10.1-11,15.3-16.9C673.1,7,678.2,12.6,683.2,18c2.2,32.1,31.3,97.3,78.7,113.2,15.5,5.2,40.2,7.5,71,27a176.9,176.9,0,0,1,26,20,133.2,133.2,0,0,1,16,42c14.1,73.2-43.2,127.1-26.6,146.1s82.1-41.3,136-13.5c41.6,21.4,53.9,76.2,55.4,83,15.4,73-41.4,117.8-16.1,151.5,23.9,31.9,70.7,4.8,102.7,40.5,33.7,37.4-.2,87.3,36.3,136.9,20.1,27.3,40.4,25.8,72.5,46.7A182.8,182.8,0,0,1,1270.9,842Z" transform="translate(-65 -1.1)"/></svg>