<svg xmlns="http://www.w3.org/2000/svg" viewBox="0 0 331.4 350"><defs><style>.a{fill:#2cc1db;opacity:0;}.b{fill:#1c3462;}.c,.d,.e,.f,.g{fill:#3666b1;}.c{opacity:0.46;}.d{opacity:0.28;}.f{opacity:0.36;}.g{opacity:0.39;}</style></defs><rect class="a" width="331.4" height="350" rx="39.6"/><path class="b" d="M364.9,472.5c8.2,20.6,2.6,32.3,1.1,35.1-10.7,20.3-49.1,28.9-91.2,9.9-13.5-18.1-19-34.1-21.5-45.6-3.6-16.8-4-38.2-9.9-39-3.1-.4-5.6,5.3-9.3,4.4s-4.6-5.7-5.5-9.4c-4.5-17.1-5.4-28.8-8.3-41.7-.7-3.4-.4-1.6-3.6-14.4s-4.9-19.8-5.2-21.9c-1.6-10.5,0-19.1,3.4-36.3a241.1,241.1,0,0,1,6-24.7,55.4,55.4,0,0,1,17-17.1c6.1-3.7,14.4-7.2,40.2-7.7,27.4-.5,45.3-.8,67,8.3a114.6,114.6,0,0,1,26.4,15.4c15.2,22.5,16.5,36.3,16.5,41.8,0,1.3-.1,5.9-.4,11.5s-.9,11.2-2.1,21.8-1.7,14.8-1.9,17.2c-2.4,23.7-1.1,23.1-2.8,27.5-3.8,10.3-9.2,8.5-19.2,22.5-5.9,8.2-14.2,20-10.4,30.3C353.8,467.4,361,471,364.9,472.5Z" transform="translate(-133.7 -221)"/><rect class="c" x="159" y="243.6" width="21.4" height="10.09" rx="3.5"/><path class="c" d="M310.8,444.4H282.6a4.9,4.9,0,0,0-3.3,1.3A4.7,4.7,0,0,0,278,449v.8a4.7,4.7,0,0,0,1.3,3.3,6.1,6.1,0,0,0,3.3,1.4,9.3,9.3,0,0,0,4.8-1.2c5.8-2.1,13.9,2.8,17.8,3.3h.7a9.1,9.1,0,0,0,3.2-.5c.4-.1.9-.5,2.1-1.1a12.1,12.1,0,0,0,2.9-2,5.2,5.2,0,0,0,1.1-1.7v-.2a5.9,5.9,0,0,0,.2-1.4V449a4.7,4.7,0,0,0-.8-2.6A5,5,0,0,0,310.8,444.4Z" transform="translate(-133.7 -221)"/><path class="d" d="M306.1,427.6c-3.6,2.5-4.6.7-6-2.4-2.2-.8-6.2,1.2-9.9-1.3-14.2-12.1-6,8.6-9.5,13.9,3.7,7.1,12.7-1.8,17.6-2.2C303.5,438.6,324.6,435.1,306.1,427.6Z" transform="translate(-133.7 -221)"/><path class="e" d="M328.6,431.7" transform="translate(-133.7 -221)"/><path class="c" d="M305.2,413.6h-2.4a10.4,10.4,0,0,1-5.4-3.2,8,8,0,0,1-1.1-4.7c.4-3.5,3.2-4.7,3.7-8.2a8.7,8.7,0,0,0-1.2-5.3,3.8,3.8,0,0,1,1.2-2.8,4,4,0,0,1,2.8-1.2h2.4a4,4,0,0,1,4,4c-2.4,6.1-1.8,9.4-.6,11.2s2.8,2.9,2.4,4.5-1.1,1.4-1.8,1.8a8.8,8.8,0,0,1-1.7,2.3A5.6,5.6,0,0,1,305.2,413.6Z" transform="translate(-133.7 -221)"/><path class="f" d="M340.6,422.4c-7.7-.6-15.8-8.8-13.5-16.3,4.9,3.2,13.7-3.1,19.4-.9C353.7,412.5,350.7,422.7,340.6,422.4Z" transform="translate(-133.7 -221)"/><path class="g" d="M327.8,390.2c.7,1.8,1.6,2.2,1.4,2.7s-6.8.9-7.3-1.1,2.3-3.3,2.6-3.5,1.7-1.2,2.5-.8S327.3,388.7,327.8,390.2Z" transform="translate(-133.7 -221)"/><path class="g" d="M340.7,392.8l2.7-2.1a1.8,1.8,0,0,0,.1-1.6,2.5,2.5,0,0,0-1.9-1.5l-1.7.3a8.1,8.1,0,0,1-.9,2.8c-.8,1.6-1.8,2.4-1.5,2.8S338.3,393.8,340.7,392.8Z" transform="translate(-133.7 -221)"/><path class="g" d="M331.5,395.5l-6.6-.3c-3.3-.8-5-1.4-5-1.6s1.4-.2,3.9.1l4.9.5c2.7.5,4,.8,4,1.1S332.3,395.5,331.5,395.5Z" transform="translate(-133.7 -221)"/><path class="g" d="M331.1,383.1l-1.3-.4a3.1,3.1,0,0,1,1.3-1.2,4,4,0,0,1,1.5-.3h1.2c.1,0,1.4.2,1.4.6s-.1.3-.2.3A5.3,5.3,0,0,1,331.1,383.1Z" transform="translate(-133.7 -221)"/><path class="g" d="M282,390.5c-.6,1.8-1.5,2.1-1.3,2.6s6.8,1,7.3-1.1-2.3-3.3-2.6-3.4-1.8-1.2-2.5-.8S282.6,388.9,282,390.5Z" transform="translate(-133.7 -221)"/><path class="g" d="M269.1,393.1l-2.7-2.1a3.1,3.1,0,0,1,0-1.7,2.4,2.4,0,0,1,1.9-1.4l1.6.2a11,11,0,0,0,.9,2.8c.9,1.7,1.8,2.5,1.6,2.8S271.6,394,269.1,393.1Z" transform="translate(-133.7 -221)"/><path class="g" d="M278.3,395.8l6.6-.3c3.4-.9,5.1-1.4,5-1.6s-1.3-.2-3.9,0l-4.8.6c-2.7.4-4,.8-4,1S277.6,395.7,278.3,395.8Z" transform="translate(-133.7 -221)"/><path class="g" d="M278.8,383.4l1.3-.4a3.4,3.4,0,0,0-1.4-1.2,3.7,3.7,0,0,0-1.4-.4h-1.2c-.1,0-1.4.2-1.5.6s.2.3.3.4A5.9,5.9,0,0,0,278.8,383.4Z" transform="translate(-133.7 -221)"/><path class="g" d="M302.2,370c-11.8-1-35.7,1-46.1.8-2.2-10.3,21-17.1,25.6-13.7-35-17.9-11.7-44.9,20.5-38.9,74,29.2-35.8,23.4,20.8,43.1C336.2,367.9,318.3,367.1,302.2,370Z" transform="translate(-133.7 -221)"/><path class="f" d="M315.5,417.4l7.9.6-1.7-3.7a4.9,4.9,0,0,0-2.6-1.7c-3.2-.8-6.8,2.1-6.5,3.5S313.3,417.1,315.5,417.4Z" transform="translate(-133.7 -221)"/><path class="c" d="M267.4,425.4c-22.5,3.9-28.5-48.6,1.8-25.3,5,5.8,21-6.3,20.2-3.6-3.7,4.5.7,7.3,3.2,10.4-.1,3.5-6.7,3.6-9.8,7.2C281.3,420.2,271.4,427.5,267.4,425.4Z" transform="translate(-133.7 -221)"/></svg>