<svg xmlns="http://www.w3.org/2000/svg" viewBox="0 0 1336.00007 634.67992">
    <defs>
        <style>.a{fill:#19518c;}.a,.b,.c,.d,.e{fill-rule:evenodd;}.b{fill:#f44236;}.c{fill:#c9d946;}.d{fill:#d93b31;}.e{fill:#1a78d9;}</style>
    </defs>
    <path class="a" d="M613,0H3.63645V634.67933c-8.91829-41.79225-2.31546-80.18889,29.678-110.21377,35.04977-32.89309,71.77275-28.7105,117.26443-66.03326,48.61246-39.88312,25.82681-60.36942,68.76618-105.93824,52.61-55.83168,99.30189-38.33037,153.45716-88.8361,70.9602-66.1782,19.16054-122.68107,93.37723-158.19478,37.842-18.10792,68.61369-11.69857,104.23505-37.05463C600.75607,46.8108,609.98373,19.70029,613,0Z" transform="translate(0.00001 0.00021)" />
    <path class="b" d="M539,0H3.19747V634.67933c-7.84169-41.79224-2.03594-80.18889,26.09537-110.21377,30.81864-32.89309,63.10851-28.7105,103.10853-66.03325,42.74407-39.88313,22.70906-60.36943,60.46488-105.93825,46.259-55.83168,87.31438-38.33036,134.93215-88.8361,62.394-66.1782,16.84752-122.68107,82.10494-158.19477,33.27382-18.10793,60.33079-11.69857,91.652-37.05463C528.23413,46.81081,536.34785,19.7003,539,0Z" transform="translate(0.00001 0.00021)" />
    <path class="c" d="M426,0H2.52713V634.67933C-3.67057,592.88708.918,554.49044,23.15167,524.46556c24.35759-32.89309,49.878-28.7105,81.49208-66.03325,33.78289-39.88313,17.94817-60.36943,47.78857-105.93825,36.56095-55.83168,69.00915-38.33036,106.644-88.8361,49.3133-66.1782,13.31549-122.68107,64.89185-158.19477,26.29805-18.10793,47.6826-11.69857,72.43741-37.05464C417.49117,46.81081,423.90387,19.7003,426,0Z" transform="translate(0.00001 0.00021)" />
    <path class="d" d="M366,0H2.1712V634.67933C-3.15359,592.88708.78872,554.49044,19.89087,524.46556c20.92695-32.89309,42.8529-28.7105,70.01433-66.03325,29.02473-39.88313,15.42025-60.36943,41.05778-105.93825,31.41152-55.83168,59.28955-38.33036,91.62369-88.8361,42.36776-66.1782,11.44006-122.68107,55.75215-158.19477,22.5941-18.10793,40.96673-11.69857,62.235-37.05464C358.6896,46.81081,364.1991,19.7003,366,0Z" transform="translate(0.00001 0.00021)" />
    <path class="e" d="M344,0H2.04069V634.67933C-2.964,592.88708.74131,554.49044,18.69525,524.46556c19.669-32.89309,40.277-28.7105,65.80581-66.03325,27.28008-39.88313,14.49335-60.36943,38.58983-105.93825,29.5234-55.83168,55.7257-38.33036,86.11625-88.8361,39.82106-66.1782,10.75241-122.68107,52.40093-158.19477,21.236-18.10793,38.50425-11.69857,58.49406-37.05464C337.129,46.81081,342.30735,19.7003,344,0Z" transform="translate(0.00001 0.00021)" />
    <path class="a" d="M309.71566,0H1.83731V634.67933C-2.66862,592.88708.66743,554.49044,16.832,524.46556c17.70875-32.89309,36.26288-28.7105,59.24736-66.03325,24.56124-39.88313,13.04889-60.36943,34.74382-105.93825,26.581-55.83168,50.17186-38.33036,77.53357-88.8361,35.85235-66.1782,9.68079-122.68107,47.17845-158.19477,19.11953-18.10793,34.66678-11.69857,52.66432-37.05463C303.52946,46.81081,308.1917,19.7003,309.71566,0Z" transform="translate(0.00001 0.00021)" />
    <path class="b" d="M295.45619,0H1.75272V634.67933c-4.29847-41.79225-1.116-80.18889,14.30434-110.21377,16.89343-32.89309,34.59332-28.7105,56.51957-66.03325,23.43043-39.88313,12.44812-60.36943,33.1442-105.93825,25.35718-55.83168,47.86192-38.33036,73.96389-88.8361,34.20169-66.1782,9.23508-122.68107,45.00633-158.19477,18.23926-18.10793,33.0707-11.69857,50.23963-37.05463C289.55481,46.81081,294.00239,19.7003,295.45619,0Z" transform="translate(0.00001 0.00021)" />
    <path class="a" d="M724.0001-.00021l608.36945.00007-.00018,634.67951c8.90375-41.79226,2.3117-80.18891-29.62959-110.21381-34.99258-32.8931-71.65566-28.71052-117.07311-66.03329-48.53314-39.88314-25.78466-60.36944-68.654-105.93828-52.52417-55.8317-99.13988-38.33039-153.20679-88.83614C892.9615,197.47962,944.67668,140.97674,870.58107,105.463c-37.78029-18.10794-68.50175-11.69858-104.065-37.05466C736.22405,46.81061,727.01145,19.70009,724.0001-.00021Z" transform="translate(0.00001 0.00021)" />
    <path class="b" d="M877.0001-.00009,1333.2772,0l-.00014,634.67952c6.67782-41.79226,1.73378-80.18891-22.22219-110.21381-26.24444-32.89311-53.74174-28.71052-87.80483-66.03329-36.39986-39.88314-19.3385-60.36944-51.49048-105.93828-39.39312-55.8317-74.35491-38.33039-114.90509-88.83615-53.13332-66.17823-14.34693-122.6811-69.91864-158.19483-28.33522-18.10794-51.37631-11.69858-78.04874-37.05465C886.16806,46.81073,879.25862,19.70021,877.0001-.00009Z" transform="translate(0.00001 0.00021)" />
    <path class="c" d="M939.0001,0,1333.645,0l-.00012,634.67952c5.7758-41.79226,1.49958-80.18892-19.2205-110.21381-22.69944-32.89311-46.48251-28.71052-75.94449-66.03329-31.4831-39.88314-16.72633-60.36944-44.53533-105.93828-34.07205-55.83171-64.31134-38.33039-99.38415-88.83615-45.95627-66.17823-12.409-122.68111-60.47429-158.19483-24.50781-18.10794-44.4366-11.69858-67.50622-37.05466C946.92969,46.81079,940.95354,19.70027,939.0001,0Z" transform="translate(0.00001 0.00021)" />
    <path class="d" d="M997.76544,0l336.2282.00007-.00011,634.67953c4.92085-41.79226,1.27762-80.18892-16.37541-110.21382-19.33939-32.8931-39.602-28.71052-64.70292-66.03328-26.82287-39.88315-14.25044-60.36945-37.94306-105.93829-29.02859-55.8317-54.79175-38.33039-84.673-88.83615-39.15367-66.17823-10.57218-122.68111-51.52268-158.19483-20.88008-18.10794-37.85894-11.69858-57.51371-37.05465C1004.52126,46.81086,999.42972,19.70034,997.76544,0Z" transform="translate(0.00001 0.00021)" />
    <path class="e" d="M1012.02492.00006l322.05331.00007-.0001,634.67953c4.71339-41.79226,1.22375-80.18892-15.68505-110.21382-18.52407-32.8931-37.93245-28.71051-61.97514-66.03328-25.69205-39.88315-13.64966-60.36945-36.34344-105.93829-27.80478-55.8317-52.4818-38.33039-81.10327-88.83615-37.503-66.17823-10.12647-122.68111-49.35056-158.19483-19.9998-18.10794-36.26286-11.69858-55.089-37.05466C1018.49592,46.81088,1013.619,19.70036,1012.02492.00006Z" transform="translate(0.00001 0.00021)" />
    <path class="a" d="M1026.28439.00008l307.87844.00007-.00009,634.67953c4.50593-41.79226,1.16988-80.18892-14.99469-110.21381-17.70875-32.89311-36.26289-28.71052-59.24737-66.03329-24.56124-39.88314-13.04888-60.36944-34.74381-105.93828-26.581-55.83171-50.17187-38.33039-77.53359-88.83615-35.85234-66.17823-9.68076-122.68111-47.17844-158.19484-19.11952-18.10793-34.66678-11.69858-52.66432-37.05465C1032.47058,46.8109,1027.80835,19.70038,1026.28439.00008Z" transform="translate(0.00001 0.00021)" />
    <path class="b" d="M1040.54388.00009l293.70355.00007-.00009,634.67955c4.29848-41.79226,1.116-80.18892-14.30433-110.21382-16.89343-32.89311-34.59332-28.71052-56.51958-66.03329-23.43043-39.88314-12.44811-60.36944-33.14419-105.93828-25.35718-55.83171-47.86193-38.33039-73.9639-88.83615-34.20169-66.17824-9.23506-122.68112-45.00632-158.19484-18.23926-18.10794-33.07071-11.69858-50.23964-37.05466C1046.44525,46.81091,1041.99767,19.70039,1040.54388.00009Z" transform="translate(0.00001 0.00021)" />
</svg>