<svg xmlns="http://www.w3.org/2000/svg" viewBox="0 0 1336.12959 634.6799">
    <defs>
        <style>.a{fill:#19518c;}.a,.b,.c,.d,.e{fill-rule:evenodd;}.b{fill:#f44236;}.c{fill:#c9d946;}.d{fill:#d93b31;}.e{fill:#1a78d9;}</style>
    </defs>
    <path class="a" d="M613,0H3.63645c7.80816,211.55978-7.80815,423.11954,0,634.67932-8.23215-41.79169-.79577-80.1889,10.55776-110.21374,15.7497-32.89313,32.179-28.71033,70.7423-66.0333,22.33838-19.94183,34.574-35.034,47.09-50.837,13.01717-15.803,26.31472-32.317,62.35019-55.1012,90.36693-55.8317,130.25792-38.33041,217.3117-88.83609,109.23812-66.17821,75.25918-122.68123,121.42373-158.19479,22.404-18.108,40.92938-11.69854,56.67316-37.0546C603.07587,46.81082,609.68353,19.70031,613,0Z" transform="translate(-0.06221 0.00021)" />
    <path class="b" d="M539,0H3.19747c6.87052,211.55978-6.87052,423.11954,0,634.67932-7.26749-41.79169-.62589-80.1889,9.16661-110.21374,13.6242-32.89313,27.31115-28.71033,60.0502-66.0333,19.03876-19.94159,29.91446-35.03375,41.106-50.83694,11.66814-15.803,23.65209-32.31714,55.915-55.10129,81.80766-55.8317,115.643-38.33041,198.96138-88.83609,108.04431-66.17836,78.589-122.68114,122.9176-158.19479,21.52746-18.10791,42.67413-11.69853,54.81427-37.0546C555.95172,46.81082,549.60577,19.70031,539,0Z" transform="translate(-0.06221 0.00021)" />
    <path class="c" d="M426,0H2.52713c5.43611,211.55978-5.43611,423.11954,0,634.67932-5.779-41.79169-.40558-80.1889,7.10408-110.21374C20.1285,491.57245,30.03,495.75525,54.49452,458.43228c14.31966-19.94159,23.0566-35.03375,32.12682-50.83694,9.49038-15.803,19.31407-32.31714,45.51-55.10129,67.49271-55.8317,92.73853-38.33041,166.76351-88.83609,99.86868-66.17821,77.09579-122.68123,116.64184-158.19479,19.22135-18.10788,41.7966-11.69859,49.336-37.0546C470.38815,46.81082,450.70114,19.70031,426,0Z" transform="translate(-0.06221 0.00021)" />
    <path class="d" d="M366,0H2.1712c4.67319,211.55978-4.67319,423.11954,0,634.67932-4.98109-41.79169-.30782-80.1889,6.03929-110.21374,8.89534-32.89313,16.98436-28.71033,37.35958-66.0333,11.97083-19.94159,19.54172-35.03375,27.43708-50.83694,8.27615-15.803,16.8768-32.31714,39.70107-55.10129,59.28008-55.8317,80.28789-38.33041,147.61582-88.83609,45.17092-33.08913,64.80142-63.75939,75.86047-90.59667,11.38428-26.83718,14.1969-49.84135,33.24567-67.59812,17.52069-18.10788,39.59069-11.69859,45.13058-37.0546C418.27383,46.81082,394.66666,19.70031,366,0Z" transform="translate(-0.06221 0.00021)" />
    <path class="e" d="M344,0H2.04069c4.39323,211.55978-4.39323,423.11954,0,634.67932-4.6872-41.79169-.27531-80.1889,5.65414-110.21374,8.31809-32.89313,15.77688-28.71033,34.70555-66.0333,11.13687-19.94159,18.27488-35.03375,25.731-50.83694,7.82087-15.803,15.9599-32.31714,37.52179-55.10129,56.16271-55.8317,75.67235-38.33041,140.23842-88.83609,43.46118-33.08913,62.67566-63.75939,73.442-90.59667,11.11386-26.83718,13.77963-49.84135,32.17059-67.59812,16.81464-18.10788,38.47986-11.69859,43.36319-37.0546C398.00378,46.81082,373.50909,19.70031,344,0Z" transform="translate(-0.06221 0.00021)" />
    <path class="a" d="M309.71567,0H1.83731c3.95671,211.55978-3.95671,423.11954,0,634.67932-4.22781-41.79169-.22822-80.1889,5.05957-110.21374,7.42938-32.89313,13.94273-28.71033,30.6737-66.0333,9.86641-19.94159,16.32419-35.03375,23.08686-50.83694,7.10062-15.803,14.50613-32.31714,34.07285-55.10129,51.19067-55.8317,68.4262-38.33041,128.36032-88.83609,40.54-33.08919,58.9115-63.75945,69.12692-90.59665,10.587-26.8372,13.01807-49.84134,30.25986-67.59814,15.62539-18.10791,36.42471-11.69853,40.36789-37.0546C365.1731,46.81082,339.8833,19.70031,309.71567,0Z" transform="translate(-0.06221 0.00021)" />
    <path class="b" d="M295.45618,0H1.75272c3.77506,211.55978-3.77506,423.11954,0,634.67932-4.03623-41.79169-.20992-80.1889,4.81431-110.21374,7.06363-32.89313,13.197-28.71033,29.03413-66.0333,9.34845-19.94159,15.5213-35.03375,21.9923-50.83694,6.7972-15.803,13.89256-32.31714,32.61942-55.10129,49.08194-55.8317,65.39308-38.33041,123.28321-88.83609,39.23293-33.08919,57.18409-63.75945,67.13636-90.59665,10.33007-26.8372,12.66131-49.84134,29.38067-67.59814,15.09906-18.10791,35.454-11.69853,39.03565-37.0546C351.07281,46.81082,325.663,19.70031,295.45618,0Z" transform="translate(-0.06221 0.00021)" />
    <path class="a" d="M724.00012-.00021l608.36951.00009c7.795,211.55984-7.79578,423.11966-.00025,634.67944,9.5879-41.79169,3.83057-80.1889-48.71875-110.21374-54.261-32.89307-111.18554-28.71033-163.5194-66.03333-26.23084-19.94144-26.9076-35.03384-25.88843-50.83691,1.51941-15.8031,4.73523-32.3169-2.15759-55.10138-14.82862-55.83158-68.23438-38.3306-89.45649-88.83612-32.63-66.178,36.87848-122.68123-65.22424-158.19484-53.19379-18.108-96.14081-11.69859-151.54932-37.05464C738.54059,46.8106,726.71173,19.7,724.00012-.00021Z" transform="translate(-0.06221 0.00021)" />
    <path class="b" d="M877.00031-.00012,1333.27734,0c5.855,211.55983-5.85522,423.11966-.00024,634.67953,7.14075-41.7918,3.00183-80.18914-36.74463-110.2138-41.09021-32.89331-85.12341-28.7107-126.43518-66.0333-20.73657-19.94149-21.0376-35.03384-19.94458-50.837,1.53186-15.8031,4.45813-32.31708.30664-55.10132-6.978-55.832-49.21777-38.33032-53.19006-88.83615-3.32019-66.17821,49.55188-122.68117-20.433-158.19483-36.6698-18.10788-60.31347-11.69848-104.87475-37.05461C933.18951,46.81073,902.87946,19.70019,877.00031-.00012Z" transform="translate(-0.06221 0.00021)" />
    <path class="c" d="M939.00031-.00012,1333.645,0c5.06714,211.55981-5.06763,423.11979,0,634.67948,6.158-41.79217,2.64111-80.18914-31.85364-110.21374-35.67981-32.89331-74.23157-28.71076-110.687-66.03333-18.30762-19.94171-18.49609-35.03393-17.4353-50.837,1.46191-15.80307,4.17334-32.31687.93969-55.10126-4.58251-55.83136-41.88305-38.33026-41.13281-88.83612,4.54163-66.17827,50.53284-122.68126-7.68921-158.19484-30.58728-18.10789-48.03381-11.69855-87.62878-37.05464C1003.47205,46.81079,969.74182,19.70025,939.00031-.00012Z" transform="translate(-0.06221 0.00021)" />
    <path class="d" d="M997.76575,0l336.2279.00009c4.31983,211.55978-4.31958,423.11964,0,634.67958,5.23181-41.79242,2.28748-80.189-27.19665-110.21393-30.5105-32.893-63.7356-28.71045-95.3772-66.03323-15.89868-19.94156-16.00073-35.034-15.004-50.837,1.35681-15.8031,3.81262-32.31671,1.3457-55.10123-2.73156-55.83166-35.13073-38.33056-31.10961-88.83615,3.81359-33.08917,17.598-63.75946,22.53552-90.59669,5.28894-26.83719,1.73083-49.84134-21.02429-67.59819-25.14551-18.10788-37.58838-11.69857-72.17041-37.05465C1065.51038,46.81078,1030.70618,19.70028,997.76575,0Z" transform="translate(-0.06221 0.00021)" />
    <path class="e" d="M1012.02527,0l322.05286.00009c4.13806,211.55986-4.13807,423.11973,0,634.67958,5.00793-41.79242,2.19958-80.189-26.0636-110.21393-29.25025-32.89285-61.16114-28.71042-91.60572-66.03317-15.29858-19.94175-15.38281-35.03409-14.40661-50.83716,1.32544-15.80307,3.71142-32.31687,1.41577-55.10117-2.34339-55.83172-33.52088-38.33038-28.88342-88.83615,4.2666-33.08919,17.93725-63.75944,22.89379-90.59665,5.3191-26.83719,1.92432-49.84137-19.57238-67.59823-23.8761-18.10788-35.22669-11.69857-68.55005-37.05465C1079.89307,46.81085,1045.14575,19.70031,1012.02527,0Z" transform="translate(-0.06221 0.00021)" />
    <path class="a" d="M1026.28479,0l307.87805.00009c3.95642,211.55986-3.95666,423.11973-.00024,634.67958,4.78515-41.79236,2.11084-80.18872-24.92908-110.21375-27.98743-32.893-58.57922-28.71054-87.81274-66.03335-14.692-19.94175-14.75965-35.03391-13.80494-50.837,1.29175-15.803,3.60572-32.31683,1.47388-55.10129-1.98071-55.83175-31.92163-38.33041-26.73779-88.83615,4.66748-33.089,18.18213-63.75934,23.13818-90.5966,5.32654-26.83727,2.0951-49.84149-18.17175-67.59819-22.62073-18.108-32.93567-11.69867-64.9801-37.05464C1094.01367,46.81093,1059.44849,19.70032,1026.28479,0Z" transform="translate(-0.06221 0.00021)" />
    <path class="b" d="M1040.54419.00011l293.70337,0c3.77478,211.55985-3.77527,423.11963-.00025,634.67954,4.55921-41.79236,2.02234-80.18872-23.79394-110.21375-26.72217-32.89325-55.98657-28.71075-83.99732-66.03332-14.0802-19.94132-14.13147-35.03385-13.20129-50.837,1.2561-15.80313,3.49365-32.317,1.52173-55.10129-1.63989-55.83163-30.33447-38.33047-24.673-88.83618,5.01257-33.0892,18.33166-63.7594,23.267-90.59665,5.3125-26.83717,2.241-49.84142-16.82019-67.59817-21.38537-18.10793-30.71081-11.69855-61.46118-37.05464C1107.87036,46.81085,1073.61011,19.70034,1040.54419.00011Z" transform="translate(-0.06221 0.00021)" />
</svg>