<svg xmlns="http://www.w3.org/2000/svg" viewBox="0 0 1336.00007 1161.00021"><defs><style>.a{fill:#19518c;}.a,.b,.c,.d,.e{fill-rule:evenodd;}.b{fill:#f44236;}.c{fill:#c9d946;}.d{fill:#d93b31;}.e{fill:#1a78d9;}</style></defs><path class="a" d="M613,.00017H3.63645V1160.99932c-8.91829-76.44927-2.31546-146.687,29.678-201.61063,35.04977-60.17031,71.77275-52.51923,117.26443-120.79258,48.61246-72.957,25.82681-110.43191,68.76618-193.78953C271.9551,542.67542,318.647,574.69,372.80226,482.30146c70.9602-121.05772,19.16054-224.41666,93.37723-289.38077,37.842-33.12427,68.61369-21.39983,104.23505-67.78288C600.75607,85.62972,609.98373,36.03731,613,.00017Z" transform="translate(0.00001 0.00021)"/><path class="b" d="M539,.00018H3.19747V1160.99932c-7.84169-76.44927-2.03594-146.687,26.09537-201.61063,30.81864-60.17031,63.10851-52.51923,103.10853-120.79258,42.74407-72.957,22.70906-110.4319,60.46488-193.78952,46.259-102.13116,87.31438-70.11655,134.93215-162.50512,62.394-121.05772,16.84752-224.41666,82.10494-289.38077,33.27382-33.12427,60.33079-21.39983,91.652-67.78288C528.23413,85.62973,536.34785,36.03732,539,.00018Z" transform="translate(0.00001 0.00021)"/><path class="c" d="M426,.00018H2.52713V1160.99932c-6.1977-76.44927-1.60911-146.687,20.62454-201.61063,24.35759-60.17031,49.878-52.51923,81.49208-120.79258,33.78289-72.957,17.94817-110.4319,47.78857-193.78952,36.56095-102.13116,69.00915-70.11655,106.644-162.50512,49.3133-121.05772,13.31549-224.41666,64.89185-289.38077,26.29805-33.12427,47.6826-21.39983,72.43741-67.78289C417.49117,85.62973,423.90387,36.03731,426,.00018Z" transform="translate(0.00001 0.00021)"/><path class="d" d="M366,.00018H2.1712V1160.99932c-5.32479-76.44927-1.38248-146.687,17.71967-201.61063,20.92695-60.17031,42.8529-52.51923,70.01433-120.79258,29.02473-72.957,15.42025-110.4319,41.05778-193.78952C162.3745,542.67543,190.25253,574.69,222.58667,482.30147c42.36776-121.05772,11.44006-224.41666,55.75215-289.38077,22.5941-33.12427,40.96673-21.39983,62.235-67.78289C358.6896,85.62973,364.1991,36.03731,366,.00018Z" transform="translate(0.00001 0.00021)"/><path class="e" d="M344,.00018H2.04069V1160.99932c-5.00472-76.44927-1.29938-146.687,16.65456-201.61063,19.669-60.17031,40.277-52.51923,65.80581-120.79258,27.28008-72.957,14.49335-110.4319,38.58983-193.78952,29.5234-102.13116,55.7257-70.11655,86.11625-162.50512,39.82106-121.05772,10.75241-224.41666,52.40093-289.38077,21.236-33.12427,38.50425-21.39983,58.49406-67.78289C337.129,85.62973,342.30735,36.03731,344,.00018Z" transform="translate(0.00001 0.00021)"/><path class="a" d="M309.71566.00018H1.83731V1160.99932c-4.50593-76.44927-1.16988-146.687,14.9947-201.61063,17.70875-60.17031,36.26288-52.51923,59.24736-120.79258,24.56124-72.957,13.04889-110.4319,34.74382-193.78952,26.581-102.13116,50.17186-70.11655,77.53357-162.50512,35.85235-121.05772,9.68079-224.41666,47.17845-289.38077,19.11953-33.12427,34.66678-21.39983,52.66432-67.78289C303.52946,85.62973,308.1917,36.03731,309.71566.00018Z" transform="translate(0.00001 0.00021)"/><path class="b" d="M295.45619.00018H1.75272V1160.99932c-4.29847-76.44927-1.116-146.687,14.30434-201.61063,16.89343-60.17031,34.59332-52.51923,56.51957-120.79258,23.43043-72.957,12.44812-110.4319,33.1442-193.78952C131.078,542.67543,153.58275,574.69,179.68472,482.30147c34.20169-121.05772,9.23508-224.41666,45.00633-289.38077,18.23926-33.12427,33.0707-21.39983,50.23963-67.78289C289.55481,85.62973,294.00239,36.03731,295.45619.00018Z" transform="translate(0.00001 0.00021)"/><path class="a" d="M724.0001-.00021l608.36945.00013-.00018,1160.99946c8.90375-76.44928,2.3117-146.68708-29.62959-201.61069-34.99258-60.17033-71.65566-52.51926-117.07311-120.79263-48.53314-72.957-25.78466-110.43195-68.654-193.7896-52.52417-102.1312-99.13988-70.11659-153.20679-162.5052-70.84442-121.05777-19.12924-224.41672-93.22485-289.38087-37.78029-33.12429-68.50175-21.39985-104.065-67.78293C736.22405,85.62936,727.01145,36.03693,724.0001-.00021Z" transform="translate(0.00001 0.00021)"/><path class="b" d="M877.0001,0l456.2771.00013-.00014,1160.99948c6.67782-76.44928,1.73378-146.68709-22.22219-201.61069-26.24444-60.17034-53.74174-52.51926-87.80483-120.79264-36.39986-72.957-19.3385-110.43194-51.49048-193.7896-39.39312-102.1312-74.35491-70.11659-114.90509-162.5052-53.13332-121.05777-14.34693-224.41673-69.91864-289.38087-28.33522-33.12429-51.37631-21.39985-78.04874-67.78293C886.16806,85.62959,879.25862,36.03715,877.0001,0Z" transform="translate(0.00001 0.00021)"/><path class="c" d="M939.0001.00012,1333.645.00024l-.00012,1160.99949c5.7758-76.44928,1.49958-146.68709-19.2205-201.61069-22.69944-60.17034-46.48251-52.51926-75.94449-120.79264-31.4831-72.957-16.72633-110.43194-44.53533-193.7896-34.07205-102.1312-64.31134-70.11659-99.38415-162.5052-45.95627-121.05777-12.409-224.41673-60.47429-289.38088-24.50781-33.12429-44.4366-21.39985-67.50622-67.78293C946.92969,85.62969,940.95354,36.03726,939.0001.00012Z" transform="translate(0.00001 0.00021)"/><path class="d" d="M997.76544.00024l336.2282.00013-.00011,1160.9995c4.92085-76.44928,1.27762-146.68709-16.37541-201.6107-19.33939-60.17033-39.602-52.51926-64.70292-120.79263-26.82287-72.957-14.25044-110.432-37.94306-193.78961-29.02859-102.1312-54.79175-70.11659-84.673-162.5052C1091.14551,361.244,1119.727,257.885,1078.7765,192.92085c-20.88008-33.12429-37.85894-21.39985-57.51371-67.78293C1004.52126,85.62982,999.42972,36.03739,997.76544.00024Z" transform="translate(0.00001 0.00021)"/><path class="e" d="M1012.02492.00028l322.05331.00013-.0001,1160.9995c4.71339-76.44928,1.22375-146.68709-15.68505-201.6107-18.52407-60.17033-37.93245-52.51926-61.97514-120.79264-25.69205-72.957-13.64966-110.43194-36.34344-193.7896-27.80478-102.1312-52.4818-70.11659-81.10327-162.5052-37.503-121.05778-10.12647-224.41673-49.35056-289.38088-19.9998-33.12429-36.26286-21.39985-55.089-67.78293C1018.49592,85.62986,1013.619,36.03742,1012.02492.00028Z" transform="translate(0.00001 0.00021)"/><path class="a" d="M1026.28439.00032l307.87844.00013-.00009,1160.9995c4.50593-76.44928,1.16988-146.68709-14.99469-201.6107-17.70875-60.17033-36.26289-52.51926-59.24737-120.79263-24.56124-72.957-13.04888-110.432-34.74381-193.7896-26.581-102.13121-50.17187-70.1166-77.53359-162.50521-35.85234-121.05777-9.68076-224.41673-47.17844-289.38088-19.11952-33.12429-34.66678-21.39985-52.66432-67.78293C1032.47058,85.6299,1027.80835,36.03747,1026.28439.00032Z" transform="translate(0.00001 0.00021)"/><path class="b" d="M1040.54388.00035l293.70355.00012L1334.24734,1161c4.29848-76.44929,1.116-146.6871-14.30433-201.6107-16.89343-60.17034-34.59332-52.51926-56.51958-120.79264-23.43043-72.957-12.44811-110.432-33.14419-193.78961-25.35718-102.1312-47.86193-70.11659-73.9639-162.5052-34.20169-121.05778-9.23506-224.41674-45.00632-289.38089-18.23926-33.12429-33.07071-21.39985-50.23964-67.78293C1046.44525,85.62992,1041.99767,36.03749,1040.54388.00035Z" transform="translate(0.00001 0.00021)"/></svg>