<svg xmlns="http://www.w3.org/2000/svg" xmlns:xlink="http://www.w3.org/1999/xlink" viewBox="0 0 34.5 37.28003"><defs><style>.a{fill:url(#a);}.b{fill:#ff1b03;}</style><linearGradient id="a" x1="298.09524" y1="414.5" x2="308.09524" y2="414.5" gradientUnits="userSpaceOnUse"><stop offset="0" stop-color="aqua"/><stop offset="1" stop-color="#22b573" stop-opacity="0.5"/></linearGradient></defs><path class="a" d="M303.03,408.62a10.50617,10.50617,0,0,1,3.77-.49c.41,0,.81.02,1.2.05V402h-2.12a7.88185,7.88185,0,0,0-7.87,7.46c-.01.14-.01.28-.01.42V427h2.5a7.082,7.082,0,0,0,2.06-.3,3.57869,3.57869,0,0,0,.35-.11A7.47066,7.47066,0,0,0,308,419.5V413a8.37952,8.37952,0,0,0-1.44-.13,9.35837,9.35837,0,0,0-3.43.54c-.15.05-.29,0-.29-.24l-.05-4.07a.80725.80725,0,0,1,.01-.16A.4688.4688,0,0,1,303.03,408.62Z" transform="translate(-284 -395.85999)"/><path class="b" d="M318.5,420.7c0,7.3-4.06,12.44-11.01,12.44a12.76368,12.76368,0,0,1-4.46-.64.37337.37337,0,0,1-.24-.39v-4.06a.24432.24432,0,0,1,.11-.24.22065.22065,0,0,1,.18-.01c.1.04.2.07.31.11a11.578,11.578,0,0,0,3.02.33c3.28,0,6.66-2,6.66-7.78,0-4.25-2.01-6.85-5.07-7.46a8.37952,8.37952,0,0,0-1.44-.13,9.35837,9.35837,0,0,0-3.43.54c-.15.05-.29,0-.29-.24l-.05-4.07a.80725.80725,0,0,1,.01-.16.4688.4688,0,0,1,.23-.32,10.50617,10.50617,0,0,1,3.77-.49c.41,0,.81.02,1.2.05C314.41,408.76,318.5,413.97,318.5,420.7Z" transform="translate(-284 -395.85999)"/><path class="b" d="M293.98,395.86c-6.36,0-9.98,5.78-9.98,12.78,0,6.46,2.94,12.23,10.77,12.23a13.31236,13.31236,0,0,0,5.97-1.12.64151.64151,0,0,0,.29-.59v-3.72c0-.24-.14-.29-.29-.2a11.73312,11.73312,0,0,1-4.9.94c-4.5,0-6.41-2.7-6.46-6.71h7.79a40.96584,40.96584,0,0,0,4.94-.2.46109.46109,0,0,0,.39-.34,21.47774,21.47774,0,0,0,.2-3.18C302.7,401.34,300.49,395.86,293.98,395.86Zm3.63,9.5a15.80838,15.80838,0,0,1-2.21.05h-5.97c.3-2.65,1.52-5.09,4.36-5.09,3.08,0,3.87,2.88,3.87,4.5A2.16719,2.16719,0,0,1,297.61,405.36Z" transform="translate(-284 -395.85999)"/></svg>