<svg xmlns="http://www.w3.org/2000/svg" xmlns:xlink="http://www.w3.org/1999/xlink" viewBox="0 0 100 108.05806"><defs><style>.a{fill:url(#a);}.b{fill:#ff1b03;}</style><linearGradient id="a" x1="292.10576" y1="414.5" x2="321.09127" y2="414.5" gradientUnits="userSpaceOnUse"><stop offset="0" stop-color="aqua"/><stop offset="1" stop-color="#22b573" stop-opacity="0.5"/></linearGradient></defs><path class="a" d="M306.40951,397.45651c2.14489-.86953,5.53615-1.42026,10.92741-1.42026,1.18851,0,2.34782.05785,3.4783.14489v-17.913H314.6703a22.84589,22.84589,0,0,0-22.81158,21.62307c-.029.40584-.029.81168-.029,1.21752v49.62317h7.24638a20.52718,20.52718,0,0,0,5.971-.86953,10.36639,10.36639,0,0,0,1.01443-.319,21.65409,21.65409,0,0,0,14.7537-20.55063V410.15217a24.28987,24.28987,0,0,0-4.17392-.37682,27.12508,27.12508,0,0,0-9.942,1.56515c-.43485.14489-.84052,0-.84052-.69562l-.14507-11.79712a2.33917,2.33917,0,0,1,.029-.46369A1.35894,1.35894,0,0,1,306.40951,397.45651Z" transform="translate(-251.25 -360.47097)"/><path class="b" d="M351.25,432.47105c0,21.15938-11.76811,36.058-31.91307,36.058-4.69564,0-9.21737-.43486-12.92742-1.85512a1.08222,1.08222,0,0,1-.69581-1.13047V453.77533a.70818.70818,0,0,1,.319-.69563.63954.63954,0,0,1,.52172-.029c.28978.11588.57974.20292.89854.3188a33.5593,33.5593,0,0,0,8.7535.95657c9.50734,0,19.30445-5.7971,19.30445-22.55081,0-12.31884-5.82611-19.855-14.69567-21.62308a24.28987,24.28987,0,0,0-4.17392-.37682,27.12508,27.12508,0,0,0-9.942,1.56515c-.43485.14489-.84052,0-.84052-.69562l-.14507-11.79712a2.33917,2.33917,0,0,1,.029-.46369,1.35894,1.35894,0,0,1,.66679-.92756c2.14489-.86953,5.53615-1.42026,10.92741-1.42026,1.18851,0,2.34782.05785,3.4783.14489C339.39485,397.86235,351.25,412.96368,351.25,432.47105Z" transform="translate(-251.25 -360.47097)"/><path class="b" d="M280.17748,360.471c-18.43474,0-28.92748,16.75371-28.92748,37.04357,0,18.72452,8.52175,35.44921,31.21745,35.44921,7.10131,0,12.75351-.98558,17.30426-3.24636a1.85943,1.85943,0,0,0,.84069-1.71022V417.22464c0-.69562-.40584-.84069-.84069-.57974a34.00893,34.00893,0,0,1-14.20279,2.72464c-13.04348,0-18.57981-7.82612-18.7247-19.44934h22.57964a118.74334,118.74334,0,0,0,14.31885-.57974,1.33646,1.33646,0,0,0,1.13048-.98541,62.25694,62.25694,0,0,0,.57974-9.21737C305.45293,376.355,299.04707,360.471,280.17748,360.471Zm10.52175,27.53623c-.43467.1449-2,.1449-6.40568.1449H266.98911c.86953-7.68106,4.40585-14.75353,12.63764-14.75353,8.92758,0,11.21738,8.34784,11.21738,13.04348A6.28019,6.28019,0,0,1,290.69923,388.0072Z" transform="translate(-251.25 -360.47097)"/></svg>