<?xml version="1.0" encoding="utf-8"?>
<!-- Generator: Adobe Illustrator 24.1.3, SVG Export Plug-In . SVG Version: 6.00 Build 0)  -->
<svg version="1.1" id="Layer_1" xmlns="http://www.w3.org/2000/svg" xmlns:xlink="http://www.w3.org/1999/xlink" x="0px" y="0px"
	 viewBox="0 0 189.3 140" style="enable-background:new 0 0 189.3 140;" xml:space="preserve">
<style type="text/css">
	.st0{fill:#F72D2D;}
	.st1{fill:#6B1515;}
	.st2{display:none;}
	.st3{display:inline;fill:#421515;}
	.st4{display:inline;fill:#501515;}
	.st5{display:inline;fill:#5D1515;}
	.st6{display:inline;fill:#6B1515;}
	.st7{fill:#FF5252;}
	.st8{fill:#CE2E2E;}
	.st9{fill:#EF3333;}
	.st10{fill:#F47A7A;}
	.st11{fill:#C66363;}
	.st12{fill:#ED7474;}
	.st13{fill:#C12929;}
	.st14{fill:#991919;}
	.st15{fill:#AD2323;}
	.st16{fill:#BF2828;}
	.st17{fill:#9B2121;}
	.st18{fill:#501515;}
	.st19{fill:#421515;}
</style>
<g id="Layer_1_1_">
	<g>
		<path class="st0" d="M88.5,41.5L60.7,69.3C60.4,69.6,60,70,59.3,70H0.7l85.9-31.9C88.1,37.4,90,40,88.5,41.5z"/>
		<path class="st0" d="M189.3,70h-58.5c-0.4,0-1.1-0.4-1.5-0.7l-27.8-27.8c-1.5-1.5,0-4.1,2.2-3.3L189.3,70z"/>
		<path class="st1" d="M60.4,70.7l27.8,27.8c1.5,1.5,0,4.1-2.2,3.3L0,70h58.5C59.6,70,60,70.4,60.4,70.7z"/>
		<path class="st1" d="M189.3,70l-85.9,31.9c-1.9,0.7-3.7-1.9-2.2-3.3l27.8-27.8c0.4-0.4,0.7-0.7,1.5-0.7H189.3z"/>
	</g>
	<g class="st2">
		<polygon class="st3" points="164.8,70 94.8,70 94.8,0 		"/>
		<polygon class="st4" points="94.8,70 94.8,140 24.8,70 		"/>
		<polygon class="st5" points="164.8,70 94.8,140 94.8,70 		"/>
		<polygon class="st6" points="94.8,0 94.8,70 24.8,70 		"/>
	</g>
	<g class="st2">
		<polygon class="st3" points="118.1,70 94.8,70 94.8,46.7 		"/>
		<polygon class="st4" points="94.8,70 94.8,93.3 71.5,70 		"/>
		<polygon class="st5" points="118.1,70 94.8,93.3 94.8,70 		"/>
		<polygon class="st6" points="94.8,46.7 94.8,70 71.5,70 		"/>
	</g>
	<g>
		<g>
			<g>
				<polygon class="st7" points="94.8,51 94.8,70 88.6,70 				"/>
				<polygon class="st8" points="94.8,51 82.2,70 75.8,70 				"/>
				<polygon class="st9" points="94.8,51 88.6,70 82.2,70 				"/>
			</g>
			<g>
				<polygon class="st10" points="94.8,89 94.8,70 101,70 				"/>
				<polygon class="st11" points="94.8,89 107.4,70 113.8,70 				"/>
				<polygon class="st12" points="94.8,89 101,70 107.4,70 				"/>
			</g>
			<g>
				<polygon class="st13" points="94.8,89 94.8,70 88.6,70 				"/>
				<polygon class="st14" points="94.8,89 82.2,70 75.8,70 				"/>
				<polygon class="st15" points="94.8,89 88.6,70 82.2,70 				"/>
			</g>
			<g>
				<polygon class="st16" points="94.8,51 94.8,70 101,70 				"/>
				<polygon class="st17" points="94.8,51 107.4,70 113.8,70 				"/>
				<polygon class="st15" points="94.8,51 101,70 107.4,70 				"/>
			</g>
		</g>
		<g>
			
				<rect x="87" y="62.2" transform="matrix(0.3827 -0.9239 0.9239 0.3827 -6.1164 130.8289)" class="st1" width="15.6" height="15.6"/>
			
				<rect x="87" y="62.2" transform="matrix(0.9239 -0.3827 0.3827 0.9239 -19.583 41.6182)" class="st18" width="15.6" height="15.6"/>
			<path class="st19" d="M94.8,77L94.8,77c-3.8,0-7-3.2-7-7l0,0c0-3.8,3.2-7,7-7l0,0c3.8,0,7,3.2,7,7l0,0
				C101.8,73.8,98.6,77,94.8,77z"/>
		</g>
		<g>
			<g>
				<polygon class="st7" points="94.8,64.8 94.8,70 93,70 				"/>
				<polygon class="st8" points="94.8,64.8 91.4,70 89.6,70 				"/>
				<polygon class="st9" points="94.8,64.8 93,70 91.4,70 				"/>
			</g>
			<g>
				<polygon class="st10" points="94.8,75.2 94.8,70 96.6,70 				"/>
				<polygon class="st11" points="94.8,75.2 98.2,70 100,70 				"/>
				<polygon class="st12" points="94.8,75.2 96.6,70 98.2,70 				"/>
			</g>
			<g>
				<polygon class="st13" points="94.8,75.2 94.8,70 93,70 				"/>
				<polygon class="st14" points="94.8,75.2 91.4,70 89.6,70 				"/>
				<polygon class="st15" points="94.8,75.2 93,70 91.4,70 				"/>
			</g>
			<g>
				<polygon class="st16" points="94.8,64.8 94.8,70 96.6,70 				"/>
				<polygon class="st17" points="94.8,64.8 98.2,70 100,70 				"/>
				<polygon class="st15" points="94.8,64.8 96.6,70 98.2,70 				"/>
			</g>
		</g>
	</g>
</g>
</svg>
