<?xml version="1.0" encoding="utf-8"?>
<!-- Generator: Adobe Illustrator 24.1.3, SVG Export Plug-In . SVG Version: 6.00 Build 0)  -->
<svg version="1.1" id="Layer_1" xmlns="http://www.w3.org/2000/svg" xmlns:xlink="http://www.w3.org/1999/xlink" x="0px" y="0px"
	 viewBox="0 0 800 800" style="enable-background:new 0 0 800 800;" xml:space="preserve">
<style type="text/css">
	.st0{fill:#BF1C0A;}
	.st1{fill:#8E0E04;}
	.st2{fill:#801003;}
	.st3{fill:#CC1E0A;}
	.st4{fill:#D91F0B;}
	.st5{fill:#B31A09;}
	.st6{fill:#8C1407;}
	.st7{display:none;fill:url(#SVGID_1_);}
	.st8{display:none;fill:url(#SVGID_2_);}
</style>
<image style="display:none;overflow:visible;opacity:0.26;enable-background:new    ;" width="240" height="210" xlink:href="F5B1F226.png"  transform="matrix(1 0 0 1 463.2273 280.5)">
</image>
<image style="display:none;overflow:visible;opacity:0.26;enable-background:new    ;" width="240" height="210" xlink:href="F5B1F22A.png"  transform="matrix(1 0 0 1 100.2273 280.5)">
</image>
<image style="display:none;overflow:visible;opacity:0.75;enable-background:new    ;" width="212" height="116" xlink:href="F5B1F22D.png"  transform="matrix(1 0 0 1 273.2273 403.5)">
</image>
<polygon class="st0" points="400,365 365,400 305.5,400 "/>
<polygon class="st0" points="494.5,400 435,400 400,365 "/>
<polygon class="st1" points="365,400 400,435 305.5,400 "/>
<polygon class="st2" points="494.5,400 400,435 435,400 "/>
<polygon class="st3" points="400,365 400,400 365,400 "/>
<polygon class="st4" points="435,400 400,400 400,365 "/>
<polygon class="st5" points="400,400 400,435 365,400 "/>
<polygon class="st6" points="435,400 400,435 400,400 "/>
<linearGradient id="SVGID_1_" gradientUnits="userSpaceOnUse" x1="543.7578" y1="324.125" x2="304.6477" y2="563.235">
	<stop  offset="0" style="stop-color:#F44236"/>
	<stop  offset="0.2207" style="stop-color:#D93B31"/>
	<stop  offset="1" style="stop-color:#891A1A"/>
</linearGradient>
<rect x="228.8" y="400" class="st7" width="390.9" height="87.4"/>
<linearGradient id="SVGID_2_" gradientUnits="userSpaceOnUse" x1="491.0627" y1="393.925" x2="400.0027" y2="393.925">
	<stop  offset="0" style="stop-color:#F44236"/>
	<stop  offset="0.2207" style="stop-color:#D93B31"/>
	<stop  offset="1" style="stop-color:#891A1A"/>
</linearGradient>
<rect x="400" y="313.6" class="st8" width="91.1" height="160.6"/>
</svg>
