<svg xmlns="http://www.w3.org/2000/svg" viewBox="0 0 189 67.6"><path d="M68.6,35H88.7a5.8,5.8,0,0,1,5.8,5.8V60.9A5.8,5.8,0,0,0,84.6,65L64.5,44.9A5.8,5.8,0,0,0,68.6,35Z" transform="translate(0 -1.2)" style="fill:#683131"/><path d="M100.3,35h20.1a5.8,5.8,0,0,0,4.1,9.9L104.4,65a5.8,5.8,0,0,0-9.9-4.1V40.8A5.8,5.8,0,0,1,100.3,35Z" transform="translate(0 -1.2)" style="fill:#680000"/><path d="M68.6,35H88.7a5.8,5.8,0,0,0,5.8-5.8V9.1c-5.4,5.5-9.9,3.6-9.9-4.1L64.5,25.1A5.8,5.8,0,0,0,68.6,35Z" transform="translate(0 -1.2)" style="fill:#680000"/><path d="M100.3,35h20.1a5.8,5.8,0,0,0,4.1-9.9L104.4,5c0,7.7-4.5,9.6-9.9,4.1V29.2A5.8,5.8,0,0,0,100.3,35Z" transform="translate(0 -1.2)" style="fill:#6b1515"/><path d="M59.5,35,91.3,66.8c1.7,1.7,1.3,2.5-1.1,1.6L0,35Z" transform="translate(0 -1.2)" style="fill:#6b1515"/><path d="M91.3,3.2,59.5,35H0L90.2,1.6C92.6.7,93,1.5,91.3,3.2Z" transform="translate(0 -1.2)" style="fill:#f72d2d"/><path d="M189,35,98.8,68.4c-2.4.9-2.8.1-1.1-1.6L129.5,35Z" transform="translate(0 -1.2)" style="fill:#6b1515"/><path d="M189,35H129.5L97.7,3.2C96,1.5,96.4.7,98.8,1.6Z" transform="translate(0 -1.2)" style="fill:#f72d2d"/><polygon points="94.5 33.8 94.5 44.7 83.6 33.8 94.5 33.8" style="fill:#ad2323"/><polygon points="105.4 33.8 94.5 33.8 94.5 22.9 105.4 33.8" style="fill:#ad2323"/><polygon points="94.5 33.8 94.5 44.7 105.4 33.8 94.5 33.8" style="fill:#ed7474"/><polygon points="83.6 33.8 94.5 33.8 94.5 22.9 83.6 33.8" style="fill:#ef3333"/></svg>