<svg xmlns="http://www.w3.org/2000/svg" viewBox="0 0 189 70"><polygon points="59.5 35 94.5 70 0 35 59.5 35" style="fill:#920000"/><polygon points="94.5 0 59.5 35 0 35 94.5 0" style="fill:#c80000"/><polygon points="189 35 94.5 70 129.5 35 189 35" style="fill:#920000"/><polygon points="189 35 129.5 35 94.5 0 189 35" style="fill:#c80000"/><polygon points="94.5 35 94.5 44.5 85 35 94.5 35" style="fill:#410000"/><polygon points="104 35 99.2 39.7 94.5 35 104 35" style="fill:#5c0000"/><polygon points="99.2 39.7 94.5 44.5 94.5 35 99.2 39.7" style="fill:#5c0000"/><polygon points="94.5 25.6 94.5 35 89.8 30.3 94.5 25.6" style="fill:#700"/><polygon points="94.5 35 85 35 89.8 30.3 94.5 35" style="fill:#700"/><polygon points="104 35 94.5 35 94.5 25.6 104 35" style="fill:#6a0000"/><polygon points="94.5 35 94.5 37.6 91.9 35 94.5 35" style="fill:#ad1b1b"/><polygon points="97.1 35 95.8 36.3 94.5 35 97.1 35" style="fill:#ad0000"/><polygon points="95.8 36.3 94.5 37.6 94.5 35 95.8 36.3" style="fill:#ad0000"/><polygon points="94.5 32.4 94.5 35 93.2 33.7 94.5 32.4" style="fill:#c80000"/><polygon points="94.5 35 91.9 35 93.2 33.7 94.5 35" style="fill:#c80000"/><polygon points="97.1 35 94.5 35 94.5 32.4 97.1 35" style="fill:#c81b1b"/></svg>