<svg xmlns="http://www.w3.org/2000/svg" viewBox="0 0 18.9 18.9"><polygon points="9.4 0 9.4 9.4 6.3 9.4 9.4 0" style="fill:#ff5252"/><polygon points="9.4 0 3.1 9.4 0 9.4 9.4 0" style="fill:#ce2e2e"/><polygon points="9.4 0 6.3 9.4 3.1 9.4 9.4 0" style="fill:#ef3333"/><polygon points="9.4 18.9 9.4 9.4 12.6 9.4 9.4 18.9" style="fill:#f47a7a"/><polygon points="9.4 18.9 15.8 9.4 18.9 9.4 9.4 18.9" style="fill:#c66363"/><polygon points="9.4 18.9 12.6 9.4 15.8 9.4 9.4 18.9" style="fill:#ed7474"/><polygon points="9.4 18.9 9.4 9.4 6.3 9.4 9.4 18.9" style="fill:#c12929"/><polygon points="9.4 18.9 3.1 9.4 0 9.4 9.4 18.9" style="fill:#991919"/><polygon points="9.4 18.9 6.3 9.4 3.1 9.4 9.4 18.9" style="fill:#ad2323"/><polygon points="9.4 0 9.4 9.4 12.6 9.4 9.4 0" style="fill:#bf2828"/><polygon points="9.4 0 15.8 9.4 18.9 9.4 9.4 0" style="fill:#9b2121"/><polygon points="9.4 0 12.6 9.4 15.8 9.4 9.4 0" style="fill:#ad2323"/><rect x="396.1" y="396.1" width="7.8" height="7.81" transform="translate(-513.2 225.9) rotate(-67.5)" style="fill:#6b1515"/><rect x="396.1" y="396.1" width="7.8" height="7.81" transform="translate(225.9 -513.2) rotate(67.5)" style="fill:#501515"/><rect x="6" y="6" width="7" height="7" rx="3.5" style="fill:#421515"/><polygon points="9.4 6.9 9.4 9.4 8.6 9.4 9.4 6.9" style="fill:#ff5252"/><polygon points="9.4 6.9 7.7 9.4 6.9 9.4 9.4 6.9" style="fill:#ce2e2e"/><polygon points="9.4 6.9 8.6 9.4 7.7 9.4 9.4 6.9" style="fill:#ef3333"/><polygon points="9.4 12 9.4 9.4 10.3 9.4 9.4 12" style="fill:#f47a7a"/><polygon points="9.4 12 11.2 9.4 12 9.4 9.4 12" style="fill:#c66363"/><polygon points="9.4 12 10.3 9.4 11.2 9.4 9.4 12" style="fill:#ed7474"/><polygon points="9.4 12 9.4 9.4 8.6 9.4 9.4 12" style="fill:#c12929"/><polygon points="9.4 12 7.7 9.4 6.9 9.4 9.4 12" style="fill:#991919"/><polygon points="9.4 12 8.6 9.4 7.7 9.4 9.4 12" style="fill:#ad2323"/><polygon points="9.4 6.9 9.4 9.4 10.3 9.4 9.4 6.9" style="fill:#bf2828"/><polygon points="9.4 6.9 11.2 9.4 12 9.4 9.4 6.9" style="fill:#9b2121"/><polygon points="9.4 6.9 10.3 9.4 11.2 9.4 9.4 6.9" style="fill:#ad2323"/></svg>