<?xml version="1.0" encoding="utf-8"?>
<!-- Generator: Adobe Illustrator 24.1.3, SVG Export Plug-In . SVG Version: 6.00 Build 0)  -->
<svg version="1.1" id="Layer_1" xmlns="http://www.w3.org/2000/svg" xmlns:xlink="http://www.w3.org/1999/xlink" x="0px" y="0px"
	 viewBox="0 0 189.3 140" style="enable-background:new 0 0 189.3 140;" xml:space="preserve">
<style type="text/css">
	.st0{display:none;}
	.st1{display:inline;}
	.st2{fill:#F72D2D;}
	.st3{fill:#6B1515;}
	.st4{fill:#EF3333;}
	.st5{fill:#AD2323;}
	.st6{fill:#ED7474;}
	.st7{fill:#683131;}
	.st8{fill:#680000;}
	.st9{display:inline;fill:#421515;}
	.st10{display:inline;fill:#501515;}
	.st11{display:inline;fill:#5D1515;}
	.st12{display:inline;fill:#6B1515;}
	.st13{fill:#FF5252;}
	.st14{fill:#CE2E2E;}
	.st15{fill:#F47A7A;}
	.st16{fill:#C66363;}
	.st17{fill:#C12929;}
	.st18{fill:#991919;}
	.st19{fill:#BF2828;}
	.st20{fill:#9B2121;}
	.st21{fill:#501515;}
	.st22{fill:#421515;}
</style>
<g id="Layer_3" class="st0">
	<g class="st1">
		<polygon class="st2" points="173,70.1 138,105.1 78.5,105.1 		"/>
		<polygon class="st2" points="267.5,105.1 208,105.1 173,70.1 		"/>
		<polygon class="st3" points="138,105.1 173,140.1 78.5,105.1 		"/>
		<polygon class="st3" points="267.5,105.1 173,140.1 208,105.1 		"/>
		<polygon class="st4" points="173,70.1 173,105.1 138,105.1 		"/>
		<polygon class="st5" points="208,105.1 173,105.1 173,70.1 		"/>
		<polygon class="st5" points="173,105.1 173,140.1 138,105.1 		"/>
		<polygon class="st6" points="208,105.1 173,140.1 173,105.1 		"/>
	</g>
</g>
<g id="Layer_2_1_" class="st0">
	<g class="st1">
		<path class="st7" d="M248.7,7.4h20.1c3.2,0,5.8,2.6,5.8,5.8l0,0v20.1c-2.3-2.3-5.9-2.3-8.2,0c-1.1,1.1-1.7,2.6-1.7,4.1l-20.1-20.1
			c3.2,0,5.8-2.6,5.8-5.8C250.4,10,249.8,8.5,248.7,7.4z"/>
		<path class="st8" d="M280.4,7.4h20.1c-2.3,2.3-2.3,5.9,0,8.2c1.1,1.1,2.6,1.7,4.1,1.7l-20.1,20.1c0-3.2-2.6-5.8-5.8-5.8
			c-1.5,0-3,0.6-4.1,1.7V13.2C274.6,10,277.2,7.4,280.4,7.4L280.4,7.4z"/>
		<path class="st8" d="M248.7,7.4h20.1c3.2,0,5.8-2.6,5.8-5.8l0,0v-20.1c-5.4,5.5-9.9,3.6-9.9-4.1L244.6-2.5c-2.3,2.3-2.3,5.9,0,8.2
			C245.7,6.8,247.2,7.4,248.7,7.4z"/>
		<path class="st3" d="M280.4,7.4h20.1c3.2,0,5.8-2.6,5.8-5.8c0-1.5-0.6-3-1.7-4.1l-20.1-20.1c0,7.7-4.5,9.6-9.9,4.1V1.6
			C274.6,4.8,277.2,7.4,280.4,7.4L280.4,7.4z"/>
		<path class="st3" d="M239.6,7.4l31.8,31.8c1.7,1.7,1.3,2.5-1.1,1.6L180.1,7.4H239.6z"/>
		<path class="st2" d="M271.4-24.4L239.6,7.4h-59.5L270.3-26C272.7-26.9,273.1-26.1,271.4-24.4z"/>
		<path class="st3" d="M369.1,7.4l-90.2,33.4c-2.4,0.9-2.8,0.1-1.1-1.6l31.8-31.8H369.1z"/>
		<path class="st2" d="M369.1,7.4h-59.5l-31.8-31.8c-1.7-1.7-1.3-2.5,1.1-1.6L369.1,7.4z"/>
		<polygon class="st5" points="274.6,7.4 274.6,18.3 263.7,7.4 		"/>
		<polygon class="st5" points="285.5,7.4 274.6,7.4 274.6,-3.5 		"/>
		<polygon class="st6" points="274.6,7.4 274.6,18.3 285.5,7.4 		"/>
		<polygon class="st4" points="263.7,7.4 274.6,7.4 274.6,-3.5 		"/>
	</g>
</g>
<g id="Layer_1_1_">
	<g>
		<path class="st2" d="M88.5,41.5L60.7,69.3C60.4,69.6,60,70,59.3,70H0.7l85.9-31.9C88.1,37.4,90,40,88.5,41.5z"/>
		<path class="st2" d="M189.3,70h-58.5c-0.4,0-1.1-0.4-1.5-0.7l-27.8-27.8c-1.5-1.5,0-4.1,2.2-3.3L189.3,70z"/>
		<path class="st3" d="M60.4,70.7l27.8,27.8c1.5,1.5,0,4.1-2.2,3.3L0,70h58.5C59.6,70,60,70.4,60.4,70.7z"/>
		<path class="st3" d="M189.3,70l-85.9,31.9c-1.9,0.7-3.7-1.9-2.2-3.3l27.8-27.8c0.4-0.4,0.7-0.7,1.5-0.7H189.3z"/>
	</g>
	<g class="st0">
		<polygon class="st9" points="164.8,70 94.8,70 94.8,0 		"/>
		<polygon class="st10" points="94.8,70 94.8,140 24.8,70 		"/>
		<polygon class="st11" points="164.8,70 94.8,140 94.8,70 		"/>
		<polygon class="st12" points="94.8,0 94.8,70 24.8,70 		"/>
	</g>
	<g>
		<g>
			<polygon class="st13" points="94.8,34.8 94.8,70 83.3,70 			"/>
			<polygon class="st14" points="94.8,34.8 71.5,70 59.6,70 			"/>
			<polygon class="st4" points="94.8,34.8 83.3,70 71.5,70 			"/>
		</g>
		<g>
			<polygon class="st15" points="94.8,105.2 94.8,70 106.3,70 			"/>
			<polygon class="st16" points="94.8,105.2 118.1,70 130,70 			"/>
			<polygon class="st6" points="94.8,105.2 106.3,70 118.1,70 			"/>
		</g>
		<g>
			<polygon class="st17" points="94.8,105.2 94.8,70 83.3,70 			"/>
			<polygon class="st18" points="94.8,105.2 71.5,70 59.6,70 			"/>
			<polygon class="st5" points="94.8,105.2 83.3,70 71.5,70 			"/>
		</g>
		<g>
			<polygon class="st19" points="94.8,34.8 94.8,70 106.3,70 			"/>
			<polygon class="st20" points="94.8,34.8 118.1,70 130,70 			"/>
			<polygon class="st5" points="94.8,34.8 106.3,70 118.1,70 			"/>
		</g>
	</g>
	<g>
		
			<rect x="80.4" y="55.5" transform="matrix(0.3827 -0.9239 0.9239 0.3827 -6.0952 130.8459)" class="st3" width="28.9" height="28.9"/>
		
			<rect x="80.4" y="55.6" transform="matrix(0.9239 -0.3827 0.3827 0.9239 -19.5935 41.6223)" class="st21" width="28.9" height="28.9"/>
		<path class="st22" d="M94.8,83L94.8,83c-7,0-13-5.9-13-13l0,0c0-7,5.9-13,13-13l0,0c7,0,13,5.9,13,13l0,0
			C107.8,77,101.9,83,94.8,83z"/>
	</g>
	<g class="st0">
		<polygon class="st9" points="118.1,70 94.8,70 94.8,46.7 		"/>
		<polygon class="st10" points="94.8,70 94.8,93.3 71.5,70 		"/>
		<polygon class="st11" points="118.1,70 94.8,93.3 94.8,70 		"/>
		<polygon class="st12" points="94.8,46.7 94.8,70 71.5,70 		"/>
	</g>
	<g>
		<g>
			<polygon class="st13" points="94.8,60.4 94.8,70 91.5,70 			"/>
			<polygon class="st14" points="94.8,60.4 88.5,70 85.2,70 			"/>
			<polygon class="st4" points="94.8,60.4 91.5,70 88.5,70 			"/>
		</g>
		<g>
			<polygon class="st15" points="94.8,79.6 94.8,70 98.1,70 			"/>
			<polygon class="st16" points="94.8,79.6 101.1,70 104.4,70 			"/>
			<polygon class="st6" points="94.8,79.6 98.1,70 101.1,70 			"/>
		</g>
		<g>
			<polygon class="st17" points="94.8,79.6 94.8,70 91.5,70 			"/>
			<polygon class="st18" points="94.8,79.6 88.5,70 85.2,70 			"/>
			<polygon class="st5" points="94.8,79.6 91.5,70 88.5,70 			"/>
		</g>
		<g>
			<polygon class="st19" points="94.8,60.4 94.8,70 98.1,70 			"/>
			<polygon class="st20" points="94.8,60.4 101.1,70 104.4,70 			"/>
			<polygon class="st5" points="94.8,60.4 98.1,70 101.1,70 			"/>
		</g>
	</g>
</g>
</svg>
