<svg xmlns="http://www.w3.org/2000/svg" viewBox="0 0 945.1 233.3"><path d="M628.1,305.5c9.9-10.2,20.4-19.7,31.2-28.9,2.1-.4,3.3.9,4.6,2.2l9.2,8.7c8,8.1,16,16.3,24,24.3,11.3,11.3,22.7,22.4,34,33.6,2.2,4.1,6.5,6.1,9.6,9.2,8.9,9.1,18,18,27,27.1,2.1,2.2,4.9,4.2,7.3,2.2s.7-6-1-7.5c-5-4.6-8.3-10.7-13.9-14.8s-11.3-8.2-15.9-13.5c-2.7-3-3.8-6.1-2.3-9.9s2.7-7.1,4.1-10.7c3.5,3.1.1,5.9-.9,8.3s-.8,6.7,2.1,9.3,8.3,7.8,13.2,11c8.8,5.8,17.3,12,21.6,22.3a14.3,14.3,0,0,1,.6,3.4c-.4,4,1,9-2.5,11.6-8.4,6.4-13.8,15.4-19.4,23.7-11.9,17.7-25.9,33.5-39.2,50-1.8,2.2-4.1,3.1-6.8.5s-6.7-5.5-9.5-8.7c-9.3-10.9-19.8-20.5-29.8-30.6-12.9-12.9-26.3-25.3-39.1-38.4-5.8-5.9-12.2-6.7-19.9-5.9s-13.3,1.8-18.7-3.6c-1.3-1.2-3.2-2.2-2.2-4.5s2.6-.6,3.9-.7a5.5,5.5,0,0,0,2.8-.9c1-.5,2.6-.6,2.4-2.1s-1.8-1.7-3.1-1.8l-12.9-1c-1.4-.1-2.7-.3-3.2-1.8s.3-2.3,1.2-3.1,5-3.9,7-6.3c10.4-12.5,22.1-23.8,33.6-35.3a19.4,19.4,0,0,0,5.5-8.8C633.8,310,631.8,306.4,628.1,305.5Z" transform="translate(-210.5 -267.3)" style="fill:#694874"/><path d="M628.1,305.5c3.7.9,5.7,4.5,4.6,8.6a19.4,19.4,0,0,1-5.5,8.8c-11.5,11.5-23.2,22.8-33.6,35.3-2,2.4-4.7,4.2-7,6.3s-1.7,1.8-1.2,3.1,1.8,1.7,3.2,1.8l12.9,1c1.3.1,2.9.1,3.1,1.8s-1.4,1.6-2.4,2.1a5.5,5.5,0,0,1-2.8.9c-1.3.1-2.9-1.3-3.9.7s.9,3.3,2.2,4.5c5.4,5.4,12.3,4.4,18.7,3.6s14.1,0,19.9,5.9c12.8,13.1,26.2,25.5,39.1,38.4,10,10.1,20.5,19.7,29.8,30.6,2.8,3.2,6.5,5.6,9.5,8.7s5,1.7,6.8-.5c13.3-16.5,27.3-32.3,39.2-50,5.6-8.3,11-17.3,19.4-23.7,3.5-2.6,2.1-7.6,2.5-11.6a14.3,14.3,0,0,0-.6-3.4c3.3,4.3,3.9,13.5,1,18.5s-6.2,9.7-9.4,14.5-4,10.8-.4,15.1l-28.6,28.2c-12.8,12.6-25.3,25.5-39.4,36.7-3.2-2.8-6.4-3.4-10.4-1.6a93,93,0,0,0-9,4.3c-1,.7-1.8,1.3-3,.4-6.1-4.5-12.9-4.1-19.9-3.1-3.3-.4-5-3.1-7.1-5q-40.9-37.5-78.3-78.3c-3.4-3.8-3.3-9-5.5-13.3-3.9-7.6-3-14.7-.4-22.8,3.3-10,8.8-18,15.7-25.5,11.2-12,22.8-23.6,34.5-35.2C623.8,309.3,626,307.4,628.1,305.5Zm70.1,163.9-8.3,1c-2.3.4-2.2,2.2-.8,3.2s4.2,4.3,6.8,5.8,3.6,5.2,6.1,5.3,3.3-4.5,5.5-6.3a14.1,14.1,0,0,0,2.4-2.5c2.1-2.9,1.2-5.3-2.3-5.5S700.9,470.6,698.2,469.4Z" transform="translate(-210.5 -267.3)" style="fill:#534468"/><path d="M558.2,306.5c-11.1,8-23.8,13.2-35.6,19.8-15.1,8.4-30.3,16.6-45.5,24.8a13.8,13.8,0,0,0-6,6.2c-2.9,6-5.9,11.9-9.3,17.6-1.9,3.3-1.9,6,.1,9.2s2.8,5.6,4.2,8.4c.6,4.9-3.2,5.8-6.5,7.2s-6.1.3-8-2.6a18.7,18.7,0,0,0-5.5-5.7c-2.4-1.2-.6-5.4-4-6h-1.8c.6-.9,2.6-1.4.5-2.9s-3.6-2.2-4.8-4.1c1-.8.1-1.4-.4-2-7.3-8.3-13.5-17.6-21.9-24.9-4.5-4-9-7.9-13.1-12.3s-5-3.4-7.9.2a535.4,535.4,0,0,1-39,42.1c-2.9,2.9-4.4,2.6-7-.1-5.6-6-11.6-11.6-17.2-17.4-2-2.1-3.2-2.1-5.1,0-5.7,5.9-11.8,11.3-17.2,17.4-2.8,3.1-4.7,2.4-7.2,0-5.3-5.2-10.9-10.2-16-15.7-3.2-3.4-5.4-3.9-8.7,0-4.9,5.8-10.5,11.1-15.6,16.7-1.8,2-3,2-4.8,0-4.8-5-9.8-10-14.7-15,3.7-3.5,8.4-5.2,12.6-7.8a13.6,13.6,0,0,1,11.5-1.4c4,1.2,8.4,1.6,12.6,2.7a5.6,5.6,0,0,0,4.2-.4c12.1-6,24.1-11.9,36.1-18,5.8-3,11-6.1,18.2-4.3s12.5,3.4,18.7-.2c3.6-2,7.6-3.3,11.3-5.2,6.1-3,12-5.3,18.7-1.6,2.7,1.4,6,1.8,9,2.8a7.3,7.3,0,0,0,5.8-.4c10.7-5.7,22.1-10.4,31.9-17.3s19.2-7.6,29.7-3.6a8.7,8.7,0,0,0,7.7-.2c12.2-6.4,24.9-11.8,36.8-18.9,5.5-3.3,10.9-5.3,17.3-2.3,2,.9,4.5.9,6.8,1.3l6.9,1.8a3.5,3.5,0,0,1-.5.8c-14.2,8.4-27.2,18.4-39.9,28.9-.3.2-.2.9-.3,1.8,4.7-1.2,5.9.3,3.5,4.3a1.8,1.8,0,0,0,.1,2.3c.6.5,1.6.5,1.7-.1,1.2-4.4,5.3-3.2,8.1-4.6,12.6-6.2,25.4-12.2,37.4-19.4C550.1,306,554,305.8,558.2,306.5Z" transform="translate(-210.5 -267.3)" style="fill:#428a7f"/><path d="M1154.9,384.3c1.6,1.8-.3,2.2-1.2,2.9-8.7,6.9-17.9,13.2-25.6,21.3a5.4,5.4,0,0,1-2.5,1.5l-47.7,12.3c1-1.2,2.6-1.7,3.1-3.7s2-5.9,2.9-8.9,2.2-5,6-2.9,8.1,3.6,12.2,5.4c.9.4,1.7,1.3,2.6.2,4.1-5.3,10.3-7.6,15.9-10.8,1.7-1,2.4-2,.6-3.3-8.6-6-15.4-15.3-28.2-13-4.2.7-6.7.9-6.6,5.8s-2.5,4.8-5.9,3.1-7.7-3.4-10.9-5.9-5.4-1.9-8,.8c-6.5,6.7-13.2,13.2-19.8,19.8-1.4,1.4-2.6,3.2-4.9,1.5-6.8-8.5-13.1-17.5-20.9-25.1s-18.5-10.8-27.6-16.5c-1.4-.8-2.5.1-3.4,1.1l-13.2,13.5-.9.9c-5.1-1.5-7.7-6-11-9.5-7-7.5-14.3-14.1-24.8-16.4-3.8-.8-7.4-2.6-11.1-4-.1-3.5.1-7-.2-10.5s-1.4-5.5-5.5-3.8-6.8,1.8-10.1,2.8a11,11,0,0,1-9.9-1.5c-13.4-9.8-26.9-19.3-40.4-29L869,300.6l32,15.2c3.5,2.3,6.1,5.6,8.9,8.6,5.4,5.6,9.8,12.4,17,15.8s12.4,4.8,18.7,7.1c1.2.4,2.3,1.1,3.7.5,6.6-2.7,13.5-4.8,19.7-8.2l1.9-.5c5.3-1.8,10.6-3.5,15.8-5.6a7.8,7.8,0,0,1,7.4.4c5.8,3.4,11.8,6.5,17.7,9.7,8.5,5.3,17.1,10.4,26.1,14.9.2.5.6.6,1,.2a156.1,156.1,0,0,0,20.1-6.3c5.3,2.9,11,5.1,15.7,8.7,8.5,6.6,17.3,6.5,26.5,2.6,4.8-2,8.8-.9,13.1,1.7C1127.2,373.1,1141,378.7,1154.9,384.3Z" transform="translate(-210.5 -267.3)" style="fill:#654570"/><path d="M240.2,367.4c4.9,5,9.9,10,14.7,15,1.8,2,3,2,4.8,0,5.1-5.6,10.7-10.9,15.6-16.7,3.3-3.9,5.5-3.4,8.7,0,5.1,5.5,10.7,10.5,16,15.7,2.5,2.4,4.4,3.1,7.2,0,5.4-6.1,11.5-11.5,17.2-17.4,1.9-2.1,3.1-2.1,5.1,0,5.6,5.8,11.6,11.4,17.2,17.4,2.6,2.7,4.1,3,7,.1a535.4,535.4,0,0,0,39-42.1c2.9-3.6,4.8-3.7,7.9-.2s8.6,8.3,13.1,12.3c8.4,7.3,14.6,16.6,21.9,24.9.5.6,1.4,1.2.4,2a2.5,2.5,0,0,0-3.5.2c-1.7,1.1-2.7,3.4-1.4,4.4s3.3,5.9,7.3,3.3h.7c-.7,2.3-3,3.3-4.7,4.2-6.5,3.4-8.7,9.4-10.3,15.9l-.9.3A214.8,214.8,0,0,0,404,386.5c-1.4-1.3-2.7-2.6-4.8-2-5.3,3.9-10,8.6-14.9,13.1-10.5,9.9-21.7,19.1-32.8,28.4-2.2,1.9-3.4,2.1-5.6-.2-5.2-5.3-10.8-10.3-16.1-15.6-2.2-2.1-3.7-2.2-5.8,0-3.8,4.2-7.8,8.2-11.7,12.3-8.4-2.4-16.1-6.3-23.5-10.6a23.3,23.3,0,0,0-19.7-2.3c-2.2.6-4.5,1.2-6.7,1.6s-4.6.6-6.8-.7c-6.6-3.8-13.2-7.5-19.9-11.1s-15.2-9.5-23.4-13c-2.4-1.2-2.4-2.5-.1-3.9s3.3-1.4,4.9-2.2C224.9,376.2,232.1,370.9,240.2,367.4Z" transform="translate(-210.5 -267.3)" style="fill:#222323"/><path d="M312.3,422.5c3.9-4.1,7.9-8.1,11.7-12.3,2.1-2.2,3.6-2.1,5.8,0,5.3,5.3,10.9,10.3,16.1,15.6,2.2,2.3,3.4,2.1,5.6.2,11.1-9.3,22.3-18.5,32.8-28.4,4.9-4.5,9.6-9.2,14.9-13.1,6.8,8,14.8,15,22.1,22.5.8.9,1.6,1.3,1.9-.4l.9-.3c7.2-5.9,11.8-14.1,18-20.9,3.4.6,1.6,4.8,4,6,1.7,5.2,3.1,10.5,6,15.1,1.7,6.1,3.9,11.6,9.7,15.5,8.7,5.8,17,12.3,25.3,18.6,15.3,11.6,30.7,22.9,47.1,32.8l1.8,1a2.5,2.5,0,0,1,.1.8c-4.3.2-8.4,1.5-12.5,2.4s-9.4,3.3-14.3.3c-2.6-1.7-5.7-2.8-8.1-4.7-4.3-3.2-7-1.7-9.2,2.4-26.7-6.9-53.5-13.7-80.2-20.7l-94.6-24.7a50.8,50.8,0,0,1-5.1-1.7c.7-.6,3.9.9,1.7-2.1C312.9,425.2,311,424.5,312.3,422.5Z" transform="translate(-210.5 -267.3)" style="fill:#6a4875"/><path d="M240.2,367.4c-8.1,3.5-15.3,8.8-23.1,12.9-1.6.8-3,2.1-4.9,2.2,7.2-8.2,15.2-15.6,23.2-23.1l44.8-11.5,112.7-29.5c36.8-9.6,73.7-18.9,110.3-29.1,9.7-2.6,17.7-1.6,25.9,3.3-2.3-.4-4.8-.4-6.8-1.3-6.4-3-11.8-1-17.3,2.3-11.9,7.1-24.6,12.5-36.8,18.9a8.7,8.7,0,0,1-7.7.2c-10.5-4-19.9-3.4-29.7,3.6s-21.2,11.6-31.9,17.3a7.3,7.3,0,0,1-5.8.4c-3-1-6.3-1.4-9-2.8-6.7-3.7-12.6-1.4-18.7,1.6-3.7,1.9-7.7,3.2-11.3,5.2-6.2,3.6-12.7,1.7-18.7.2s-12.4,1.3-18.2,4.3c-12,6.1-24,12-36.1,18a5.6,5.6,0,0,1-4.2.4c-4.2-1.1-8.6-1.5-12.6-2.7a13.6,13.6,0,0,0-11.5,1.4C248.6,362.2,243.9,363.9,240.2,367.4Z" transform="translate(-210.5 -267.3)" style="fill:#355da4"/><path d="M1036.9,410.4c2.3,1.7,3.5-.1,4.9-1.5,6.6-6.6,13.3-13.1,19.8-19.8,2.6-2.7,4.6-3.4,8-.8s7.2,4,10.9,5.9,5.9,1.3,5.9-3.1,2.4-5.1,6.6-5.8c12.8-2.3,19.6,7,28.2,13,1.8,1.3,1.1,2.3-.6,3.3-5.6,3.2-11.8,5.5-15.9,10.8-.9,1.1-1.7.2-2.6-.2-4.1-1.8-8.3-3.3-12.2-5.4s-5-.3-6,2.9-2.2,5.9-2.9,8.9-2.1,2.5-3.1,3.7L1031,434.5l-1.1-.4c7.3-2.2,14.5-4.5,21.8-6.5,3.8-1,4.2-4.1,4.7-6.9s-2.5-2.6-4.1-3.6c-8.6-4.9-16.8-5.6-24.7,1.7-4.1,3.8-10.4,4.6-13.7,9.6-2.2-1.6-4-.6-6,.5-3.9,2.4-8.1,4.5-12,7s-7,2.4-11.1.6-9.6-4.4-14.9-5.2v-1c5.2-6.5,9.2-13.7,13-21,1.4-2.8,4.6-5,3-8.9,2.8,1.6,3,3.7,1.4,6.2a56,56,0,0,0-3.5,5.5c-2.5,5.3-7.4,9.5-8.7,16.1,5.3-1.7,9.1-4.4,12.9-7.3,8.1-6.2,13.8-6.7,17.9-.7s6.4,3.6,10.5,1.3C1023.2,417.7,1029.4,413,1036.9,410.4Z" transform="translate(-210.5 -267.3)" style="fill:#20346a"/><path d="M970.9,339.1l-1.9.5-1-1.2c1.6-1.5-.2-2.2-.8-3.2-4.7-6.6-9.4-13.2-14.7-20.8H963c8.1.9,15.8,3.6,23.7,5.6,45.1,11.7,90.2,23.7,135.4,35.4a18.6,18.6,0,0,1,10.1,6.5,228.5,228.5,0,0,0,22.7,22.4c-13.9-5.6-27.7-11.2-40.6-18.9-4.3-2.6-8.3-3.7-13.1-1.7-9.2,3.9-18,4-26.5-2.6-4.7-3.6-10.4-5.8-15.7-8.7-1.2-2.5-2.3-5-3.4-7.6s-1.8-2-3.2-.5c-4.4,4.9-9.6,9-13.5,14.4-.4.4-.8.3-1-.2a139.2,139.2,0,0,0-17-25.2c-11.1-4.2-22.7-6.9-34.1-10.4a3.3,3.3,0,0,0-3.9,1.1C978.8,329,974.9,334.1,970.9,339.1Z" transform="translate(-210.5 -267.3)" style="fill:#b899c1"/><path d="M840,478c-2.9-1.7-7.7.2-8.9-4.7.6-.7,1.4-1.4,1.9-2.1,4.7-6.4,7.6-13.9,13-19.8,3.7-3.2,8-5.1,12.5-6.8,6.3-2.3,13.2-4,18.7-7.6,8.5-5.7,17.9-9.8,26.9-14.5.2,2-3.4,4.8-1,5.4,4.7,1.2,9.6,3.5,14.8,1.5l4,1c0,2.3-2,3.3-3.3,4.7-5.3,6.4-11.1,12.3-15.8,19.2-15.6,7.8-31.5,14.9-46.5,23.8-1.8,1.1-3.6,1-5.7.8S843.6,476.8,840,478Z" transform="translate(-210.5 -267.3)" style="fill:#428b80"/><path d="M857.9,312.4c13.5,9.7,27,19.2,40.4,29a11,11,0,0,0,9.9,1.5c3.3-1,6.9-1.5,10.1-2.8s5.1.8,5.5,3.8.1,7,.2,10.5H906.9c-3.8.6-6.8,4.9-11.2,2.1-7.8-5-16.3-8.8-23.7-14.3,3.4-2.9,2.3-4.3-1.3-6.1-7-3.3-13.7-7.2-20.5-10.9a54,54,0,0,0-19.4-6.7l-45.9-25.1c-.5-7.6,2.6-10.9,9.5-10.1l2.5.3c5.9,7.1,14,12.2,18.1,20.8.9,1.7,1.8,1.5,3.1.5,4-3.2,8.6-5.6,12-9.5H832C840.1,302,849.4,306.6,857.9,312.4Z" transform="translate(-210.5 -267.3)" style="fill:#553962"/><path d="M773.2,426.5c-3.6-4.3-3.4-9.5.4-15.1s6.4-9.6,9.4-14.5,2.3-14.2-1-18.5c-4.3-10.3-12.8-16.5-21.6-22.3-4.9-3.2-8.9-7.3-13.2-11s-3.7-5.4-2.1-9.3,4.4-5.2.9-8.3-4-7.7-6.7-10.9-3-7.9-.4-12c17.6,16.9,35,34.1,51.1,52.5,4,4.6,4.2,10.8,6.7,16,3.4,6.9,2.2,13.2.3,20.5C793.2,407.9,782.7,416.7,773.2,426.5Z" transform="translate(-210.5 -267.3)" style="fill:#523a60"/><path d="M895.7,356.6c4.4,2.8,7.4-1.5,11.2-2.1,2.3,6,7.7,10,10.1,16-1.9-.1-3.5.1-2.2,2.7s2.7,3.6,2,5.5c-1.2,3.4.3,5.3,2.9,7,4.5,3,4.1,6.4,1.1,10.4s-6.2,7.9-8.1,12.4c-2.7,6.5-8.6,9.1-13.7,12-14.6,8.5-29.8,15.7-44.6,23.8-3.1,1.7-7.6,2.4-8.4,7.1-5.4,5.9-8.3,13.4-13,19.8-.5.7-1.3,1.4-1.9,2.1-1.3-4-3.3-7.6-7.6-9.2-1.9-.7-1.1-1.6-.5-2.5l14.3-21.7c.9-1.4,2.6-2,4-2.8l49.8-27.2a12.8,12.8,0,0,0,5.3-5c4.1-6.9,8.1-13.7,12.5-20.4,2-2.9,1.7-5.1-.2-7.9C904.1,370.1,900,363.3,895.7,356.6Z" transform="translate(-210.5 -267.3)" style="fill:#4e706b"/><path d="M840,478c3.6-1.2,7.1.5,10.6.9s3.9.3,5.7-.8c15-8.9,30.9-16,46.5-23.8,8.9,2,17.7,7.1,27,.7,3.8-2.6,8-4.6,12-7l28.1-16.7c5.3.8,10.1,3.1,14.9,5.2s7.4,1.8,11.1-.6,8.1-4.6,12-7c2-1.1,3.8-2.1,6-.5,4,5.6,9,8.4,16,5.7l1.1.4c-14.6,3.9-29.3,7.5-43.7,11.8-43.9,13.1-89,21.8-132.9,35C848.4,483.1,844.7,479.2,840,478Z" transform="translate(-210.5 -267.3)" style="fill:#5a3e64"/><path d="M731.1,345.4c-11.3-11.2-22.7-22.3-34-33.6-8-8-16-16.2-24-24.3.2-2.7,2.1-3,4.2-3h12.9c2.8,0,5.3-.4,6.9-3,8.4,6.5,15.7,14.3,23.2,21.8l9.9,9.8c.7.7,1.5,1.6,2.6.8s.2-1.6-.1-2.5c-1.8-4.2.2-7.3,3.3-9.9a9.4,9.4,0,0,0,1,1c-3,5-3.5,9.8.7,14.4a30.1,30.1,0,0,1,2.7,4.2c.6.9,1.2,1.6.6,3.1-2.6,6.4-4.8,12.9-7.2,19.4A2.5,2.5,0,0,1,731.1,345.4Z" transform="translate(-210.5 -267.3)" style="fill:#b091b9"/><path d="M534.2,473.4c-16.4-9.9-31.8-21.2-47.1-32.8-8.3-6.3-16.6-12.8-25.3-18.6-5.8-3.9-8-9.4-9.7-15.5,2.8-4,4.3-.1,5.8,1.2,5.9,4.8,11.3,4.5,15.3-1.3,9.4,6.6,19.8,11.4,29.8,17,1.7.9,3.8,1.4,5,3.1-5.9,2.7-6.4,5.4-1.6,9.5,1.7,1.4,3.3,3.1,5.8,3.3l11.9,8.1,11.2,24.9Z" transform="translate(-210.5 -267.3)" style="fill:#97dad2"/><path d="M558.2,306.5c-4.2-.7-8.1-.5-12.1,1.9-12,7.2-24.8,13.2-37.4,19.4-2.8,1.4-6.9.2-8.1,4.6-.1.6-1.1.6-1.7.1a1.8,1.8,0,0,1-.1-2.3c2.4-4,1.2-5.5-3.5-4.3.1-.9,0-1.6.3-1.8,12.7-10.5,25.7-20.5,39.9-28.9l.6-.8a4.1,4.1,0,0,1,1.1-.7c4.7,2.4,10,1.8,14.9,3,3.2.8,4.9-.4,6.8-2.4,4-4,8.1-7.9,12.2-11.8,10.9-.9,19.1-7.8,28.1-13,2.8.1,4.6,2.3,7,3.5C593.2,288.6,575.9,297.9,558.2,306.5Z" transform="translate(-210.5 -267.3)" style="fill:#34736d"/><path d="M524.1,447.4l-11.9-8.1c-1.5-4.6-.2-6.8,4.7-7.8,20.5,8.8,39.3,20.6,58.6,31.6,7.6,4.3,14.4,9.2,19.5,16.4a20,20,0,0,0,7,5.6c3.2,1.8,3.6,3.9,1.9,6.9s-2.2,7.5-6.7,8.4c-7.5-6-14.8-12.4-25.1-13l7.3-.4c-9.3-7.7-17.8-14.7-26.2-21.8a25.2,25.2,0,0,0-6.4-5.2c-5.6-3.4-11.8-5.6-16.9-10.1A9.6,9.6,0,0,0,524.1,447.4Z" transform="translate(-210.5 -267.3)" style="fill:#48706c"/><path d="M832,295.6h-1.9A234.2,234.2,0,0,0,804,282.6c-7.2-.3-7.7-.5-5.4-4.8s-.3-4.9-3.2-5.2c-9.9-.9-19.5-3.5-29.4-3.2,11.5-4,22.6-1.5,33.9,1.6,41.2,11,82.5,21.6,123.7,32.6,8.1,2.1,16.6,3.3,24.3,7,2.8,2.5,1.6,4.5-1,6.3s-4.6,2.6-5,5.6c-2.9-1.5-6.1-2.7-8.7-4.6-7-5.1-14.2-7.2-22.6-3.7-2.7,1.1-5.8.9-8.8,1.3.1-3.5,0-7,.1-10.5s-.9-4.9-4.2-5.6c-6-1.4-11.9-3.2-17.8-4.7l-27.2-7.3c-.7,2.2.9,2.9,1.2,4.2Z" transform="translate(-210.5 -267.3)" style="fill:#be9bc7"/><path d="M537.2,293.7a4.1,4.1,0,0,0-1.1.7l-7-1.8c-8.2-4.9-16.2-5.9-25.9-3.3-36.6,10.2-73.5,19.5-110.3,29.1L280.2,347.9l-44.8,11.5c5.3-3.7,11.8-4.2,17.8-5.8q131.6-34.5,263-68.6l53-13.9a26.3,26.3,0,0,1,3.9-.6c-11.4,4.9-21.4,12.2-31,20Z" transform="translate(-210.5 -267.3)" style="fill:#7fc6c0"/><path d="M312.3,422.5c-1.3,2,.6,2.7,1.5,3.9,2.2,3-1,1.5-1.7,2.1-9.5-1.6-18.6-4.7-27.9-7l-45.8-11.9c-1.4-.4-2.9-.6-4.1-1.7-7.2-7.3-15.2-13.8-22-21.5,8.2,3.5,15.5,8.7,23.4,13s13.3,7.3,19.9,11.1c2.2,1.3,4.5,1.1,6.8.7s4.5-1,6.7-1.6a23.3,23.3,0,0,1,19.7,2.3C296.2,416.2,303.9,420.1,312.3,422.5Z" transform="translate(-210.5 -267.3)" style="fill:#5c4166"/><path d="M572.1,487.4c10.3.6,17.6,7,25.1,13-11.3,1.2-21.5-2.2-32-5.8s-24.6-7-37-10.1-24.4-5-36.2-8.9c2.2-4.1,4.9-5.6,9.2-2.4,2.4,1.9,5.5,3,8.1,4.7,4.9,3,9.6.7,14.3-.3s8.2-2.2,12.5-2.4c4.6,1.5,8.7,4.1,12.9,6.4,6.9,3.7,13.5,8.9,22.2,5.6Z" transform="translate(-210.5 -267.3)" style="fill:#2d3961"/><path d="M736,301.5c-3.1,2.6-5.1,5.7-3.3,9.9.3.9,1.3,1.7.1,2.5s-1.9-.1-2.6-.8l-9.9-9.8c-7.5-7.5-14.8-15.3-23.2-21.8-5.2-4.1-11.8-6.8-15.2-13.1.6-.3,1.3-.9,1.8-.8,8.8,2.9,18.5,3.9,26.1,9.9C719.1,284.8,727.6,293.1,736,301.5Z" transform="translate(-210.5 -267.3)" style="fill:#c6a8ce"/><path d="M731.1,345.4a2.5,2.5,0,0,0,2.7-1.8c2.4-6.5,4.6-13,7.2-19.4.6-1.5,0-2.2-.6-3.1a30.1,30.1,0,0,0-2.7-4.2c-4.2-4.6-3.7-9.4-.7-14.4a3.6,3.6,0,0,1,1.9,2.1c-2.6,4.1-3.1,7.8.4,12s4.5,7.2,6.7,10.9c-1.4,3.6-2.6,7.1-4.1,10.7s-.4,6.9,2.3,9.9c4.6,5.3,10.2,9.5,15.9,13.5s8.9,10.2,13.9,14.8c1.7,1.5,3.5,5.4,1,7.5s-5.2,0-7.3-2.2c-9-9.1-18.1-18-27-27.1C737.6,351.5,733.3,349.5,731.1,345.4Z" transform="translate(-210.5 -267.3)" style="fill:#8f6e99"/><path d="M766,269.4c9.9-.3,19.5,2.3,29.4,3.2,2.9.3,5.4,1,3.2,5.2s-1.8,4.5,5.4,4.8c-2.1,1.7-4.8.5-7.1,1.1l-2.5-.3c-6.9-.8-10,2.5-9.5,10.1-2.1-.3-3.5-1.6-4.8-3.1l-14.7-17.6C764.3,271.4,762.9,270.1,766,269.4Z" transform="translate(-210.5 -267.3)" style="fill:#8d6d99"/><path d="M542.1,290.5c9.6-7.8,19.6-15.1,31-20,8.6-3.9,17.3-3.3,26.1-1-9,5.2-17.2,12.1-28.1,13-5.1-1.7-9.9-2.4-14.8,1.1A46.8,46.8,0,0,1,542.1,290.5Z" transform="translate(-210.5 -267.3)" style="fill:#4165a6"/><path d="M681.9,268.4c3.4,6.3,10,9,15.2,13.1-1.6,2.6-4.1,3-6.9,3H677.3c-2.1,0-4,.3-4.2,3l-9.2-8.7c-1.3-1.3-2.5-2.6-4.6-2.2,4-3.2,9.1-3.6,13.6-5.4S678.9,269.3,681.9,268.4Z" transform="translate(-210.5 -267.3)" style="fill:#9872a3"/><path d="M941.9,322.5c.4-3,2.9-4.2,5-5.6s3.8-3.8,1-6.3l15.1,3.8H952.5c5.3,7.6,10,14.2,14.7,20.8.6,1,2.4,1.7.8,3.2Z" transform="translate(-210.5 -267.3)" style="fill:#cdbcd2"/><path d="M473.2,406.4c-4,5.8-9.4,6.1-15.3,1.3-1.5-1.3-3-5.2-5.8-1.2-2.9-4.6-4.3-9.9-6-15.1a18.7,18.7,0,0,1,5.5,5.7c1.9,2.9,4.5,4.2,8,2.6s7.1-2.3,6.5-7.2Z" transform="translate(-210.5 -267.3)" style="fill:#73bbb1"/><path d="M830.8,318.6a54,54,0,0,1,19.4,6.7c6.8,3.7,13.5,7.6,20.5,10.9,3.6,1.8,4.7,3.2,1.3,6.1C857.9,335,844.3,326.9,830.8,318.6Z" transform="translate(-210.5 -267.3)" style="fill:#517872"/><path d="M662.9,491.4c7-1,13.8-1.4,19.9,3.1,1.2.9,2,.3,3-.4a93,93,0,0,1,9-4.3c4-1.8,7.2-1.2,10.4,1.6l-19.5,7a4.2,4.2,0,0,1-3.3,0Z" transform="translate(-210.5 -267.3)" style="fill:#694874"/><path d="M516.9,431.5c-4.9,1-6.2,3.2-4.7,7.8-2.5-.2-4.1-1.9-5.8-3.3-4.8-4.1-4.3-6.8,1.6-9.5C511,428.1,514.6,428.8,516.9,431.5Z" transform="translate(-210.5 -267.3)" style="fill:#71b4aa"/><path d="M698.2,469.4c2.7,1.2,6.1.8,9.4,1s4.4,2.6,2.3,5.5a14.1,14.1,0,0,1-2.4,2.5c-2.2,1.8-2,6.5-5.5,6.3s-3.6-3.8-6.1-5.3-4.3-4.1-6.8-5.8-1.5-2.8.8-3.2Z" transform="translate(-210.5 -267.3)" style="fill:#694874"/><path d="M442.1,385.4c-6.2,6.8-10.8,15-18,20.9,1.6-6.5,3.8-12.5,10.3-15.9,1.7-.9,4-1.9,4.7-4.2l1.2-.8Z" transform="translate(-210.5 -267.3)" style="fill:#275349"/><path d="M917,370.5c-2.4-6-7.8-10-10.1-16H924c3.7,1.4,7.3,3.2,11.1,4,10.5,2.3,17.8,8.9,24.8,16.4,3.3,3.5,5.9,8,11,9.5,3.5,6.8,9.7,11,15,16.1,1.6,3.9-1.6,6.1-3,8.9-3.8,7.3-7.8,14.5-13,21l-.9-.9-14.1-16c-2.7-5.2-7.8-6.8-13-8.1,4.1-2.5,3.3-4.8-.1-7.5a94.2,94.2,0,0,1-20.6-22.1C920,373.9,919.2,371.6,917,370.5Z" transform="translate(-210.5 -267.3)" style="fill:#192958"/><path d="M985.9,400.4c-5.3-5.1-11.5-9.3-15-16.1l.9-.9c2,1.2,4.1.9,6.3,1,12.1.8,24.3-1.8,36.3,1.8.4.1,1-.6,1.6-.9,7.8,7.6,14.1,16.6,20.9,25.1-7.5,2.6-13.7,7.3-20.5,11.1-4.1,2.3-6.9,4.1-10.5-1.3s-9.8-5.5-17.9.7c-3.8,2.9-7.6,5.6-12.9,7.3,1.3-6.6,6.2-10.8,8.7-16.1a56,56,0,0,1,3.5-5.5C988.9,404.1,988.7,402,985.9,400.4Z" transform="translate(-210.5 -267.3)" style="fill:#20356c"/><path d="M941.9,322.5,968,338.4l1,1.2c-6.2,3.4-13.1,5.5-19.7,8.2-1.4.6-2.5-.1-3.7-.5-6.3-2.3-12.7-4.3-18.7-7.1s-11.6-10.2-17-15.8c-2.8-3-5.4-6.3-8.9-8.6l.8-.3c3-.4,6.1-.2,8.8-1.3,8.4-3.5,15.6-1.4,22.6,3.7C935.8,319.8,939,321,941.9,322.5Z" transform="translate(-210.5 -267.3)" style="fill:#428a7e"/><path d="M901.8,315.5l-.8.3-32-15.2-15.1-9c-.3-1.3-1.9-2-1.2-4.2l27.2,7.3c5.9,1.5,11.8,3.3,17.8,4.7,3.3.7,4.3,2.6,4.2,5.6S901.9,312,901.8,315.5Z" transform="translate(-210.5 -267.3)" style="fill:#94d6ce"/><path d="M970.9,339.1c4-5,7.9-10.1,12-15.1a3.3,3.3,0,0,1,3.9-1.1c11.4,3.5,23,6.2,34.1,10.4a35.9,35.9,0,0,0-9.1,10.3c-5.9-3.2-11.9-6.3-17.7-9.7a7.8,7.8,0,0,0-7.4-.4C981.5,335.6,976.2,337.3,970.9,339.1Z" transform="translate(-210.5 -267.3)" style="fill:#90d0c8"/><path d="M853.9,291.6l15.1,9-11.1,11.8c-8.5-5.8-17.8-10.4-25.9-16.8Z" transform="translate(-210.5 -267.3)" style="fill:#428b7f"/><path d="M1016,385.3c-.6.3-1.2,1-1.6.9-12-3.6-24.2-1-36.3-1.8-2.2-.1-4.3.2-6.3-1L985,369.9c.9-1,2-1.9,3.4-1.1C997.5,374.5,1007.3,379,1016,385.3Z" transform="translate(-210.5 -267.3)" style="fill:#192958"/><path d="M1011.8,343.6a35.9,35.9,0,0,1,9.1-10.3,139.2,139.2,0,0,1,17,25.2C1028.9,354,1020.3,348.9,1011.8,343.6Z" transform="translate(-210.5 -267.3)" style="fill:#cce1dd"/><path d="M1038.9,358.7c3.9-5.4,9.1-9.5,13.5-14.4,1.4-1.5,2.3-1.4,3.2.5s2.2,5.1,3.4,7.6A156.1,156.1,0,0,1,1038.9,358.7Z" transform="translate(-210.5 -267.3)" style="fill:#72bfb6"/><path d="M423.2,406.6c-.3,1.7-1.1,1.3-1.9.4-7.3-7.5-15.3-14.5-22.1-22.5,2.1-.6,3.4.7,4.8,2A214.8,214.8,0,0,1,423.2,406.6Z" transform="translate(-210.5 -267.3)" style="fill:#8b8376"/><path d="M432.5,378.6c0,4,4.1,5,5.9,7.7-4,2.6-5.2-1.8-7.3-3.3S430.8,379.7,432.5,378.6Z" transform="translate(-210.5 -267.3)" style="fill:#275349"/><path d="M571.2,487.2c-8.7,3.3-15.3-1.9-22.2-5.6-4.2-2.3-8.3-4.9-12.9-6.4a2.5,2.5,0,0,0-.1-.8c5.6-.8,11.2-1.4,16.7-2.5a4.8,4.8,0,0,1,4.9,1.4Z" transform="translate(-210.5 -267.3)" style="fill:#428a7f"/><path d="M571.2,487.2l-13.6-13.9a4.8,4.8,0,0,0-4.9-1.4c-5.5,1.1-11.1,1.7-16.7,2.5l-1.8-1,1.1-1.1c2.4,1.3,3.7-.5,5.1-1.8,3.6-3.4,7.5-6,12.8-5.3,8.4,7.1,16.9,14.1,26.2,21.8l-7.3.4Z" transform="translate(-210.5 -267.3)" style="fill:#6bbfb4"/><path d="M969,429.4l.9.9v1L941.8,448c-4,2.4-8.2,4.4-12,7-9.3,6.4-18.1,1.3-27-.7,4.7-6.9,10.5-12.8,15.8-19.2,1.3-1.4,3.3-2.4,3.3-4.7a36.9,36.9,0,0,0-.7-9.4c-.5-2-1.2-4.7,1.7-6,6.5-3,12.2-7.3,19-9.7,5.2,1.3,10.3,2.9,13,8.1-1.8.1-2.9-1.5-4.3-2.2s-2.6-1.2-3.8-.4-.1,2.1-.3,3.2c-.6,5.4,2.3,7.9,7.1,9.4S963.2,429.1,969,429.4Z" transform="translate(-210.5 -267.3)" style="fill:#20356c"/><path d="M1029.9,434.1c-7,2.7-12-.1-16-5.7,3.3-5,9.6-5.8,13.7-9.6,7.9-7.3,16.1-6.6,24.7-1.7,1.6,1,4.5,1.1,4.1,3.6s-.9,5.9-4.7,6.9C1044.4,429.6,1037.2,431.9,1029.9,434.1Z" transform="translate(-210.5 -267.3)" style="fill:#192958"/><path d="M941.9,405.3c-6.8,2.4-12.5,6.7-19,9.7-2.9,1.3-2.2,4-1.7,6a36.9,36.9,0,0,1,.7,9.4l-4-1c-3.7-1.6-8.6-1-9.7-6.7-.4-2-2.7-1.2-4.1-.2-9,4.7-18.4,8.8-26.9,14.5-5.5,3.6-12.4,5.3-18.7,7.6-4.5,1.7-8.8,3.6-12.5,6.8.8-4.7,5.3-5.4,8.4-7.1,14.8-8.1,30-15.3,44.6-23.8,5.1-2.9,11-5.5,13.7-12,1.9-4.5,5.2-8.4,8.1-12.4s3.4-7.4-1.1-10.4c-2.6-1.7-4.1-3.6-2.9-7,.7-1.9-1.1-3.7-2-5.5s.3-2.8,2.2-2.7,3,3.4,4.2,5.2a94.2,94.2,0,0,0,20.6,22.1C945.2,400.5,946,402.8,941.9,405.3Z" transform="translate(-210.5 -267.3)" style="fill:#35756b"/><path d="M904.1,422.5c1.4-1,3.7-1.8,4.1.2,1.1,5.7,6,5.1,9.7,6.7-5.2,2-10.1-.3-14.8-1.5C900.7,427.3,904.3,424.5,904.1,422.5Z" transform="translate(-210.5 -267.3)" style="fill:#69b9af"/><path d="M796.9,283.7c2.3-.6,5,.6,7.1-1.1a234.2,234.2,0,0,1,26.1,12.9c-3.4,3.9-8,6.3-12,9.5-1.3,1-2.2,1.2-3.1-.5C810.9,295.9,802.8,290.8,796.9,283.7Z" transform="translate(-210.5 -267.3)" style="fill:#41867c"/><path d="M553.2,465.2c-5.3-.7-9.2,1.9-12.8,5.3-1.4,1.3-2.7,3.1-5.1,1.8l-11.2-24.9a9.6,9.6,0,0,1,5.8,2.5c5.1,4.5,11.3,6.7,16.9,10.1A25.2,25.2,0,0,1,553.2,465.2Z" transform="translate(-210.5 -267.3)" style="fill:#47a091"/><path d="M542.1,290.5a46.8,46.8,0,0,0,14.2-6.9c4.9-3.5,9.7-2.8,14.8-1.1-4.1,3.9-8.2,7.8-12.2,11.8-1.9,2-3.6,3.2-6.8,2.4-4.9-1.2-10.2-.6-14.9-3Z" transform="translate(-210.5 -267.3)" style="fill:#1f346b"/><path d="M969,429.4c-5.8-.3-10.1-4.4-15.4-6s-7.7-4-7.1-9.4c.2-1.1-.9-2.4.3-3.2s2.5-.1,3.8.4,2.5,2.3,4.3,2.2Z" transform="translate(-210.5 -267.3)" style="fill:#486099"/></svg>