<svg xmlns="http://www.w3.org/2000/svg" viewBox="0 0 27.3 27.3"><polygon points="6.1 21.3 13.7 13.7 21.3 21.3 6.1 21.3" style="fill:#683131"/><polygon points="13.7 13.7 21.3 6.1 21.3 21.3 13.7 13.7" style="fill:#680000"/><polygon points="6.1 21.3 13.7 13.7 6.1 6.1 6.1 21.3" style="fill:#680000"/><polygon points="13.7 13.7 21.3 6.1 6.1 6.1 13.7 13.7" style="fill:#6b1515;opacity:0.4"/><g style="opacity:0.31"><polygon points="13.7 27.3 13.7 13.7 27.3 13.7 13.7 27.3" style="fill:#683131"/><polygon points="13.7 13.7 13.7 0 27.3 13.7 13.7 13.7" style="fill:#680000"/><polygon points="13.7 27.3 13.7 13.7 0 13.7 13.7 27.3" style="fill:#680000"/><polygon points="13.7 13.7 13.7 0 0 13.7 13.7 13.7" style="fill:#6b1515;opacity:0.4"/><polygon points="13.7 13.7 16.3 16.3 11 16.3 13.7 13.7" style="fill:#ad2323"/><polygon points="16.3 11 13.7 13.7 11 11 16.3 11" style="fill:#ad2323"/><polygon points="13.7 13.7 16.3 16.3 16.3 11 13.7 13.7" style="fill:#ed7474"/><polygon points="11 16.3 13.7 13.7 11 11 11 16.3" style="fill:#ef3333"/></g><polygon points="13.7 13.7 13.7 16.6 10.7 13.7 13.7 13.7" style="fill:#ad2323"/><polygon points="16.6 13.7 13.7 13.7 13.7 10.7 16.6 13.7" style="fill:#ad2323"/><polygon points="13.7 13.7 13.7 16.6 16.6 13.7 13.7 13.7" style="fill:#ed7474"/><polygon points="10.7 13.7 13.7 13.7 13.7 10.7 10.7 13.7" style="fill:#ef3333"/></svg>