<svg xmlns="http://www.w3.org/2000/svg" viewBox="0 0 30.9 29.3"><path d="M81.9,35h9.8a2.9,2.9,0,0,1,2.8,2.8v9.8a2.8,2.8,0,0,0-4.8,2l-9.8-9.8A2.8,2.8,0,0,0,81.9,35Z" transform="translate(-79 -20.4)" style="fill:#683131"/><path d="M97.3,35h9.8a2.8,2.8,0,0,0,2,4.8l-9.8,9.8a2.8,2.8,0,0,0-4.8-2V37.8A2.9,2.9,0,0,1,97.3,35Z" transform="translate(-79 -20.4)" style="fill:#680000"/><path d="M81.9,35h9.8a2.9,2.9,0,0,0,2.8-2.8V22.4c-2.7,2.6-4.8,1.7-4.8-2l-9.8,9.8A2.8,2.8,0,0,0,81.9,35Z" transform="translate(-79 -20.4)" style="fill:#680000"/><path d="M97.3,35h9.8a2.8,2.8,0,0,0,2-4.8l-9.8-9.8c0,3.7-2.1,4.6-4.8,2v9.8A2.9,2.9,0,0,0,97.3,35Z" transform="translate(-79 -20.4)" style="fill:#6b1515"/><polygon points="15.5 14.6 15.5 20 10.1 14.6 15.5 14.6" style="fill:#ad2323"/><polygon points="20.8 14.6 15.5 14.6 15.5 9.3 20.8 14.6" style="fill:#ad2323"/><polygon points="15.5 14.6 15.5 20 20.8 14.6 15.5 14.6" style="fill:#ed7474"/><polygon points="10.1 14.6 15.5 14.6 15.5 9.3 10.1 14.6" style="fill:#ef3333"/></svg>