<svg xmlns="http://www.w3.org/2000/svg" viewBox="0 0 48 41"><defs><style>.a{fill:#212020;}.b{fill:#9cd9ef;}.c{fill:#232222;}.d{fill:#7cb9e5;}.e{fill:#9bd3e7;}.f{fill:#030303;}.g{fill:#9bd9ef;}.h{fill:#9fdaef;}.i{fill:#070708;}.j{fill:#f3c9b0;}.k{fill:#c29a85;}.l{fill:#9bd8ee;}.m{fill:#96d0e5;}.n{fill:#97d1e6;}.o{fill:#92c9db;}.p{fill:#ae6054;}.q{fill:#ac5e53;}.r{fill:#ac5d53;}</style></defs><path class="a" d="M329.2,387.2a13.7,13.7,0,0,1-7.5-2.7,6.8,6.8,0,0,1-1.7-2.1l-.4-.2a42.7,42.7,0,0,0-8,1l-2.1.5h-.3a46,46,0,0,1,10.5-1.6l-.3-.7c0-.1-.1-.1-.2-.1h-5.7l-4.1.5h-.3a38.7,38.7,0,0,1,10.2-.8,8.3,8.3,0,0,1-.4-1.5,13.5,13.5,0,0,1,0-6,10.1,10.1,0,0,1,1.8-3.4c.2-.1.2-.2.1-.4a8.3,8.3,0,0,1,.3-5.6l.4-.2a7.8,7.8,0,0,1,2.2.4,22.1,22.1,0,0,1,3.4,1.8.6.6,0,0,0,.6.1,22,22,0,0,1,10.2-.1h.5a12.8,12.8,0,0,1,4.1-1.9l1.3-.2a.5.5,0,0,1,.5.3,8.1,8.1,0,0,1,.3,5.1c0,.2,0,.3.1.4a9.1,9.1,0,0,1,2.5,6.4,19.9,19.9,0,0,1-.5,4.9,45.1,45.1,0,0,1,10.4.7h-.3l-4.2-.5a40.1,40.1,0,0,0-6-.1l-.3.8a43.3,43.3,0,0,1,10.7,1.6h0a48.5,48.5,0,0,0-10.8-1.5,7,7,0,0,1-3.3,3.5,11.2,11.2,0,0,1-3.5,1.2l-2.4.4Zm14.5-8.1c0-.2,0-.3-.1-.4a4.8,4.8,0,0,0-4.4-3.9l-4.4.2h-3.5l-4.1-.2a4.7,4.7,0,0,0-3.9,1.9,5.1,5.1,0,0,0-1,2.1h0v1.8a5.3,5.3,0,0,0,2.9,4.3,13.8,13.8,0,0,0,4.1,1.1,37.2,37.2,0,0,0,5.8.1,18,18,0,0,0,4.6-.5,5.1,5.1,0,0,0,3.8-3.9A8.2,8.2,0,0,0,343.7,379.1Z" transform="translate(-309.1 -363.9)"/><path class="a" d="M327.5,390a6.4,6.4,0,0,1,.8-1.9,8.6,8.6,0,0,1,2.8-.4,23.7,23.7,0,0,1,4.6.1,3.4,3.4,0,0,1,2.7,1.8l.4.5c0,.5.1.9.1,1.4v4.4a5.6,5.6,0,0,0,0,1.3,2.1,2.1,0,0,0,1.3,1.8c.5.3.5.5.2.9H340l-1.8-.3a2.3,2.3,0,0,1-1.6-2.3v-4.9c-.1-.5-.3-1-.4-1.5l-.3-.4v8.6a1.8,1.8,0,0,0,.9,1.7c.2.4.1.6-.3.8h-.3a3.7,3.7,0,0,1-1.8-.8l-.5-.4a2.5,2.5,0,0,1-.5-1.6v-8.6c0-.2-.1-.4-.3-.4s-.3.2-.3.4v8.3a3.1,3.1,0,0,1-.8,2.3,6.4,6.4,0,0,1-1.9.8h-.5c-.3-.3-.4-.4-.1-.9a1.6,1.6,0,0,0,.8-1.4c.1-1.3,0-2.6,0-3.8v-5.1c-.1.1-.3.2-.3.4a3.2,3.2,0,0,0-.3.9v3.8c0,.5-.1.9-.1,1.4a2.4,2.4,0,0,1-1.5,2.6,4.2,4.2,0,0,1-2.2.3c-.1-.1-.4-.2-.3-.3s.1-.3.2-.5h.4c.6-.4,1.1-.8,1.1-1.6a7.5,7.5,0,0,0,0-1.5v-3.3a.3.3,0,0,0,.1-.2A19.3,19.3,0,0,1,327.5,390Z" transform="translate(-309.1 -363.9)"/><path class="b" d="M340.4,399.9c.3-.4.3-.6-.2-.9a2.1,2.1,0,0,1-1.3-1.8,5.6,5.6,0,0,1,0-1.3,18.2,18.2,0,0,1,5.5,1.6,5.2,5.2,0,0,1,1.9,1.4,2,2,0,0,1-.2,2.8,8.3,8.3,0,0,1-2.2,1.4,21.9,21.9,0,0,1-5,1.4v-2.3a2.1,2.1,0,0,1,1.2-2.1C340.3,400.1,340.3,399.9,340.4,399.9Z" transform="translate(-309.1 -363.9)"/><path class="b" d="M327.3,395.9a7.5,7.5,0,0,1,0,1.5c0,.8-.5,1.2-1.1,1.6h-.4c-.1.2-.2.3-.2.5s.2.2.3.3a.1.1,0,0,0,.1.1,2.3,2.3,0,0,1,1.3,2,19.2,19.2,0,0,1,0,2.4,15.9,15.9,0,0,1-6-2.1,2.8,2.8,0,0,1-1-.9,1.9,1.9,0,0,1,.2-2.7,6.7,6.7,0,0,1,2.7-1.6A19.3,19.3,0,0,1,327.3,395.9Z" transform="translate(-309.1 -363.9)"/><path class="c" d="M327.2,392.6c-2.6.6-5.1.1-6.6-2.5a4.1,4.1,0,0,0-.5-.9,3.7,3.7,0,0,0-1.9-1.8l-.7-.4c-.2-.3-.1-.5.2-.6a2,2,0,0,1,1.5,0,4.3,4.3,0,0,1,2.3,1.9,5.8,5.8,0,0,0,1,1.2,3.9,3.9,0,0,0,4.2.8l.6-.3v.4c-.3,0-.5,0-.5.3s.2.2.4.2Zm-4.4-2.3s-.2.1-.2.2a.5.5,0,0,0,.5.4l.2-.3C323.3,390.4,323.1,390.3,322.8,390.3Zm-.5-.5h0a1,1,0,0,0-.5-.4s-.2.1-.2.2.2.5.4.5Zm2,1.6c.2-.2.4-.3.4-.4s-.2-.3-.4-.3l-.4.2Zm1.5-.8-.4.4.4.3c.1,0,.4-.1.4-.3Zm-4.8-2.4h-.1c0,.1-.1.2-.1.3s.1.4.3.4.3-.2.2-.3S321.1,388.3,321,388.2Zm-.4-.5-.4-.3a.2.2,0,0,0-.2.2l.3.3Zm-.8-.6-.4-.3h-.2l.3.3Z" transform="translate(-309.1 -363.9)"/><path class="d" d="M340.4,399.9c-.1,0-.1.2-.3.2a2.1,2.1,0,0,0-1.2,2.1v2.3l-2.1.2h-.2V402c0-.1-.1-.3-.1-.4s.5-.4.3-.8l.3-.4,1.1-.8,1.8.3Z" transform="translate(-309.1 -363.9)"/><path class="d" d="M327.3,404.4a19.2,19.2,0,0,0,0-2.4,2.3,2.3,0,0,0-1.3-2,.1.1,0,0,1-.1-.1,4.2,4.2,0,0,0,2.2-.3l.5.3.9.9c-.3.5-.2.6.1.9v3Z" transform="translate(-309.1 -363.9)"/><path class="e" d="M333.4,395.4v3.5a2.5,2.5,0,0,0,.5,1.6l.5.4a2,2,0,0,0-.8,1.3,24.4,24.4,0,0,0-.1,2.7h-.7c0-.6-.1-1.1-.1-1.7a3.7,3.7,0,0,0-.7-2.3,3.1,3.1,0,0,0,.8-2.3v-3.2Z" transform="translate(-309.1 -363.9)"/><path class="d" d="M333.5,404.9a24.4,24.4,0,0,1,.1-2.7,2,2,0,0,1,.8-1.3,3.7,3.7,0,0,0,1.8.8,8,8,0,0,0-.3,3.1Z" transform="translate(-309.1 -363.9)"/><path class="d" d="M332,400.9a3.7,3.7,0,0,1,.7,2.3c0,.6.1,1.1.1,1.7h-2.4a16.2,16.2,0,0,1-.1-2.2,2.9,2.9,0,0,0-.2-.9A6.4,6.4,0,0,0,332,400.9Z" transform="translate(-309.1 -363.9)"/><path class="f" d="M338.8,390.1l-.4-.5a3.4,3.4,0,0,0-2.7-1.8,23.7,23.7,0,0,0-4.6-.1,8.6,8.6,0,0,0-2.8.4l.9-.9H337A4.1,4.1,0,0,1,338.8,390.1Z" transform="translate(-309.1 -363.9)"/><path class="b" d="M330.1,401.7a2.9,2.9,0,0,1,.2.9,16.2,16.2,0,0,0,.1,2.2h-.8v-3Z" transform="translate(-309.1 -363.9)"/><path class="g" d="M335.9,404.8a8,8,0,0,1,.3-3.1h.3c0,.1.1.3.1.4v2.7Z" transform="translate(-309.1 -363.9)"/><path class="h" d="M318,387.5l.3,1.3a.6.6,0,0,1-.1.4h-.5a1.1,1.1,0,0,1-.2-.5l.4-1.3Z" transform="translate(-309.1 -363.9)"/><path class="i" d="M327.2,392.6V390h.2a19.3,19.3,0,0,0-.1,2.4.3.3,0,0,1-.1.2Z" transform="translate(-309.1 -363.9)"/><path class="g" d="M336.7,404.7h0Z" transform="translate(-309.1 -363.9)"/><path class="j" d="M322.3,378.9h0l.2-.2a8.3,8.3,0,0,1,.7-1.3,4.2,4.2,0,0,1,2.6-1.9,21.7,21.7,0,0,1,3.6-.1l3.3.3h2.9l1.7-.2H340c1.6.2,2.5,1.4,3.3,2.7l.4,1a8.2,8.2,0,0,1-.2,2.7,5.1,5.1,0,0,1-3.8,3.9,18,18,0,0,1-4.6.5,37.2,37.2,0,0,1-5.8-.1,13.8,13.8,0,0,1-4.1-1.1,5.3,5.3,0,0,1-2.9-4.3v-1.8Zm7.1,1.1a3.4,3.4,0,0,0-.9-2.6,1.7,1.7,0,0,0-2.7,0,4.3,4.3,0,0,0-.3,4.6c.9,1.5,2.4,1.5,3.3.1A3.9,3.9,0,0,0,329.4,380Zm12,.3a4,4,0,0,0-1-3.1,1.8,1.8,0,0,0-2.6.1,5,5,0,0,0-.9,2.3,4.4,4.4,0,0,0,.8,2.8,1.7,1.7,0,0,0,2.8.1A3.3,3.3,0,0,0,341.4,380.3Zm-8.4,4.8a1.3,1.3,0,0,0,1.3-.8c0-.1-.1-.2-.1-.3H334a1,1,0,0,1-1.9,0h-.3c0,.1-.1.2,0,.3A1.2,1.2,0,0,0,333,385.1Zm.6-2.3a.6.6,0,0,0-.6-.6.6.6,0,0,0,0,1.2A.6.6,0,0,0,333.6,382.8Z" transform="translate(-309.1 -363.9)"/><path class="k" d="M343.7,379.1l-.4-1c-.8-1.3-1.7-2.5-3.3-2.7h-2.7l-1.7.2h-2.9l-3.3-.3a21.7,21.7,0,0,0-3.6.1,4.2,4.2,0,0,0-2.6,1.9,8.3,8.3,0,0,0-.7,1.3l-.2.2a5.1,5.1,0,0,1,1-2.1,4.7,4.7,0,0,1,3.9-1.9l4.1.2h3.5l4.4-.2a4.8,4.8,0,0,1,4.4,3.9C343.7,378.8,343.7,378.9,343.7,379.1Z" transform="translate(-309.1 -363.9)"/><path class="k" d="M322.3,378.9v0Z" transform="translate(-309.1 -363.9)"/><path class="l" d="M329.5,400.8l-.9-.9-.5-.3a2.4,2.4,0,0,0,1.5-2.6c0-.5.1-.9.1-1.4h.6c0,1.2.1,2.5,0,3.8A1.6,1.6,0,0,1,329.5,400.8Z" transform="translate(-309.1 -363.9)"/><path class="l" d="M338.2,399.6l-1.1.8-.3.4a1.8,1.8,0,0,1-.9-1.7v-3.6h.7v1.7A2.3,2.3,0,0,0,338.2,399.6Z" transform="translate(-309.1 -363.9)"/><path class="m" d="M322.8,390.3c.3,0,.5.1.5.3l-.2.3a.5.5,0,0,1-.5-.4C322.6,390.4,322.8,390.3,322.8,390.3Z" transform="translate(-309.1 -363.9)"/><path class="m" d="M322.3,389.8l-.3.2c-.2,0-.5-.3-.4-.5s.2-.2.2-.2a1,1,0,0,1,.5.4Z" transform="translate(-309.1 -363.9)"/><path class="n" d="M324.3,391.4l-.4-.5.4-.2c.2,0,.4.1.4.3S324.5,391.2,324.3,391.4Z" transform="translate(-309.1 -363.9)"/><path class="n" d="M325.8,390.6l.4.4c0,.2-.3.3-.4.3l-.4-.3Z" transform="translate(-309.1 -363.9)"/><path class="m" d="M321,388.2c.1.1.3.3.3.4s-.1.3-.2.3-.3-.2-.3-.4.1-.2.1-.3Z" transform="translate(-309.1 -363.9)"/><path class="o" d="M320.6,387.7l-.3.2-.3-.3a.2.2,0,0,1,.2-.2Z" transform="translate(-309.1 -363.9)"/><path class="n" d="M327.3,390.4v.5c-.2,0-.4,0-.4-.2S327,390.4,327.3,390.4Z" transform="translate(-309.1 -363.9)"/><path class="o" d="M319.8,387.1h-.3l-.3-.3h.2Z" transform="translate(-309.1 -363.9)"/><path class="p" d="M333,385.1a1.2,1.2,0,0,1-1.2-.8c-.1-.1,0-.2,0-.3h.3a1,1,0,0,0,1.9,0h.2c0,.1.1.2.1.3A1.3,1.3,0,0,1,333,385.1Z" transform="translate(-309.1 -363.9)"/><path class="q" d="M333.6,382.8a.6.6,0,0,1-.6.6.6.6,0,0,1,0-1.2A.6.6,0,0,1,333.6,382.8Z" transform="translate(-309.1 -363.9)"/><path class="r" d="M325.9,379.9a2.8,2.8,0,0,1,.4-1.5,1.2,1.2,0,0,1,2.1,0,3.1,3.1,0,0,1,.1,3.1,1.3,1.3,0,0,1-2.2,0A3.4,3.4,0,0,1,325.9,379.9Zm.9-.5a.4.4,0,0,0,.4-.4.5.5,0,0,0-.5-.4.4.4,0,0,0-.4.4A.5.5,0,0,0,326.8,379.4Z" transform="translate(-309.1 -363.9)"/><path class="q" d="M337.4,379.9a2.8,2.8,0,0,1,.7-1.7,1.2,1.2,0,0,1,1.8.1,2.9,2.9,0,0,1,0,3.3,1.2,1.2,0,0,1-2,0A3.4,3.4,0,0,1,337.4,379.9Zm1.5-.9c-.1-.2-.2-.4-.4-.4a.4.4,0,0,0-.4.4.4.4,0,0,0,.4.4C338.7,379.4,338.8,379.2,338.9,379Z" transform="translate(-309.1 -363.9)"/></svg>