<svg xmlns="http://www.w3.org/2000/svg" xmlns:xlink="http://www.w3.org/1999/xlink" viewBox="0 0 248.1 578.2"><defs><style>.a{fill:#18273a;}.b{fill:url(#a);}.c{fill:#264159;}.d{fill:#182e47;}.e{fill:#0e1721;}.f{fill:#fefefe;}.g{fill:url(#b);}.h{fill:url(#c);}</style><linearGradient id="a" x1="445.51" y1="1203.27" x2="693.56" y2="1203.27" gradientUnits="userSpaceOnUse"><stop offset="0" stop-color="#fff"/><stop offset="0.55" stop-color="#c69c6d"/><stop offset="1" stop-color="#fff"/></linearGradient><linearGradient id="b" x1="578.41" y1="1203.46" x2="578.41" y2="1162.35" gradientUnits="userSpaceOnUse"><stop offset="0" stop-color="#fff"/><stop offset="1"/></linearGradient><linearGradient id="c" x1="365.89" y1="1207.09" x2="365.89" y2="1170.33" gradientTransform="matrix(-1, 0, 0, 1, 984.98, 0)" xlink:href="#b"/></defs><path class="a" d="M588.8,1563.1l-.3-1.7-.4-.4-2.6-1.5,3.2,3.6Z" transform="translate(-445.5 -984.9)"/><path class="b" d="M676.3,1351.5,490,1419.4c-23.7,8.7-44.5-8.2-44.5-38.5V1024c0-30.2,20.8-46.1,44.5-36.2l186.3,77.6c9.7,4.1,17.3,21.5,17.3,39.2v208.6C693.6,1330.9,686,1348,676.3,1351.5Z" transform="translate(-445.5 -984.9)"/><path class="c" d="M566.4,1243.1c-.4,3.5.7,5.8,3.4,6.2a4.7,4.7,0,0,1,3.8,3.5,115.7,115.7,0,0,1,5.5,29.7c.1,2.4.4,4,1.7,5.4a6.9,6.9,0,0,1,1.7,2.6l.6.7c1.7,1.7,1.3,4.6.1,6.4a11.9,11.9,0,0,0,.8,2c2.2,5-3.2,10.4-5.6,5.9l-3.6-6.7a29.5,29.5,0,0,1-.2,4.2c-.2,2.2-.7,4.6-2.4,5.2s-2.7-1.4-3.3-3.5a31.8,31.8,0,0,1-.1-11.1,33.7,33.7,0,0,0,.3-4.4,35.1,35.1,0,0,0-4-5.3l-1.3,3.3c-.6,1.5-1.2,3-1.9,4.4a34.6,34.6,0,0,0-1.8,6.5c3.1-1.3,3.1-1.3,2.5,2.9a12.8,12.8,0,0,1-2.6,6.7c-2.3,2.7-3.8,2.4-4.4-1.4a12,12,0,0,1-.3-2c-.4,1-.8,1.9-1.1,2.9-2.1,5.8-7.6,2.8-6.7-2.8l-.6.7a2.3,2.3,0,0,1-1,.7,4.8,4.8,0,0,1,.6,1.8l.3,3.7a32.4,32.4,0,0,1,.9,10.5c3,8.2,5,17,7,25.7a45.5,45.5,0,0,0,6.5,4.3c5.4,2.6,11.6-.3,17.1-2.1a72.6,72.6,0,0,0,8.8-3.4c6.9-3.1,13.7-6.1,20.3-7.4a21.7,21.7,0,0,1,5.7-.6,42.4,42.4,0,0,0,11.7-9.8l3.3-5.1c1.7-3.9,3.2-7.8,4.9-11.7,3.2-7.6,6.9-14.5,9.8-22.1a91.4,91.4,0,0,0,1.1-13.7v-.5l-2.3-.7c-3.2-1.2-6.6-2.5-8.7-7.1a36.3,36.3,0,0,0,.5,9.2,24.4,24.4,0,0,1-.2,10.4c-2.7,11.2-7.6,19.5-14.3,25.7-3.3,3.2-7,4.9-10.6,6.7a4.6,4.6,0,0,0-.6-4.3c-1.4-1.6.3-4.7-.9-6.3,2.3-2.3,2.1-6,2.1-8.8s4.6-4.3,2-8.4a4.3,4.3,0,0,0,1-.9c4-4.7,8.5-7.7,11.5-14.8s5.6-12,8-18.3a4.5,4.5,0,0,0,.2-3.6,1.9,1.9,0,0,0-2.3-1.2c-.5.1-.8,1.3-1.6.3-2.8-3.4-7.5-2.7-10.1,1.5-.2.4-.5.9-.8,1-3.1,1.1-3,4.2-2.3,7.8,1.3,6.4-1.2,11.9-5.5,12-1.4,0-3.7,4.5-4.2-1.3h-.3c-4.1.3-4-.1-6.1-4s-.5-4.3,1.4-5c3.5-1.3,6.5-4,8.9-8.1.6-1,1.5-2.1,1-3.4s-1.6-.4-2.4.2c-8.5,7.2-15.7-.7-23.7-4.4-.1,0-.1-.5-.3-1.2,1.8-.1,3.2-2.6,5.1-1s6.5,1.2,9.5.6,7.2-2.6,10.7-3.4a26,26,0,0,1,8.8-.2c.3,0,.8,2.3,1.7,1.3s.9-2.7.7-4.1a18.3,18.3,0,0,1-.2-3.3c0-5.2-1.6-6.6-4.9-5.2-1.4.6-2.9-.1-2.2,3.5.2.8-.3,1.2-.6,1.1-2.7-.8-4.6,3-7.2,3.2s-4.4.7-6.5,0-1.3-3.4-1.9-5.3-1.9-2.3-3.3-2.5c-3.4-.6-6.4,1.9-10,3.2l1.9-4c.4-.8,1.2-1.8.5-2.9s-1.2.6-1.8.8-3.4,2-3.2-2.4c.1-.9,0-2-.8-2.3s-1.2.5-1.6,1.3l-3.6,6.7a23.3,23.3,0,0,0,.3-5.8c-.1-2.1.7-3.9,1.8-4.3s4.3-2.9,6.4-4.7,3.1.2,4.1,2,1.8,3.7,1.1,5.8-.6,4.9,1.8,5.1a52.3,52.3,0,0,0,7.9.4c3-.1,5.6-1.5,7.1-5.9h0c.3-3.2-1.4-2.3-2.4-2.5a3.9,3.9,0,0,0-4.3,2.2c-.3.5,1,2.4-.6,1.7s-1.1-.2-1.1-1.3a2.3,2.3,0,0,1,.9-2.2c1.8-.9,3.9-3.2,5.3-2.4,4,2.4,6.9-1,10-3.1,1.2-.8,1.2-2.2.8-3.7s-1.4-1.4-2.1-.3-1.8,2.5-2.6,1.6c-3.2-3.2-6-2.1-9,.6s-3.3.9-4.3-1.1c-3.1-5.8-6.9-4.9-10.7-3.3-1-1.7.4-3.6-.7-6-1.4,2.8-3.3,6.6-4.2,6.9-5.5,1.5-7.1,9.9-11.8,12.9-.8.6-1.2,2-1.5,3.6C565.7,1234.3,566.9,1238.6,566.4,1243.1Z" transform="translate(-445.5 -984.9)"/><path class="d" d="M576.4,1128.7c-.4-4.3,2.6-12.8,3.5-11.3-.2-6.2,4.3-1.4,2.5-13,4.6-28.5,24.5-33.3,36.4-16,2.4-2.5,4.8,6.2,6.8,7.1,4.8-1,2.7,9.5,6.3,12.4,4.1,6.1-1,6.2.8,7.1s1.1,4.6,1.2,5.2c-.4-13.3,5.2,8.7,2.1,12.9-2.4,5.7-2.3,5.3-5.9.4C614,1109.3,591.8,1108.1,576.4,1128.7Z" transform="translate(-445.5 -984.9)"/><path class="e" d="M628,1205.5c3.8-9.3,4.7-17.9,5.4-28.5,1.9-4,6.8-.2,4.3,4.8-1.9,3.4,1.3,2,2.6,3.2-2-6.8-.5-15.1-.8-21.3-3.4-4.8-.5-27.8,2.5-14.6,1.1,8.3-.4,2.7,2.5,3.6,1.2.9,2.3,2,1.7,5-.2.5,2.8,2.2.7,4.9-.2.2-.3,1.8.3,2.2s-.5,4.3.7,6.5c2.8,15.8-2.8,28.6-4.4,44.5-2-8.5.7-8-3.4-12.9,0,.9-.5,3.8-1.4,3.3-1.6-12.7,1.3-8.7-6-7.1C631.3,1199.6,630,1209.7,628,1205.5Z" transform="translate(-445.5 -984.9)"/><path class="a" d="M628.1,1207.2a3.9,3.9,0,0,1-2.5,2.1c-3.8,1.8-7.7,1.5-11.7,1-5.7-.7-8.2-7.8-10.5-15.2-.6-1.9-1-4-1.6-5.9s-.9-2.8.1-3.7.5-3.2-.2-4.1-2.6-1.9-3.9-.4-.8,2.8.1,4.3,1,3.9-.5,5.3c-3.2,3.1-5.5,7.4-7.4,12.5-.2.5-.8.8-1.2,1.2a.9.9,0,0,1-.4-.6c.3-2.2-.5-.9-1-.6-6.7,3.9-13.9,4.5-20.5-2-4.9-4.8-7.2-12.9-7.9-21.3-.4-4.5,0-9-.1-13.6s1.2-5.1,3.3-5.6c4-.9,8-1.9,12.1-1.5,1.3.1,2.1-.5,3.3-1.7a7.7,7.7,0,0,1,9.4-1.6c3.8,2,6.7,6.5,9.9,9.5s4.6,5.1,7.4,5.7c.7.1,1.2.3,1.9-.5,3.5-4,7.7-3.5,11.7-3.7.7-.1,1.7-.3,1.8,1.3s-.7,1.9-1.6,2.1c-4.1.7-8.4.7-11.9,4.9-.3.3-1-.4-1,.9-.2,4.5-1.1,9.1-.5,13.3a57.6,57.6,0,0,0,3.9,13.8c1.3,3.5,4.2,3.7,6.4,4.8,4.4,2.1,8.5.1,12.5-1.5A1,1,0,0,1,628.1,1207.2Z" transform="translate(-445.5 -984.9)"/><path class="a" d="M622.5,1167.2l10.1,8.1a1,1,0,0,1,.3,1.3c-.3.5-.8,1.2-1.3.5-2.7-4.1-6.2-4.7-9.6-6.1a2.3,2.3,0,0,1-1.7-2.7C620.4,1166.6,621.6,1167.9,622.5,1167.2Z" transform="translate(-445.5 -984.9)"/><path class="a" d="M564.1,1159.6c-1.3-.1-1.6-.2-1.7-2.8,0-4.5,2.2-7.3,2.6-11.3.1-1.1,1.1-2,2.2-1.3a3.8,3.8,0,0,1,1.2,3.4c-.3,3.4-.8,6.7-1.3,10S565.5,1159.9,564.1,1159.6Z" transform="translate(-445.5 -984.9)"/><path class="a" d="M622.5,1238.4c-.1,1.5-.2,3.1-1.4,3.2s-1.8-.7-1.8-2.4.9-3.3,2-3.5S622.4,1237.1,622.5,1238.4Z" transform="translate(-445.5 -984.9)"/><path class="a" d="M606.1,1225.2c.1.4.4.8.4,1.1s.4,3.7-.9,4.8a.8.8,0,0,1-1.3-.4c-.7-1.8.3-3.1.6-4.5h0C605.2,1225.6,605.3,1224.6,606.1,1225.2Z" transform="translate(-445.5 -984.9)"/><path class="a" d="M638.5,1230.1c-.1,1.2-.6,1.3-1.1,1s-1.4.2-1.4-1.5.3-2.1,1-1.7A2.7,2.7,0,0,1,638.5,1230.1Z" transform="translate(-445.5 -984.9)"/><path class="a" d="M605.5,1182.7c1.9,3.1,1.5,5.6,1.4,9.1C605.1,1188.8,605.3,1186.3,605.5,1182.7Z" transform="translate(-445.5 -984.9)"/><path class="a" d="M563.3,1245.1c1.2.8,2.1-2.1,3.2-.2s.5,1.3,0,1.7S564.3,1246.7,563.3,1245.1Z" transform="translate(-445.5 -984.9)"/><path class="a" d="M648.7,1166.9c.7,1,.3,2.1.4,3.4C647.9,1169.1,648.7,1168,648.7,1166.9Z" transform="translate(-445.5 -984.9)"/><path class="a" d="M575.2,1119.2c-.5-1.6-.3-2.6.8-2.8s.8.3.9.6-.2,2.6-1.3,3S575,1119.8,575.2,1119.2Z" transform="translate(-445.5 -984.9)"/><path class="a" d="M575.6,1120c.1,1.3-.2,2.2-1.2,1.9s-.6-1-.6-1.6.5-1.8,1.4-1.1S575.5,1119.7,575.6,1120Z" transform="translate(-445.5 -984.9)"/><path class="a" d="M645.4,1148.8c-.1.7-.4,1-.8,1s-.8-.4-.8-1.2.6-.8,1-.8S645.3,1148.2,645.4,1148.8Z" transform="translate(-445.5 -984.9)"/><path class="a" d="M643.7,1151.7c0,.8-.2,1.2-.7,1s-.6-.4-.6-1.1.3-1.2.8-1.1S643.6,1151.2,643.7,1151.7Z" transform="translate(-445.5 -984.9)"/><path class="a" d="M624.7,1092.2c.2-.5.4-.8.8-.2s0,.6.1,1h0l-.4.2Z" transform="translate(-445.5 -984.9)"/><path class="a" d="M618.6,1086.5c-.1-.6-.1-1.1.4-.8a3.4,3.4,0,0,0,.1.9h0c-.2.4-.4.3-.6-.2Z" transform="translate(-445.5 -984.9)"/><path class="a" d="M606.3,1224.3c.1.1.3.1.3.3s.1.8-.3.7-.3-.3-.3-.5Z" transform="translate(-445.5 -984.9)"/><path class="a" d="M587.2,1205.6l-.4.9-.3-.5.7-.3Z" transform="translate(-445.5 -984.9)"/><path class="a" d="M628.4,1206.7a.6.6,0,0,1-.3.5l-.6-.8c0-.6.1-.9.5-.9Z" transform="translate(-445.5 -984.9)"/><path class="a" d="M587.2,1205.7c-.2-.9,0-1.2.6-1h.1c0,.9-.2,1.1-.7.8Z" transform="translate(-445.5 -984.9)"/><path class="a" d="M587.8,1204.7c-.2-.9.2-1,.6-1l.4.6c-.2.6-.5.9-.9.5Z" transform="translate(-445.5 -984.9)"/><path class="a" d="M567.7,1142.7l-.4-.4c.1-.1.1-.3.2-.3l.5.4Z" transform="translate(-445.5 -984.9)"/><path class="a" d="M577,1115.6c-.1.6-.3,1.1-.8.6a1,1,0,0,1,.2-1.6Z" transform="translate(-445.5 -984.9)"/><path class="a" d="M632.7,1108.4c.1-.6.3-1,.6-.5s.3,1.2-.1,1.4Z" transform="translate(-445.5 -984.9)"/><path class="f" d="M633.9,1112.5l.3,1.1h.1c.2-.7,0-1-.4-1.2Z" transform="translate(-445.5 -984.9)"/><path class="f" d="M618.5,1086.4c.2.4.4.5.6.2l-.3.8Z" transform="translate(-445.5 -984.9)"/><path class="f" d="M625.2,1093.1l.3.2v-.4Z" transform="translate(-445.5 -984.9)"/><polygon class="f" points="197.9 180 197.9 179.8 198 179.9 197.9 180"/><polygon class="f" points="197.3 177.2 197.1 177.2 197.2 177.6 197.3 177.2"/><path class="g" d="M594,1178.3c.1-1.5.7-3.1-.5-4.2s-2.2-2.8-3.1-1.4-.9,5-.2,7.5c1.3,4.9,1.6,4.9,3.8,1.3-.9,3.8-1.6,7.1-2.3,10.4-2.4,11.2-9.7,12.7-17.4,11-5.3-1.2-9.1-4.9-10.3-13.7a132.1,132.1,0,0,1-1.4-17.8c0-4.7,2.8-8.4,7.8-8.9,7.4-.8,14.4,2.4,20.9,6.9C593.5,1170.9,594.7,1174.4,594,1178.3Z" transform="translate(-445.5 -984.9)"/><path class="a" d="M567.4,1178.3c-.2,2,.5,5.3-1.9,5.1s-2.3-4.4-2.7-7-.2-4,1.7-3.7S567.7,1175.1,567.4,1178.3Z" transform="translate(-445.5 -984.9)"/><path class="a" d="M565.1,1184.8l-.3.3a1.4,1.4,0,0,0-.2-.6c0-.1.2-.3.2-.4Z" transform="translate(-445.5 -984.9)"/><path class="f" d="M587.1,1179.2c-1.5-2.5-3.5-1.4-5.3-2,2.4-3.9,3.6.2,5.2,1.9Z" transform="translate(-445.5 -984.9)"/><path class="f" d="M575.8,1177.4c.8-1,1.6-1.9,2.7-1.4C578,1178.1,576.7,1177.3,575.8,1177.4Z" transform="translate(-445.5 -984.9)"/><path class="f" d="M577.5,1183.2c.1-.1.1-.3.2-.3a.2.2,0,0,1,.3,0c.2.3.2.5-.2.4Z" transform="translate(-445.5 -984.9)"/><path class="f" d="M574.1,1178.9Z" transform="translate(-445.5 -984.9)"/><path class="f" d="M587,1179.1c.1.7.3,1.1.8,1h.1c0-.8-.3-1-.8-1Z" transform="translate(-445.5 -984.9)"/><polygon class="f" points="128.6 194 128.7 193.9 128.6 194.1 128.6 194"/><path class="h" d="M606.1,1181.7c-.1-1.4-.6-3,.5-3.9s2.1-2.3,2.9-.8.8,5,.2,7.2c-1.3,4.6-1.5,4.5-3.6.7.8,3.9,1.5,7.1,2.2,10.4,2.2,10.8,8.6,12.6,15,11.5,4.1-.8,7-3.8,7.9-11.3a124.6,124.6,0,0,0,1.1-15c-.1-4.1-2.1-7.7-5.9-9.1-6-2.2-11.9-.7-17.8,2.3C606.6,1174.7,605.5,1177.8,606.1,1181.7Z" transform="translate(-445.5 -984.9)"/></svg>