<svg xmlns="http://www.w3.org/2000/svg" xmlns:xlink="http://www.w3.org/1999/xlink" viewBox="0 0 172.1 485.9"><defs><style>.a{fill:#18273a;}.b{fill:#264159;}.c{fill:#182e47;}.d{fill:#0e1721;}.e{fill:#fefefe;}.f{fill:url(#a);}.g{fill:url(#b);}</style><linearGradient id="a" x1="525.62" y1="1215.44" x2="525.62" y2="1173.49" gradientUnits="userSpaceOnUse"><stop offset="0" stop-color="#fff"/><stop offset="1"/></linearGradient><linearGradient id="b" x1="391.99" y1="1218.11" x2="391.99" y2="1176.15" gradientTransform="matrix(-1, 0, 0, 1, 984.98, 0)" xlink:href="#a"/></defs><path class="a" d="M588.8,1563.1l-.3-1.7-.4-.4-2.6-1.5,3.2,3.6Z" transform="translate(-478.9 -1077.2)"/><path class="b" d="M507,1255.8c-.5,3.5,1.2,5.9,5.1,6.5a6.8,6.8,0,0,1,5.5,3.8c4.3,10,7.6,20.3,8.2,31.2.2,2.5.7,4.2,2.7,5.8a9.5,9.5,0,0,1,2.5,3l1,.9c2.6,2.1,1.9,5,0,6.7l1.4,2.3c3.4,5.6-5,10.2-8.6,5-1.9-2.5-3.6-5.1-5.4-7.6a20.3,20.3,0,0,1-.3,4.3c-.3,2.2-1,4.5-3.5,4.9s-4.1-2-4.9-4.2c-1.2-3.7-.9-7.5-.1-11.3a22.5,22.5,0,0,0,.4-4.4,80.8,80.8,0,0,0-5.7-6l-2,3.2a25.7,25.7,0,0,1-2.6,4.1,22.4,22.4,0,0,0-2.5,6.2c4.4-.7,4.3-.7,3.5,3.3a9.6,9.6,0,0,1-3.7,6.2c-3.2,2.3-5.2,1.7-6.1-2.1a17.7,17.7,0,0,1-.4-2,22,22,0,0,0-1.5,2.6c-2.9,5.3-10.2,1.3-9.1-3.9l-.7.5-1.3.6a3.6,3.6,0,0,1,.7,1.8c.2,1.2.3,2.4.5,3.6a25.9,25.9,0,0,1,1.1,10.4c4,8.6,6.7,17.7,9.5,26.8,3,2.1,6,4.3,9,6,7.6,4,16.7,2.9,25,2.7,4.5-.1,8.9-.5,13.4-1,11.1-1.2,22.3-2.4,33.5-1.9a70.3,70.3,0,0,1,9.9,1.2,66.8,66.8,0,0,0,21.3-7.5l6.2-4.9c3.2-4,6.2-8.2,9.4-12.2,6.3-8.1,13.5-15.5,19.4-23.9a56.8,56.8,0,0,0,2.3-16.3v-.5c-1.5-.5-3.2-.8-4.6-1.3-6.5-2-13.2-4.1-17.3-9.8a27,27,0,0,0,1,10.8c1.1,4.1,1.3,8.3-.4,12.3-5.3,12.5-14.6,20.9-26.8,26.4-6.1,2.7-12.5,3.7-18.8,4.7a3.9,3.9,0,0,0-1.2-4.9c-2.4-2.1.7-5.1-1.4-7.2,3.9-2,3.5-6.1,3.5-9.2s8.1-3.9,3.6-9l1.8-.7c7.1-4.6,15.1-7.2,20.7-14.8s10.5-13,15.1-20c.9-1.3,1.4-2.8.4-4.2s-2.7-1.7-4.5-1.6-1.5,1.4-3,.2c-5.2-4.3-13.9-3.8-18.6.7a4.4,4.4,0,0,1-1.5,1c-5.6,1-5.4,4.4-4.1,8.6,2.4,7.3-2.1,13.2-9.6,12.5-2.5-.2-6.4,4.5-7.2-1.9h-.5c-6.9-.3-6.8-.7-10.3-5.1s-.9-4.8,2.3-5.3a27.4,27.4,0,0,0,15.1-7.9c1.1-1,2.6-2.1,1.7-3.7s-2.8-.6-4,0c-14.5,7-26.2-2.1-38.7-6.6-.2-.1-.3-.6-.5-1.3,2.7,0,5-2.6,7.9-.7,4.9,3.1,10.5,1.7,15.4,1.3s12-2.4,18.1-3,10.3-.1,15.5.4c.5.1,1.4,2.7,3.1,1.6s1.6-2.9,1.2-4.5a12.3,12.3,0,0,1-.2-3.8c-.1-6-3-7.6-8.9-6.2-2.5.6-5.2-.1-3.9,3.9a.9.9,0,0,1-1.1,1.2c-4.7-1-8.1,3-12.4,3.1s-7.5.6-10.9-.3c-1.5-.4-2.2-3.8-3.1-5.9s-3.2-2.5-5.4-2.8c-5.4-.7-10.2,1.9-15.8,3.1,1.2-1.8,2.1-2.9,2.9-4.2s1.9-1.8.8-3-1.9.5-2.8.8-5.2,1.9-4.8-2.6c0-1-.1-2.1-1.3-2.4s-1.8.5-2.5,1.3l-5.3,6.7c.7-2,.4-4,.4-5.9s1-3.9,2.7-4.3c3.6-1,6.6-3,9.7-4.8s4.9.2,6.4,2.1,2.8,3.8,1.8,6-.9,5.3,2.8,5.6,8.6.7,12.9.7,9.3-1.5,11.8-6.4h0c.5-3.5-2.4-2.6-4-2.8s-5.3.1-7.2,2.3c-.5.6,1.7,2.6-1.1,1.9-.7-.3-1.7-.3-1.7-1.5a2.1,2.1,0,0,1,1.4-2.3c3-.9,6.6-3.4,8.9-2.5,6.8,2.6,11.8-1.1,17.3-3.4,2-.9,2-2.5,1.3-4.2s-2.4-1.5-3.6-.3-3.2,2.9-4.7,1.9c-5.4-3.6-10.2-2.4-15.2.6a5.2,5.2,0,0,1-7.1-1.1c-4.9-6.2-11-5.2-17-3.5-1.5-1.7.5-3.8-1.1-6.2-2.1,2.9-5,6.9-6.5,7.2-8.3,1.6-10.6,10.2-17.4,13.2-1.2.6-1.8,2-2.3,3.6C506,1246.9,507.7,1251.3,507,1255.8Z" transform="translate(-478.9 -1077.2)"/><path class="c" d="M521.8,1138.5c-.6-4.3,3.9-13.8,5.2-12.4-.3-6.3,6.7-2.4,3.9-14.1,7.1-31.3,39.8-43.4,60.9-28.3,4.2-3.7,8.8,5.4,12.4,5.8,9.3-2.8,5.2,10,12.1,12.2,7.9,5.9-2,7.7,1.5,8.1,1.4.8,2.1,5.1,2.3,5.8-.8-15.5,10.3,8.9,4.2,14.6-4.7,7.3-4.6,6.9-11.5,1.9C583.2,1108.8,545.7,1113.4,521.8,1138.5Z" transform="translate(-478.9 -1077.2)"/><path class="d" d="M608.8,1216.1c7.4-11.1,9-21.2,10.3-33.7,3.9-4.9,13.5-1,8.4,5.1-3.6,4.3,2.7,2.3,5.3,3.6-4-7.9-1-18-1.7-25.2-6.7-5.1-.8-33,5.1-17.9,2.4,9.7-.7,3.3,5.2,3.7,2.5.8,4.8,2,3.4,5.8-.2.6,5.8,2.1,1.6,5.8-.4.3-.7,2.2.7,2.6,3.5,1.2-1.2,5.3,1.4,7.7,5.9,19-5.8,35-9.3,54.2-3.9-10.1,1.5-9.6-6.8-15.3,0,1-.9,4.5-2.9,3.9-3-15,2.7-10.3-11.8-8.1C615,1209,612.6,1220.8,608.8,1216.1Z" transform="translate(-478.9 -1077.2)"/><path class="a" d="M608.9,1218c-1.1,1.7-3,2-4.7,2.5-6.9,2.1-14.1,1.9-21.2,1.4-10-.6-14.4-8.5-18.2-16.4-1-2.1-1.8-4.3-2.7-6.4s-1.5-2.9.1-4,.9-3.6-.3-4.4-4.4-1.9-6.4-.2-1.4,3.2.1,4.7,1.6,4.1-.8,5.7a38.6,38.6,0,0,0-12,13.7c-.3.7-1.3,1-1.9,1.4a.9.9,0,0,1-.6-.6c.3-2.3-.8-.9-1.6-.6-10.5,4.3-21.3,5-30.9-1.4-6.9-4.6-10.1-12.5-11.2-20.8-.5-4.5.1-9-.2-13.5s1.7-5.3,4.7-6c5.8-1.4,11.5-2.9,17.5-3,1.9,0,3.2-.8,4.9-2.1a16.9,16.9,0,0,1,14.6-3c5.9,1.5,10.6,5.9,15.9,8.8s7.6,4.9,12.3,5.2a3.8,3.8,0,0,0,3.2-.7c6-4.9,13.4-4.9,20.6-5.7,1.3-.1,3-.5,3.3,1.2s-1.3,2.3-2.9,2.6c-7.3,1.3-14.9,1.9-21,6.9-.5.4-1.6-.3-1.7,1.1-.3,4.9-1.8,10-.9,14.7s3.9,10.2,6.7,14.9,7.3,4,11.4,5.1c7.8,2.3,15.3-.1,22.8-2A1.3,1.3,0,0,1,608.9,1218Z" transform="translate(-478.9 -1077.2)"/><path class="a" d="M598.5,1172.4l19.2,8.1c.7.3,1.1,1,.6,1.5s-1.6,1.5-2.6.7c-5.2-4.5-11.8-4.7-18.1-5.9-1.8-.3-3.6-.9-3.2-2.8S596.9,1173.4,598.5,1172.4Z" transform="translate(-478.9 -1077.2)"/><path class="a" d="M503.8,1171.9c-1.8,0-2.3,0-2.4-2.6,0-4.5,3.2-7.6,3.6-11.7a2.5,2.5,0,0,1,3.2-1.6,2.8,2.8,0,0,1,1.7,3.3c-.4,3.4-1.1,6.8-1.8,10.2S505.7,1172.1,503.8,1171.9Z" transform="translate(-478.9 -1077.2)"/><path class="a" d="M598.4,1253.8c-.1,1.7-.2,3.6-2.4,3.6s-3.4-.9-3.4-2.8a3.9,3.9,0,0,1,3.6-3.9C598,1250.5,598.3,1252.3,598.4,1253.8Z" transform="translate(-478.9 -1077.2)"/><path class="a" d="M569.3,1238.5c.2.3.7.8.7,1.1-.2,1.9.6,4.1-1.6,5.3a1.7,1.7,0,0,1-2.2-.5c-1.1-1.9.6-3.3,1.1-5h0C567.8,1238.9,568.1,1237.8,569.3,1238.5Z" transform="translate(-478.9 -1077.2)"/><path class="a" d="M629.3,1244.9a1.4,1.4,0,0,1-2.2,1.1c-1.1-.4-2.9.1-2.9-1.8s.7-2.4,2.1-2A4.5,4.5,0,0,1,629.3,1244.9Z" transform="translate(-478.9 -1077.2)"/><path class="a" d="M568.3,1191.8c3.2,3.1,2.6,6,2.4,9.8C567.6,1198.5,568,1195.7,568.3,1191.8Z" transform="translate(-478.9 -1077.2)"/><path class="a" d="M502.7,1257.7c1.7.8,3-2.1,4.5,0,.4.5.7,1.3,0,1.6S504.1,1259.3,502.7,1257.7Z" transform="translate(-478.9 -1077.2)"/><path class="a" d="M650.1,1168.2c1.4,1.2.7,2.5.9,4.1C648.5,1171,650,1169.5,650.1,1168.2Z" transform="translate(-478.9 -1077.2)"/><path class="a" d="M520,1129c-.8-1.5-.5-2.6,1.2-3.1a1.8,1.8,0,0,1,1.3.4c.5,1.8-.3,2.8-1.9,3.4S519.7,1129.7,520,1129Z" transform="translate(-478.9 -1077.2)"/><path class="a" d="M520.6,1129.7c.1,1.3-.3,2.4-1.8,2.2s-.9-.8-1-1.4.8-2,2.2-1.5Z" transform="translate(-478.9 -1077.2)"/><path class="a" d="M643.2,1146.8a1.7,1.7,0,0,1-1.7,1.4c-.9.1-1.6-.3-1.5-1.3s1.1-1,1.9-1.1S643,1146.2,643.2,1146.8Z" transform="translate(-478.9 -1077.2)"/><path class="a" d="M639.7,1150.7c0,1-.4,1.5-1.4,1.4s-1.2-.4-1.2-1.3a1.4,1.4,0,0,1,1.6-1.4C639.5,1149.4,639.6,1150.1,639.7,1150.7Z" transform="translate(-478.9 -1077.2)"/><path class="a" d="M602.7,1086c.3-.6.7-1.1,1.3-.6s.2.8.2,1.2h.1a1.1,1.1,0,0,1-.7.3Z" transform="translate(-478.9 -1077.2)"/><path class="a" d="M591.3,1081.6c-.1-.6-.1-1.2.7-1s.2.6.2,1h.1c-.4.6-.7.6-1.1,0Z" transform="translate(-478.9 -1077.2)"/><path class="a" d="M569.6,1237.4c.3.1.6.2.7.4s.1.9-.6.7-.4-.3-.5-.5S569.5,1237.6,569.6,1237.4Z" transform="translate(-478.9 -1077.2)"/><path class="a" d="M538.3,1217.4l-.6,1-.5-.6,1.1-.3Z" transform="translate(-478.9 -1077.2)"/><path class="a" d="M609.6,1217.4a1.1,1.1,0,0,1-.7.6l-1.1-.9c0-.7.3-1.1,1-1Z" transform="translate(-478.9 -1077.2)"/><path class="a" d="M538.3,1217.5c-.3-.9.1-1.2,1-1.1v.2c.1.9-.3,1.1-1.1.8Z" transform="translate(-478.9 -1077.2)"/><path class="a" d="M539.3,1216.4c-.2-.8.2-1,1-1l.6.6c-.3.6-.7,1-1.5.6Z" transform="translate(-478.9 -1077.2)"/><path class="a" d="M509,1154.4l-.7-.4.4-.3.6.3Z" transform="translate(-478.9 -1077.2)"/><path class="a" d="M522.7,1124.9c-.1.7-.5,1.2-1.2.8s-.6-1.3.3-1.7Z" transform="translate(-478.9 -1077.2)"/><path class="a" d="M617.8,1102.1c.2-.6.6-1.2,1.3-.8s.5,1.3-.3,1.7Z" transform="translate(-478.9 -1077.2)"/><path class="e" d="M620.1,1106.5a7.5,7.5,0,0,1,.7,1.2h.2c.3-.8,0-1.2-.8-1.2Z" transform="translate(-478.9 -1077.2)"/><path class="e" d="M591.2,1081.5a.7.7,0,0,0,1.1,0l-.6,1C591.5,1082.2,591.4,1081.8,591.2,1081.5Z" transform="translate(-478.9 -1077.2)"/><path class="e" d="M603.6,1086.8h.4l.3-.4Z" transform="translate(-478.9 -1077.2)"/><polygon class="e" points="160.2 89.4 160.2 89.1 160.5 89.2 160.2 89.4"/><polygon class="e" points="158.9 86.2 158.7 86.2 158.8 86.6 158.9 86.2"/><path class="f" d="M549.2,1188c.2-1.6,1.1-3.3-.9-4.5s-3.5-2.7-4.8-1.1-1.5,5.4-.4,8c2.1,5.1,2.6,5.1,6.1,1-1.4,4.2-2.6,7.8-3.7,11.3-3.8,12-15.2,13.8-26.8,12.3-7.8-1-13.4-4.7-15-13.4a81.4,81.4,0,0,1-2-17.7c0-4.7,3.9-8.7,11.1-9.8,11.1-1.8,21.9.7,32.1,4.7C548.4,1180.2,550.3,1183.7,549.2,1188Z" transform="translate(-478.9 -1077.2)"/><path class="a" d="M508.6,1190.4c-.4,2,.6,5.3-2.8,5.2s-3.3-4.2-3.8-6.8-.4-3.9,2.4-3.8S508.9,1187.2,508.6,1190.4Z" transform="translate(-478.9 -1077.2)"/><path class="a" d="M505.2,1197.1l-.4.4-.3-.7.3-.3Z" transform="translate(-478.9 -1077.2)"/><path class="e" d="M538.2,1189.6c-2.4-2.5-5.5-1.2-8.3-1.6,3.7-4.4,5.7-.1,8.2,1.5Z" transform="translate(-478.9 -1077.2)"/><path class="e" d="M520.9,1188.7c1.2-1.1,2.3-2,4-1.6C524.1,1189.3,522.2,1188.5,520.9,1188.7Z" transform="translate(-478.9 -1077.2)"/><path class="e" d="M523.4,1194.6l.3-.4c.1,0,.3-.1.4,0s.3.5-.2.5Z" transform="translate(-478.9 -1077.2)"/><path class="e" d="M518.4,1190.5h0Z" transform="translate(-478.9 -1077.2)"/><path class="e" d="M538.1,1189.5c.1.7.5,1.1,1.2,1h.1c0-.8-.5-1.1-1.2-.9Z" transform="translate(-478.9 -1077.2)"/><polygon class="e" points="39.4 113.2 39.6 113.1 39.5 113.3 39.4 113.2"/><path class="g" d="M569.4,1190.6c-.2-1.5-1.1-3.3.9-4.4s3.5-2.8,4.9-1.2,1.4,5.5.3,8c-2.1,5.2-2.6,5.2-6.1,1.1,1.4,4.2,2.6,7.7,3.7,11.3,3.9,11.9,15.2,13.8,26.8,12.3,7.9-1.1,13.4-4.7,15-13.4a82.1,82.1,0,0,0,2-17.7c0-4.8-3.9-8.7-11.1-9.9-11.1-1.7-21.8.7-32.1,4.8C570.3,1182.8,568.3,1186.4,569.4,1190.6Z" transform="translate(-478.9 -1077.2)"/></svg>