<svg xmlns="http://www.w3.org/2000/svg" viewBox="0 0 300 350"><defs><style>.a{fill:blue;opacity:0;}.b{fill:lime;opacity:0.69;}.c,.e{fill:#9e005d;}.d{fill:#fff;stroke-width:0.45px;opacity:0.15;}.d,.n{stroke:#000;}.d,.g,.n{stroke-miterlimit:10;}.e{opacity:0.9;}.f{fill:#0071bc;}.g{fill:#b7b700;stroke:#b7b700;stroke-width:1.52px;}.h,.j{opacity:0.69;}.i,.j{fill:#161616;}.k{opacity:0.78;}.l{fill:#020202;}.m{fill:#070707;}.n{fill:none;stroke-width:0.05px;}.o{fill:#1a1a1a;}</style></defs><rect class="a" width="300" height="350"/><path class="b" d="M293,241.1c-6.8,4.9-15,9-21.4,6.2-3.3-1.4-4.9-4-6.4-6.8s-3.6-7.9-8.2-10.5c-8.9-5.1-19.6,1.3-32.7,5.5a108.6,108.6,0,0,1-27,5H182.4l-9.9-.9v.8a6.3,6.3,0,0,1,2.7-.4,4.8,4.8,0,0,1,1.7.5h-4.2v86H293V303.8a3,3,0,0,0,.4-1.1V240.9Z" transform="translate(-100 -75)"/><path class="c" d="M250.2,325.9l.3.5v45.9a11.1,11.1,0,0,1-11.1,11.1H151.9l-10.7-.4-1,.3a11.1,11.1,0,0,1-9.7-11v-49c8-8.7,18.6-11.3,24.1-12.3a67.2,67.2,0,0,1,11.8-.9c28.3.6,41.9,21.2,53.6,15.5,8.3-4.1,4.6-16.7,14.6-20,6-2,10,.9,15,2v15.1a8.8,8.8,0,0,0,.5,2.9H250Z" transform="translate(-100 -75)"/><path class="c" d="M288.5,331.1a54.9,54.9,0,0,1-21.8,0Z" transform="translate(-100 -75)"/><path class="d" d="M250.5,128V372.3a11.1,11.1,0,0,1-11.1,11.1H140.2a11.1,11.1,0,0,1-9.7-11V128a11.4,11.4,0,0,1,3.2-7.8,11.2,11.2,0,0,1,7.9-3.3h97.8A11.1,11.1,0,0,1,250.5,128Z" transform="translate(-100 -75)"/><path class="e" d="M369.1,327.4c0,.1-.1.1-.1.2h-.1v.2l-.8.6a5.4,5.4,0,0,1-2.7.6,37.8,37.8,0,0,1-7.5-1.2c-7.5-1.7-18.5-4.6-32.3-4.1a34.4,34.4,0,0,0-4.6.3c-13.2,1.1-22.2,5-32,6.9H266.3a69,69,0,0,1-15.8-5.2l-.4-.2a8.8,8.8,0,0,1-.5-2.9V307.6h.9a13.5,13.5,0,0,0,6.8-.4c13-3.9,12.7-23,23.6-24.5,8.4-1.2,13.9,9,20,6.3,3.2-1.4,2.4-4.8,6.4-11.8.8-1.4,7-12.1,13.6-14.2a6.3,6.3,0,0,1,2.7-.3c5.7.5,4.9,8.6,12.8,13.6,10.9,6.9,24.6-1.1,27.2,3.6,1.8,3.2-4.6,6.7-6.3,14.6C354,309.8,372.4,321.4,369.1,327.4Z" transform="translate(-100 -75)"/><path class="f" d="M206.1,252.6l-1-.4c-2.3-1-2.9-2-2.9-3.2s.6-2.7,3.4-2.7a6.1,6.1,0,0,1,3.2.7c.1.1.2,0,.2-.1v-1a6.6,6.6,0,0,0-3.3-.6c-2.7,0-4.5,1.5-4.5,3.8s.6,2.8,3.4,4l.9.4c2.4,1.1,3.1,2,3.1,3.4s-1.2,2.9-3.7,2.9a6.6,6.6,0,0,1-3.7-1.1c-.1-.1-.1,0-.1.1v1.1a7.1,7.1,0,0,0,3.8.9c3.2,0,4.8-1.8,4.8-4S208.8,253.8,206.1,252.6Z" transform="translate(-100 -75)"/><path class="f" d="M216.4,249.5c-2.9,0-4.7,2.5-4.7,5.7s1.4,5.6,5.1,5.6a6,6,0,0,0,3-.7c.1,0,.1,0,.1-.1v-.8h-.1a7.2,7.2,0,0,1-2.9.6c-2.8,0-4.2-2.1-4.1-4.8h7.7a2.5,2.5,0,0,0,.1-1A4.1,4.1,0,0,0,216.4,249.5Zm3.1,4.6h-6.7c.3-1.9,1.4-3.6,3.6-3.6a3.1,3.1,0,0,1,3.1,3.3Z" transform="translate(-100 -75)"/><path class="f" d="M230,253.6c0-2.3-1-4.1-3.7-4.1a6.6,6.6,0,0,0-3,.7c-.1,0-.1,0-.1.1v.8h.1a6.5,6.5,0,0,1,2.9-.7,2.5,2.5,0,0,1,2.7,2.8v.8h-1.7c-2.6,0-5,.9-5,3.3s1.7,3.4,4,3.4a8.4,8.4,0,0,0,3.8-.9h0v-6.2Zm-1.1,5.7a5,5,0,0,1-2.4.6c-2.4,0-3.2-1.3-3.2-2.5s1.3-2.4,3.9-2.4h1.7Z" transform="translate(-100 -75)"/><path class="f" d="M245,249.5a5.3,5.3,0,0,0-3.9,1.8,3,3,0,0,0-3-1.8,4.8,4.8,0,0,0-3.6,1.6,5.3,5.3,0,0,0-.1-1.3c0-.1,0-.1-.1-.1h-.8a.1.1,0,0,0-.1.1c0,.4.1,1.2.1,2.2v8.5c0,.1,0,.1.1.1h.9a.1.1,0,0,0,.1-.1v-8.3a3.9,3.9,0,0,1,3.3-1.7c1.7,0,2.6,1.2,2.6,3.2v6.8c0,.1,0,.1.1.1h.9c.1,0,.1,0,.1-.1v-6.8a5.4,5.4,0,0,0-.2-1.5,4.2,4.2,0,0,1,3.4-1.7c1.8,0,2.7,1.5,2.7,3.2v6.8c0,.1,0,.1.1.1h.8c.1,0,.2,0,.2-.1v-6.8C248.6,250.2,246.5,249.5,245,249.5Z" transform="translate(-100 -75)"/><path class="g" d="M268,237.6h-.6c-.6,0,.3-.6.3-1.7V221.6h-1.1V236c0,1.9-.4,2.7.5,2.7h.9v-.9C268.1,237.6,268.1,237.5,268,237.6Z" transform="translate(-100 -75)"/><path class="g" d="M276.9,226.3c-2.5,0-4,2.1-4,4.8s1.2,4.8,4.3,4.8a4.5,4.5,0,0,0,2.6-.6.1.1,0,0,0,.1-.1v-.6h-.1a5.3,5.3,0,0,1-2.5.5c-2.4,0-3.6-1.7-3.5-4.1h6.6a2,2,0,0,0,.1-.9A3.5,3.5,0,0,0,276.9,226.3Zm2.7,3.8h-5.8c.3-1.6,1.2-3.1,3.1-3.1a2.7,2.7,0,0,1,2.7,2.8Z" transform="translate(-100 -75)"/><path class="g" d="M285.6,231.8c-2.2-.9-2.7-1.5-2.7-2.5s.7-2,2.6-2a5.8,5.8,0,0,1,2.8.7h.1v-1.1a5.3,5.3,0,0,0-2.7-.5c-2.4,0-3.8,1.3-3.8,3s1.1,2.7,3.4,3.6,2.5,1.4,2.5,2.6-1.4,2.5-4,2a7,7,0,0,1-2-.8c-.1-.1-.1,0-.1.1V238a6.8,6.8,0,0,0,3.1.7c2.2,0,4.1-1.1,4.1-3.3S287.8,232.7,285.6,231.8Z" transform="translate(-100 -75)"/><path class="g" d="M292.5,230.5c-1.7-.6-2-1.1-2-1.9s.5-1.5,2-1.5a4.3,4.3,0,0,1,2.1.5h.1v-.8a.1.1,0,0,0-.1-.1,4.5,4.5,0,0,0-2.1-.4c-1.8,0-2.9,1-2.9,2.4s.8,2,2.6,2.7,2,1.1,2,2-.8,1.7-2.2,1.7a4.4,4.4,0,0,1-2.5-.8h-.1v.8c0,.1,0,.1.1.1a4,4,0,0,0,2.4.6c1.7,0,3.2-.8,3.2-2.6S294.2,231.2,292.5,230.5Z" transform="translate(-100 -75)"/><path d="M222.2,116.6V119a8.4,8.4,0,0,1-8.4,8.6H172.3a8.5,8.5,0,0,1-8.5-8.6v-2.4Z" transform="translate(-100 -75)"/><g class="h"><path d="M143.2,125.5h.1a1.3,1.3,0,0,0,.9-.4h-.3a.9.9,0,0,1-1-1c0-.6.4-1,1.2-1s1.1.4,1.1,1.3a1.9,1.9,0,0,1-1.9,1.8h0Zm1.3-1.1v-.2c0-.4-.2-.6-.5-.6s-.3.1-.3.4.2.4.5.4Z" transform="translate(-100 -75)"/><path d="M145.7,124.2a.5.5,0,1,1,.5.5A.5.5,0,0,1,145.7,124.2Zm0,1.4a.5.5,0,1,1,.5.5A.5.5,0,0,1,145.7,125.6Z" transform="translate(-100 -75)"/><path d="M147.1,125.4h0v-.5h0l1.1-1.8h.9v1.8h.4v.6h-.3v.6h-.7v-.6Zm1.3-.8v-.9h0a10.9,10.9,0,0,1-.6,1.1h.6Z" transform="translate(-100 -75)"/><path d="M150.1,126h0v-2.2h-.4v-.5h0l.6-.2h.6v3h-.8Z" transform="translate(-100 -75)"/></g><g class="h"><path class="i" d="M228.5,124.6v1.2c0,.2-.1.3-.2.3H228c-.2,0-.2-.1-.2-.3v-2.4c0-.2,0-.3.2-.3h.3l.2.2v1.3Z" transform="translate(-100 -75)"/><path class="i" d="M227.2,124.9v.9c0,.2,0,.3-.2.3h-.3c-.1,0-.2-.1-.2-.3V124a.2.2,0,0,1,.2-.2h.4c.1,0,.1.1.1.2v.9Z" transform="translate(-100 -75)"/><path class="i" d="M226,125.3v.5a.3.3,0,0,1-.3.3h-.3c-.1,0-.2-.1-.2-.3v-1.1a.2.2,0,0,1,.2-.2h.3c.2,0,.3.1.3.2v.6Z" transform="translate(-100 -75)"/><path class="i" d="M223.9,125.6v-.2c0-.2.1-.2.3-.3h.2q.3.2.3.3v.4a.3.3,0,0,1-.3.3h-.2a.3.3,0,0,1-.3-.3v-.2Z" transform="translate(-100 -75)"/></g><g class="h"><path class="i" d="M233.8,123.4h.5a1.9,1.9,0,0,1,.8.3l.4.3v.2c-.1.1-.1.1-.2,0a1.8,1.8,0,0,0-1.3-.6,1.9,1.9,0,0,0-1.3.2l-.6.4c-.1.1-.2.1-.3-.1h.1l.4-.3.9-.4h.6Z" transform="translate(-100 -75)"/><path class="i" d="M233.6,126.4l-.2-.2a.2.2,0,0,1,0-.3.2.2,0,0,1,.2-.2c.2,0,.4.1.4.3a.4.4,0,0,1-.2.4h-.2Z" transform="translate(-100 -75)"/><path class="i" d="M235.1,124.6c0,.1,0,.1-.1.2h-.3a1.5,1.5,0,0,0-1.3-.3.9.9,0,0,0-.7.3h-.4a1.5,1.5,0,0,1,.9-.6,1.7,1.7,0,0,1,1.2.1c.2.1.5.2.6.4Z" transform="translate(-100 -75)"/><path class="i" d="M233.7,124.6a1,1,0,0,1,.7.2h.2c.1.1.1.2,0,.2s-.1.1-.2,0a1.1,1.1,0,0,0-.8-.3l-.5.2h-.2c0,.1-.1.1-.2,0v-.2l.5-.3Z" transform="translate(-100 -75)"/><path class="i" d="M233.7,125.2c.2,0,.4,0,.5.2s.1.1,0,.2H234a.4.4,0,0,0-.6,0h-.2c-.1-.1-.1-.2,0-.2S233.5,125.2,233.7,125.2Z" transform="translate(-100 -75)"/></g><path class="j" d="M239.5,126.3c-.1-.2-.3-.3-.3-.5v-2l.3-.4h0a3.1,3.1,0,0,0-.2.8v1.4a1.4,1.4,0,0,0,.2.6Z" transform="translate(-100 -75)"/><path class="j" d="M243.9,123.5c.1.1.1.1.1.2v2.5h0v-2.5Z" transform="translate(-100 -75)"/><path class="j" d="M242.8,126.1h-3.2l-.2-.3V124c0-.1.2-.3.2-.4h3.2Z" transform="translate(-100 -75)"/><g class="k"><path class="l" d="M140.3,136.6h1.2c1.2,0,1.4.6,1.4.9a.9.9,0,0,1-.3.7,1,1,0,0,1,.5.8c0,.7-.6,1.1-1.6,1h-1.2Zm.9,1.2h.8v-.2c0-.2,0-.4-.4-.4h-.4Zm0,1.4h.4c.3,0,.5-.1.5-.3s-.1-.4-.5-.4h-.4Z" transform="translate(-100 -75)"/><path class="l" d="M145.7,139.2v.5h0a2.7,2.7,0,0,1-1.2.3c-.6,0-1.1-.3-1.1-.9s.4-.9,1.2-.9h.3c0-.1-.1-.2-.5-.2h-.8v-.6h1a1,1,0,0,1,1.1,1Zm-.8-.4h-.3c-.2,0-.4.1-.4.3l.4.2h.3Z" transform="translate(-100 -75)"/><path class="l" d="M148.1,139.8h-.6a1.4,1.4,0,0,1-1.4-1.4,1.3,1.3,0,0,1,1.5-1.3h.5v.6h-.4c-.4,0-.7.2-.7.6a.7.7,0,0,0,.7.6h.4Z" transform="translate(-100 -75)"/><path class="l" d="M151,137.3c.1,0,.1,0,0,.1a10.5,10.5,0,0,0-.8,1.1h0l.9,1.4H150l-.6-1v1h-.9v-3.6h.9v2.1l.7-1.1h.9Z" transform="translate(-100 -75)"/></g><g class="k"><path class="l" d="M175.9,140.9h-.1v-3.3H177c.3.6.8,1.8.9,2.1h0v-2.1h.8v3.3h-1.1l-1-2.4h0c0,.4.1.6.1,1.1v1.3h-.8Z" transform="translate(-100 -75)"/><path class="l" d="M181.8,139.5a1.3,1.3,0,0,1-1.3,1.4,1.2,1.2,0,0,1-1.4-1.3,1.4,1.4,0,0,1,1.4-1.4A1.2,1.2,0,0,1,181.8,139.5Zm-1.8,0c0,.5.2.7.5.7s.4-.2.4-.6-.1-.7-.4-.7S180,139.1,180,139.5Z" transform="translate(-100 -75)"/><path class="l" d="M184.3,140.9h-.1a7.4,7.4,0,0,0-.3-1.6h0a9,9,0,0,1-.4,1.6h-.9l-.6-2.5c-.1,0,0-.1,0-.1h.9a15.5,15.5,0,0,0,.3,1.6h0a11.6,11.6,0,0,1,.3-1.6.1.1,0,0,1,.1-.1h.8a11.6,11.6,0,0,1,.3,1.6h0c.1-.4.2-1,.4-1.6h.7a.1.1,0,0,1,.1.1l-.7,2.5h-.9Z" transform="translate(-100 -75)"/><path class="l" d="M187.4,137.5h1.2c1.1,0,1.4.6,1.4,1.1s-.6,1.2-1.5,1.2h-.2v1h-.9Zm.9,1.6h.3c.4,0,.5-.2.5-.5s-.1-.4-.5-.4h-.3Z" transform="translate(-100 -75)"/><path class="l" d="M190.4,137.2h.9v2.9h.3v.6h-.5a.6.6,0,0,1-.7-.7Z" transform="translate(-100 -75)"/><path class="l" d="M194.1,140.2v.4h0a2.7,2.7,0,0,1-1.2.3c-.6,0-1.1-.2-1.1-.9s.5-.8,1.2-.8h.3s-.1-.2-.5-.2l-.7.2h0v-.6h0a1.5,1.5,0,0,1,.9-.2,1,1,0,0,1,1.1,1.1Zm-.8-.4H193a.3.3,0,0,0-.3.3.3.3,0,0,0,.3.3h.3Z" transform="translate(-100 -75)"/><path class="l" d="M195.2,138.2h0c.3.8.4,1.3.5,1.5h0a15.5,15.5,0,0,1,.4-1.5.1.1,0,0,1,.1-.1h.7a35.9,35.9,0,0,1-1.2,3.5h-.9s-.1,0,0-.1a6.9,6.9,0,0,1,.4-1h0c-.1-.4-.7-1.7-.9-2.4h.9Z" transform="translate(-100 -75)"/><path class="l" d="M197.2,137.6a.5.5,0,0,1,.5-.5.5.5,0,0,1,.4.5.4.4,0,0,1-.4.4C197.4,138,197.2,137.9,197.2,137.6Zm0,.7a.1.1,0,0,1,.1-.1h.8v2.5h-.9Z" transform="translate(-100 -75)"/><path class="l" d="M198.7,138.9c0-.2-.1-.5-.1-.6a.1.1,0,0,1,.1-.1h.6a.1.1,0,0,1,.1.1h.1l.7-.2c.4,0,.9.2.9,1.1v1.5h-.9v-1.5c0-.2-.1-.4-.3-.4h-.4v1.8h-.8Z" transform="translate(-100 -75)"/><path class="l" d="M203,140.2c.6,0,1,.2,1,.7s-.5,1.1-1.4,1.1-1.2-.5-1.2-.9.1-.3.4-.5-.2-.3-.2-.5,0-.2.2-.4a.6.6,0,0,1-.3-.6c0-.5.4-.9,1.1-.9H204v.6h-.3v.2c0,.5-.5.8-1.1.8h.4Zm-.6.7h-.1a.4.4,0,0,0-.1.3c0,.1.1.2.5.2s.5-.1.5-.2-.1-.2-.4-.2Zm-.1-1.9a.3.3,0,0,0,.3.3c.2,0,.3-.1.3-.2s-.1-.4-.3-.4A.3.3,0,0,0,202.3,139Z" transform="translate(-100 -75)"/></g><g class="k"><path class="m" d="M225.8,139.3c0,.6.3.9.8.9a.8.8,0,0,0,.9-.9v-2.2h.4v2.2a1.2,1.2,0,0,1-1.3,1.3,1.2,1.2,0,0,1-1.3-1.3v-2.2h.5Z" transform="translate(-100 -75)"/><path class="m" d="M230.7,139.2a1.3,1.3,0,0,1-1.5,1.4H229v1h-.5v-3.5h0l1-.2A1.2,1.2,0,0,1,230.7,139.2Zm-1.7-.8v1.8h.3a.9.9,0,0,0,1-1c0-.5-.3-.8-.9-.8Z" transform="translate(-100 -75)"/><path class="m" d="M232.5,140.6h0v-3.4h.5l1.7,2.9h0a3.8,3.8,0,0,1-.1-.8v-2.1h.5v3.3h-.6l-1.7-3h0c0,.3.1.5.1,1v2h-.4Z" transform="translate(-100 -75)"/><path class="m" d="M236.1,139.3a.7.7,0,0,0,.8.9h.7v.3h-.8c-.9,0-1.2-.6-1.2-1.3a1.2,1.2,0,0,1,1.2-1.3.9.9,0,0,1,.9,1v.3h-1.6Zm.9-.3h.3c0-.2-.1-.7-.6-.7a.7.7,0,0,0-.6.7Z" transform="translate(-100 -75)"/><path class="m" d="M238,138.1h.5l.6.9h0l.6-.9h.4l-.8,1.2.9,1.2h-.5l-.7-1h0l-.6,1H238c-.1,0-.1-.1,0-.1a8.3,8.3,0,0,1,.8-1.2Z" transform="translate(-100 -75)"/><path class="m" d="M241.7,140.5h-.4c-.3,0-.6-.2-.6-.7v-1.5h-.4v-.3h.4c0-.2.1-.5.1-.6h.4v.7h.5v.3h-.5v1.5c0,.2,0,.3.3.3h.2Z" transform="translate(-100 -75)"/></g><polyline class="l" points="37.2 61 34.3 63.9 33.9 63.5 34 64.3 34.3 63.9 37.2 66.8"/><line class="n" x1="31" y1="70.1" x2="150.6" y2="70.4"/><rect class="o" x="87.6" y="46.4" width="10.8" height="1.42" rx="0.3"/></svg>