<svg xmlns="http://www.w3.org/2000/svg" viewBox="0 0 663 663"><defs><style>.a{fill:#f44236;}.a,.b{fill-rule:evenodd;}.b{fill:#080c15;}</style></defs><path class="a" d="M0,663V0H663V.8C586.7,70.5,526.4,83.5,484,81c-56.2-3.3-92.6-34.2-135-13s-53.6,73.4-55,80c-15.3,70.4,41.1,113.5,16,146-23.8,30.7-70.2,4.7-102,39-33.4,36.1.3,84.2-36,132-20,26.3-40.1,24.8-72,45S25.9,572.5,0,663Z"/><path class="b" d="M318,0c-2.4,54.8-16.7,76.8-30.5,86.4-21.9,14.8-43.2-.4-61.4,18.9s-6.6,45.2-24.5,59.2-39.7-6.6-54.7,8.2-2.6,47.5-15,55.1-27.1-22-51.3-20.6S40,239.6,30.3,257.4A266.8,266.8,0,0,0,.1,363V0Z"/></svg>