<svg xmlns="http://www.w3.org/2000/svg" viewBox="0 0 48 40.8"><defs><style>.a{fill:#2867b2;}.b{fill:#5d8cc4;}.c{fill:#c8d8eb;}.d{fill:#3570b6;}.e{fill:#346fb6;}</style></defs><path class="a" d="M609.8,363.5h35.6a3.1,3.1,0,0,1,2.4,3.1v34.3a3.1,3.1,0,0,1-3.1,3.1H610.4a3,3,0,0,1-3.1-2.7V366.2a3,3,0,0,1,2-2.6Zm13.3,15.2v19.2h6V388a13.6,13.6,0,0,1,.2-2,3,3,0,0,1,3.5-2.5,2.7,2.7,0,0,1,2.8,2.3,8.2,8.2,0,0,1,.2,2.2v10h6V387.4a13.9,13.9,0,0,0-.4-4.1,5.8,5.8,0,0,0-2.5-4.1,7.7,7.7,0,0,0-4.2-1,6.2,6.2,0,0,0-5.7,3l-.2.2v-2.7Zm-9.8,19.2h6V378.7h-6Zm3-21.9a3.5,3.5,0,0,0,3.5-3.5,3.5,3.5,0,0,0-3.5-3.4,3.5,3.5,0,1,0,0,6.9Z" transform="translate(-607.2 -363.5)"/><path class="b" d="M645.2,363.5h0Z" transform="translate(-607.2 -363.5)"/><path class="c" d="M607.3,401.3h-.1V366.2h.1v35.1Z" transform="translate(-607.2 -363.5)"/><path class="d" d="M649.7,401.5a2.7,2.7,0,0,1,2.8-2.8,2.8,2.8,0,1,1-2.8,2.8Zm2.8,2.4a2.4,2.4,0,0,0,2.4-2.4,2.4,2.4,0,0,0-2.5-2.4,2.4,2.4,0,0,0-2.4,2.4A2.3,2.3,0,0,0,652.5,403.9Z" transform="translate(-607.2 -363.5)"/><path class="e" d="M652.9,401.7l.8,1.2c-.3.2-.5.1-.6-.2a1.8,1.8,0,0,1-.5-.7.5.5,0,0,0-.7-.3V403h-.4v-3h1.3c.5.1.8.3.8.8S653.5,401.5,652.9,401.7Zm-1-.3h.9c.3,0,.4-.2.4-.5s-.2-.4-.5-.4h-.8Z" transform="translate(-607.2 -363.5)"/></svg>