<svg xmlns="http://www.w3.org/2000/svg" viewBox="0 0 189 67.6"><polygon points="89.2 39 94.5 33.8 99.8 39 89.2 39" style="fill:#683131"/><polygon points="94.5 33.8 99.8 28.5 99.8 39 94.5 33.8" style="fill:#680000"/><polygon points="89.2 39 94.5 33.8 89.2 28.5 89.2 39" style="fill:#680000"/><polygon points="94.5 33.8 99.8 28.5 89.2 28.5 94.5 33.8" style="fill:#6b1515;opacity:0.4"/><g style="opacity:0.42"><polygon points="94.5 43.2 94.5 33.8 103.9 33.8 94.5 43.2" style="fill:#683131;opacity:0.82"/><polygon points="94.5 33.8 94.5 24.3 104 33.8 94.5 33.8" style="fill:#680000;opacity:0.82"/><polygon points="94.5 43.2 94.5 33.8 85.1 33.8 94.5 43.2" style="fill:#680000;opacity:0.82"/><polygon points="94.5 33.8 94.5 24.3 85 33.8 94.5 33.8" style="fill:#6b1515;opacity:0.81"/><g style="opacity:0.74"><polygon points="94.5 33.8 96.3 35.6 92.7 35.6 94.5 33.8" style="fill:#ad2323"/><polygon points="96.3 32 94.5 33.8 92.7 32 96.3 32" style="fill:#ad2323"/><polygon points="94.5 33.8 96.3 35.6 96.3 32 94.5 33.8" style="fill:#ed7474"/><polygon points="92.7 35.6 94.5 33.8 92.7 32 92.7 35.6" style="fill:#ef3333"/></g></g><path d="M59.5,35,91.3,66.8c1.7,1.7,1.3,2.5-1.1,1.6L0,35Z" transform="translate(0 -1.2)" style="fill:#6b1515"/><path d="M91.3,3.2,59.5,35H0L90.2,1.6C92.6.7,93,1.5,91.3,3.2Z" transform="translate(0 -1.2)" style="fill:#f72d2d"/><path d="M189,35,98.8,68.4c-2.4.9-2.8.1-1.1-1.6L129.5,35Z" transform="translate(0 -1.2)" style="fill:#6b1515"/><path d="M189,35H129.5L97.7,3.2C96,1.5,96.4.7,98.8,1.6Z" transform="translate(0 -1.2)" style="fill:#f72d2d"/><polygon points="94.5 33.8 94.5 38.5 89.7 33.8 94.5 33.8" style="fill:#ad2323"/><polygon points="99.2 33.8 94.5 33.8 94.5 29 99.2 33.8" style="fill:#ad2323"/><polygon points="94.5 33.8 94.5 38.5 99.2 33.8 94.5 33.8" style="fill:#ed7474"/><polygon points="89.7 33.8 94.5 33.8 94.5 29 89.7 33.8" style="fill:#ef3333"/></svg>