<svg xmlns="http://www.w3.org/2000/svg" viewBox="0 0 48 42.1"><defs><style>.a{fill:#ea4335;}.b{fill:#34a853;}.c{fill:#4285f4;}.d{fill:#fbbc04;}.e{fill:#c5221e;}.f{fill:#59b872;}.g{fill:#ecbf4f;}.h{fill:#e9c78d;}.i{fill:#f8d5cd;}.j{fill:#e47268;}.k{fill:#f1cd95;}.l{fill:#f6d3a3;}.m{fill:#6099f7;}.n{fill:#edc15f;}.o{fill:#edc77e;}.p{fill:#9ec1f9;}.q{fill:#eda29a;}.r{fill:#dc6057;}.s{fill:#cbdffb;}.t{fill:#f1afa4;}.u{fill:#f7a010;}.v{fill:#e4f3e8;}.w{fill:#a6d8b7;}</style></defs><path class="a" d="M695.3,375.9a4.6,4.6,0,0,1-.7.7l-2.6,2.1-1.5,1.4-1.5,1.3-1.7,1.5-1.6,1.4-1.8,1.6-.9.8-.7-.7-1.6-1.3-1.9-1.7-2-1.7-2.4-2.2-2.9-2.5-.8-.6h-.1V360.3l1,.9,2.1,1.8,1.1.9,1.7,1.5,1.9,1.7,2.3,2,2.3,2,.5-.4,3.3-2.9,2.2-2,2.3-2,2.7-2.3,1.1-.9c0-.1.1-.1.2-.2v15.4Z" transform="translate(-659 -357.1)"/><path class="b" d="M695.3,375.9h.1l1.3-1.1,2.1-1.8,2.4-2.1,2-1.8,1.3-1.1a7.5,7.5,0,0,0,1.7-1.9,8,8,0,0,0,.7-2h.1v29.3c0,.3-.1.5-.1.7a2.9,2.9,0,0,1-.2.9l-.3.9a5.3,5.3,0,0,1-1.6,2,3.8,3.8,0,0,1-1.5.9l-1.5.4h-1.6l-.7-.2a5.9,5.9,0,0,1-3-2.1,5.1,5.1,0,0,1-1.1-2.5,1.9,1.9,0,0,1-.1-.8V375.9Z" transform="translate(-659 -357.1)"/><path class="c" d="M670.6,375.8h.1v17.1a6.8,6.8,0,0,1-.2,1.4,5.6,5.6,0,0,1-3.2,4.1l-1.4.5h-1.5c-.1,0-.1-.1-.2,0h-.7l-1.2-.4-1.2-.8a5.9,5.9,0,0,1-1.8-2.9,3.9,3.9,0,0,1-.2-1.5V364.5h.1c0,.1.1.2.1.4a6.2,6.2,0,0,0,1.7,2.6l1,.8,2.7,2.4,2.4,2.1,2.7,2.4Z" transform="translate(-659 -357.1)"/><path class="d" d="M706.9,364a8,8,0,0,1-.7,2,7.5,7.5,0,0,1-1.7,1.9l-1.3,1.1-2,1.8-2.4,2.1-2.1,1.8-1.3,1.1h-.1V360.4h0l1-.9,1-.9a5.5,5.5,0,0,1,1.4-.9l1.5-.4c0-.1.1,0,.1,0h1.9l.7.2h.3l.8.4a4.3,4.3,0,0,1,1.6,1.4,3.8,3.8,0,0,1,.9,1.3.4.4,0,0,0,.1.3v1.3h0v1h0Z" transform="translate(-659 -357.1)"/><path class="e" d="M670.6,375.8l-.8-.6-2.7-2.4-2.4-2.1-2.7-2.4-1-.8a6.2,6.2,0,0,1-1.7-2.6c0-.2-.1-.3-.1-.4v-.3H659v-.4a.3.3,0,0,0-.1-.2v-1.1a7,7,0,0,1,.3-1.4,4.7,4.7,0,0,0,.5-1h.1a7.3,7.3,0,0,1,1.8-1.7,3.1,3.1,0,0,1,1.3-.6l.6-.2h2.2l.6.2a1.3,1.3,0,0,1,.8.3h.3a7.4,7.4,0,0,1,1.7,1.2l1.3,1.2v15.4Z" transform="translate(-659 -357.1)"/><path class="f" d="M706.9,364v.1Z" transform="translate(-659 -357.1)"/><path class="g" d="M701.6,357.3h0Z" transform="translate(-659 -357.1)"/><path class="h" d="M706.7,361.5V361C706.7,361.2,706.8,361.3,706.7,361.5Z" transform="translate(-659 -357.1)"/><path class="i" d="M701.4,357.2h0Z" transform="translate(-659 -357.1)"/><path class="j" d="M659.1,362.3v.1Z" transform="translate(-659 -357.1)"/><path class="k" d="M706.9,362.3v-.4h.1Z" transform="translate(-659 -357.1)"/><path class="l" d="M707,362.8v0Z" transform="translate(-659 -357.1)"/><path class="m" d="M659.1,364.2v.3h-.1Z" transform="translate(-659 -357.1)"/><path class="n" d="M700.8,357.2h0Z" transform="translate(-659 -357.1)"/><path class="o" d="M703.2,357.6h-.3C703,357.5,703.2,357.5,703.2,357.6Z" transform="translate(-659 -357.1)"/><path class="p" d="M664.2,399.1c.1-.1.1,0,.2,0Z" transform="translate(-659 -357.1)"/><path class="q" d="M663.9,357.3h-.2C663.8,357.2,663.8,357.3,663.9,357.3Z" transform="translate(-659 -357.1)"/><path class="h" d="M702.2,357.3h0Z" transform="translate(-659 -357.1)"/><path class="p" d="M665.4,399.1h0Z" transform="translate(-659 -357.1)"/><path class="q" d="M664.2,357.3h0Z" transform="translate(-659 -357.1)"/><path class="r" d="M659,363.4a.3.3,0,0,1,.1.2Z" transform="translate(-659 -357.1)"/><path class="s" d="M659,364h0Z" transform="translate(-659 -357.1)"/><path class="s" d="M670.7,376h0Z" transform="translate(-659 -357.1)"/><path class="n" d="M700.4,357.3h0Z" transform="translate(-659 -357.1)"/><path class="q" d="M665.5,357.2Z" transform="translate(-659 -357.1)"/><path class="t" d="M665.9,357.3h0Z" transform="translate(-659 -357.1)"/><path class="u" d="M695.3,360.4Z" transform="translate(-659 -357.1)"/><path class="v" d="M707,363.3Z" transform="translate(-659 -357.1)"/><path class="w" d="M700.8,399.2h0Z" transform="translate(-659 -357.1)"/><path class="u" d="M695.3,375.8h0Z" transform="translate(-659 -357.1)"/></svg>