<svg xmlns="http://www.w3.org/2000/svg" xmlns:xlink="http://www.w3.org/1999/xlink" viewBox="0 0 237.8 350">
    <defs>
        <style>.a{isolation:isolate;}.b{fill:url(#a);}.c{opacity:0.18;}.d{fill:#fff;}.e{opacity:0.65;mix-blend-mode:screen;}.f{fill:#0c0b0b;}.g{fill:#fe784b;}.h{fill:#fe2373;}.i{fill:#febd0a;}.j{fill:#bd3cf9;}.k{fill:#db46e0;}.l{fill:#954bfe;}</style>
        <linearGradient id="a" x1="255.95" y1="436.46" x2="405.71" y2="436.46" gradientUnits="userSpaceOnUse">
            <stop offset="0" stop-color="#29abe2" />
            <stop offset="1" stop-color="blue" stop-opacity="0" />
        </linearGradient>
    </defs>
    <g class="a">
        <path class="b" d="M395.9,575.8,271,611.1c-8.2,2.3-15-6.5-15-19.8V282.5c0-13.3,6.8-22.6,15-20.8l124.9,26.2c5.4,1.1,9.8,10.6,9.8,21.1V554C405.7,564.5,401.3,574.2,395.9,575.8Z" transform="translate(-227.5 -261.5)" />
        <g class="c">
            <path d="M462,533.3c-42.5,10.3-85-19.2-127.4-43.7a22,22,0,0,0-8.3-2c-29.5-.7-59.1,2.3-88.6,24.2-4.4,3.3-6.7,6.3-5.3,6.2,40.6-.6,81.2,36,121.8,70.9,3.8,3.3,11.3,5,16.5,3.5,31-8.6,62.1-21.3,93.1-55.6C466.4,533.8,465.6,532.4,462,533.3ZM295.8,505.4c-3,.5-6.7.4-8.2-.3-3.9-2-7.8-3.7-11.7-5.3-1.4-.5,0-1.7,2.9-2.5a147.3,147.3,0,0,1,30.6-4.7,16.1,16.1,0,0,1,7.1,1.3c4.1,2.3,8.2,4.8,12.3,7.3,1.6,1,.8,1.8-1.7,1.8A206.2,206.2,0,0,0,295.8,505.4Zm26.6,33.3a303,303,0,0,0-35.1-22.8c22.4-5.5,44.9-5.1,67.3-5.2,12.1,7.5,24.3,14.8,36.4,20.9C368.1,535.9,345.2,536,322.4,538.7Zm66.5,29.5a14.8,14.8,0,0,1-10.7-1.7c-7.1-4.8-14.1-9.9-21.1-15.1-2.4-1.7-1.7-3.4,1.5-3.7,10.7-1.3,21.5-2.7,32.2-5.1a15.9,15.9,0,0,1,8.9.9,148.3,148.3,0,0,0,20.7,8.2c2.7.8,2.9,2.5.3,3.8A168.7,168.7,0,0,1,388.9,568.2Z" transform="translate(-227.5 -261.5)" />
        </g>
        <path class="d" d="M457.5,513.4c-42.5,10.3-85-19.2-127.4-43.7a22,22,0,0,0-8.3-2c-29.5-.7-59.1,2.3-88.6,24.2-4.4,3.3-6.7,6.3-5.3,6.2,40.6-.6,81.2,36,121.8,70.9,3.8,3.3,11.3,5,16.5,3.5,31-8.6,62.1-21.3,93.1-55.6C461.9,513.9,461.1,512.5,457.5,513.4ZM291.3,485.5c-3,.5-6.7.4-8.2-.3-3.9-2-7.8-3.7-11.7-5.3-1.4-.5,0-1.7,2.9-2.5a147.3,147.3,0,0,1,30.6-4.7A16.1,16.1,0,0,1,312,474c4.1,2.3,8.2,4.8,12.3,7.3,1.6,1,.8,1.8-1.7,1.8A206.2,206.2,0,0,0,291.3,485.5Zm26.6,33.3A303,303,0,0,0,282.8,496c22.4-5.5,44.9-5.1,67.3-5.2,12.1,7.5,24.3,14.8,36.4,20.9C363.6,516,340.7,516.1,317.9,518.8Zm66.5,29.5a14.8,14.8,0,0,1-10.7-1.7c-7.1-4.8-14.1-9.9-21.1-15.1-2.4-1.7-1.7-3.4,1.5-3.7,10.7-1.3,21.5-2.7,32.2-5.1a15.9,15.9,0,0,1,8.9.9,148.3,148.3,0,0,0,20.7,8.2c2.7.8,2.9,2.5.3,3.8A168.7,168.7,0,0,1,384.4,548.3Z" transform="translate(-227.5 -261.5)" />
        <g class="e">
            <path class="f" d="M292.9,390.3l-2.4-5.3-.4-.8c.1-.2.1-.3.2-.4l11.9-26.4a15.4,15.4,0,0,0,.8-1.9,8.3,8.3,0,0,1,2.2,3.3,12.3,12.3,0,0,1,.9,2.9,4.5,4.5,0,0,0-.6,1.2c-3.9,8.5-7.7,16.8-11.5,24.9A18.9,18.9,0,0,1,292.9,390.3Z" transform="translate(-227.5 -261.5)" />
            <path class="f" d="M303,355.5a15.4,15.4,0,0,1-.8,1.9l-11.9,26.4c-.1.1-.1.2-.2.4l-2.7-6,1.4-3.2c.4-1,.9-2,1.3-2.9s.9-2,1.3-2.9l1.5-3.4a20,20,0,0,1,1-2.1l1.8-4.3a22.5,22.5,0,0,1,1.1-2.2c1.8-2.7,3.7-3.5,5.8-2.1C302.8,355.2,302.9,355.4,303,355.5Z" transform="translate(-227.5 -261.5)" />
            <path class="f" d="M292.9,390.3a18.9,18.9,0,0,0,1.1-2.5c3.8-8.1,7.6-16.4,11.5-24.9a4.5,4.5,0,0,1,.6-1.2,27.4,27.4,0,0,1,0,11.4,25.2,25.2,0,0,1-2.1,5.5c-.5,1.1-1,2.3-1.6,3.4s-1.4,3.2-2.2,4.8l-2.1,4.6c-.7,1.4-1.4,2.9-2,4.3s-.5.5-.7.1-1.7-3.6-2.5-5.5Z" transform="translate(-227.5 -261.5)" />
            <path class="f" d="M292.9,365.8l-1.5,3.4c-.4.9-.9,1.9-1.3,2.9-.5-1-.9-2.1-1.4-3.1l-2.7-5.9a14.2,14.2,0,0,1,2.7-6.3,14.2,14.2,0,0,1,.8,1.8c.4,1,.9,1.7,1.3,2.7s1.1,2.3,1.6,3.4A3.7,3.7,0,0,1,292.9,365.8Z" transform="translate(-227.5 -261.5)" />
            <path class="f" d="M292.9,365.8a3.7,3.7,0,0,0-.5-1.1c-.5-1.1-1.1-2.2-1.6-3.4s-.9-1.7-1.3-2.7a14.2,14.2,0,0,0-.8-1.8,5.5,5.5,0,0,1,1.8-1.4q2.3-.7,4.2,2.1a8.5,8.5,0,0,1,1,1.9l-1.8,4.3A20,20,0,0,0,292.9,365.8Z" transform="translate(-227.5 -261.5)" />
            <path class="f" d="M286,363.1l2.7,5.9c.5,1,.9,2.1,1.4,3.1s-.9,1.9-1.3,2.9l-1.4,3.2a19.3,19.3,0,0,1-1.9-8.1,24,24,0,0,1,.4-6.6A.6.6,0,0,1,286,363.1Z" transform="translate(-227.5 -261.5)" />
        </g>
        <path class="g" d="M289,395.5c-.9-1.7-1.7-3.5-2.5-5.3l-.3-.8a.5.5,0,0,1,.2-.4c3.9-8.6,7.8-17.4,11.9-26.3a16.7,16.7,0,0,1,.8-2,8,8,0,0,1,2.2,3.4,18.4,18.4,0,0,1,.9,2.8,4.5,4.5,0,0,0-.6,1.2l-11.5,25Z" transform="translate(-227.5 -261.5)" />
        <path class="h" d="M299.1,360.7a16.7,16.7,0,0,0-.8,2c-4.1,8.9-8,17.7-11.9,26.3a.5.5,0,0,0-.2.4l-2.7-6c.4-1.1.9-2.1,1.4-3.2s.9-1.9,1.3-2.9.9-1.9,1.3-2.9L289,371l.9-2.1c.7-1.4,1.3-2.9,1.9-4.3l1.1-2.2c1.8-2.7,3.7-3.5,5.8-2.1Z" transform="translate(-227.5 -261.5)" />
        <path class="i" d="M289,395.5l1.1-2.4,11.5-25a4.5,4.5,0,0,1,.6-1.2,27.4,27.4,0,0,1-.1,11.4,19.7,19.7,0,0,1-2,5.5,35.4,35.4,0,0,1-1.6,3.4l-2.2,4.9-2.1,4.5-2.1,4.4c-.2.4-.5.4-.6,0s-1.7-3.6-2.5-5.4Z" transform="translate(-227.5 -261.5)" />
        <path class="j" d="M289,371l-1.5,3.4c-.4,1-.9,1.9-1.3,2.9l-1.4-3c-.9-2-1.8-4-2.8-6a13.2,13.2,0,0,1,2.8-6.3,10.8,10.8,0,0,1,.8,1.9c.4.9.9,1.7,1.3,2.6s1,2.3,1.6,3.5S288.9,370.5,289,371Z" transform="translate(-227.5 -261.5)" />
        <path class="k" d="M289,371c-.1-.5-.4-.7-.5-1s-1.1-2.3-1.6-3.5-.9-1.7-1.3-2.6a10.8,10.8,0,0,0-.8-1.9,3.6,3.6,0,0,1,1.8-1.3c1.5-.6,2.9.1,4.2,2a8.5,8.5,0,0,1,1,1.9c-.6,1.4-1.2,2.9-1.9,4.3Z" transform="translate(-227.5 -261.5)" />
        <path class="l" d="M282,368.3c1,2,1.9,4,2.8,6l1.4,3c-.4,1-.9,2-1.3,2.9s-1,2.1-1.4,3.2a20.5,20.5,0,0,1-2-8.1,28.9,28.9,0,0,1,.5-6.6Z" transform="translate(-227.5 -261.5)" />
        <path d="M254.4,480.8l-11.6,1.3v-2.2l2.3-.3V436.8l-7.4.3v43.4l2.3-.3v2.3l-12.1,1.4v-2.3l2.3-.3v-85h-2.3v-2.3l12.1.3v2.3h-2.3v38.3l7.4-.3V396.6h-2.3v-2.3l11.6.3v2.3h-2.3v82l2.3-.3Z" transform="translate(-227.5 -261.5)" />
        <path d="M276.7,466.6a15.8,15.8,0,0,1-2.6,8.9,9.6,9.6,0,0,1-6.7,4.3,7.3,7.3,0,0,1-6.8-2.8,12.5,12.5,0,0,1-2.8-8.5V428.6a14.1,14.1,0,0,1,2.8-8.9,8.2,8.2,0,0,1,6.8-3.6,7.7,7.7,0,0,1,6.7,3.4,14.2,14.2,0,0,1,2.6,8.6v20.2l-12.2.8v24c0,3.2,1,4.7,2.9,4.5s2.9-1.9,2.9-5.1V459.8l6.4-.6Zm-6.4-20.1V423c0-3.2-1-4.8-2.9-4.8s-2.9,1.7-2.9,4.9v23.8Z" transform="translate(-227.5 -261.5)" />
        <path d="M299.1,475.4l-7.8.9v-1.6a5.8,5.8,0,0,1-4.3,2.7c-4.4.5-6.5-2.8-6.5-10V453.9c0-7.6,3-11.6,9-11.9h1.8V422.6c0-3.1-.7-4.6-2.2-4.6s-2.3,1.5-2.3,4.6V435l-6.1.2v-7.3a15.2,15.2,0,0,1,2.3-8.7,7,7,0,0,1,6.1-3.3A6.7,6.7,0,0,1,295,419c1.5,2.1,2.2,4.9,2.2,8.4v46.2l1.9-.3Zm-7.8-2.8V444h-1.7q-3,.1-3,4.8v21.8c0,3,.7,4.3,2.1,4.2S290.5,474,291.3,472.6Z" transform="translate(-227.5 -261.5)" />
        <path d="M319,473l-7.2.9v-1.6a6,6,0,0,1-4.2,2.6c-4.1.5-6.2-2.7-6.2-9.6V426.1c0-6.9,2.1-10.3,6.2-10.4a5.1,5.1,0,0,1,4.2,2.1V398.2H310v-2l7.2.2v74.8l1.8-.2Zm-7.2-2.7V419.8c-.9-1.3-1.7-1.9-2.6-1.9s-2.1,1.5-2.1,4.3v46.3c0,2.8.7,4.2,2.1,4S310.9,471.7,311.8,470.3Z" transform="translate(-227.5 -261.5)" />
        <path d="M329.1,471.8l-8.7,1v-1.9l1.7-.2V418.1h-1.7v-2h7v54l1.7-.2Zm-1.7-62.2h-5.3V396.5l5.3.2Z" transform="translate(-227.5 -261.5)" />
        <path d="M347.7,469.6l-6.4.7V421.5c0-2.7-.6-4-1.9-4s-1.5.7-2.3,1.9v49.5l1.7-.2v1.9l-8.4,1v-1.9l1.7-.2V417.9h-1.7v-2h6.7v1.5a4.4,4.4,0,0,1,3.7-2.1c3.6,0,5.4,3.1,5.4,9.5v43l1.5-.2Z" transform="translate(-227.5 -261.5)" />
        <path d="M364.2,417.5h-1.4v54.6a15.4,15.4,0,0,1-1.8,7.5c-1.2,2.1-2.7,3.4-4.6,3.6s-3.4-.5-4.7-2.3a11.7,11.7,0,0,1-2.1-7.1v-1.9l4.7-.6v6.3c0,2.7.7,4,2.1,3.8s1.8-1.6,1.8-4.3V465.9a4.4,4.4,0,0,1-3.4,2.3c-3.5.4-5.2-2.5-5.2-8.9V424.8c0-6.3,1.7-9.5,5.2-9.5a3.9,3.9,0,0,1,3.4,1.9v-1.4h6Zm-6,46.6V419c-.7-1.1-1.4-1.7-2.1-1.7s-1.8,1.3-1.8,3.9v41.2c0,2.5.6,3.8,1.8,3.6S357.5,465.3,358.2,464.1Z" transform="translate(-227.5 -261.5)" />
    </g>
</svg>